{"glyphs":{"0":{"ha":1264,"x_min":111,"x_max":1153,"o":"m 375 -14 q 178 46 244 -14 q 111 208 111 106 l 111 764 q 178 926 111 867 q 375 986 244 986 l 889 986 q 1086 926 1019 986 q 1153 764 1153 867 l 1153 208 q 1086 46 1153 106 q 889 -14 1019 -14 l 375 -14 m 854 146 q 945 172 918 146 q 972 250 972 197 l 972 722 q 945 801 972 775 q 854 826 918 826 l 410 826 q 319 801 346 826 q 292 722 292 775 l 292 250 q 319 172 292 197 q 410 146 346 146 l 854 146 z "},"1":{"ha":958,"x_min":104,"x_max":896,"o":"m 896 0 l 104 0 l 104 160 l 410 160 l 410 736 l 115 736 l 115 889 l 410 889 l 410 972 l 590 972 l 590 160 l 896 160 l 896 0 z "},"2":{"ha":1153,"x_min":83,"x_max":1056,"o":"m 83 0 l 83 153 l 746 524 q 850 595 825 568 q 875 663 875 622 l 875 708 q 848 787 875 761 q 757 813 821 813 l 158 813 l 101 869 l 101 972 l 792 972 q 989 913 922 972 q 1056 750 1056 853 l 1056 639 q 1010 517 1056 571 q 856 401 965 463 l 436 167 l 436 160 l 1056 160 l 1056 0 l 83 0 z "},"3":{"ha":1139,"x_min":76,"x_max":1056,"o":"m 76 0 l 76 160 l 757 160 q 848 185 821 160 q 875 264 875 211 l 875 307 q 848 385 875 360 q 757 411 821 411 l 318 411 l 318 557 l 706 806 l 706 813 l 133 813 l 76 869 l 76 972 l 1010 972 l 1010 828 l 611 571 l 611 564 l 792 564 q 989 504 922 564 q 1056 342 1056 444 l 1056 222 q 989 60 1056 119 q 792 0 922 0 l 76 0 z "},"4":{"ha":1222,"x_min":49,"x_max":1194,"o":"m 993 0 l 813 0 l 813 208 l 49 208 l 49 361 l 533 972 l 686 972 l 686 889 l 274 375 l 274 368 l 813 368 l 813 618 l 993 618 l 993 368 l 1194 368 l 1194 208 l 993 208 l 993 0 z "},"5":{"ha":1167,"x_min":97,"x_max":1076,"o":"m 97 0 l 97 160 l 778 160 q 869 185 842 160 q 896 264 896 211 l 896 340 q 869 419 896 393 q 778 444 842 444 l 111 444 l 111 972 l 1042 972 l 1042 869 l 985 813 l 292 813 l 292 604 l 813 604 q 1010 544 943 604 q 1076 382 1076 485 l 1076 222 q 1010 60 1076 119 q 813 0 943 0 l 97 0 z "},"6":{"ha":1208,"x_min":83,"x_max":1125,"o":"m 347 -14 q 150 46 217 -14 q 83 208 83 106 l 83 383 q 119 501 83 449 q 242 618 154 554 l 728 972 l 874 972 l 874 878 l 478 597 l 478 590 l 581 590 l 861 590 q 1058 531 992 590 q 1125 368 1125 471 l 1125 208 q 1058 46 1125 106 q 861 -14 992 -14 l 347 -14 m 826 146 q 917 172 890 146 q 944 250 944 197 l 944 326 q 917 405 944 379 q 826 431 890 431 l 382 431 q 291 405 318 431 q 264 326 264 379 l 264 250 q 291 172 264 197 q 382 146 318 146 l 826 146 z "},"7":{"ha":1063,"x_min":42,"x_max":1014,"o":"m 476 0 l 317 0 l 317 97 l 794 799 l 794 806 l 42 806 l 42 972 l 1014 972 l 1014 813 l 476 0 z "},"8":{"ha":1243,"x_min":90,"x_max":1153,"o":"m 354 -14 q 157 46 224 -14 q 90 208 90 106 l 90 306 q 133 444 90 394 q 236 503 176 494 l 236 511 q 153 567 186 522 q 121 686 121 611 l 121 764 q 188 926 121 867 q 385 986 254 986 l 858 986 q 1056 926 989 986 q 1122 764 1122 867 l 1122 686 q 1090 567 1122 611 q 1007 511 1057 522 l 1007 503 q 1110 444 1067 494 q 1153 306 1153 394 l 1153 208 q 1086 46 1153 106 q 889 -14 1019 -14 l 354 -14 m 824 576 q 915 602 888 576 q 942 681 942 628 l 942 722 q 915 801 942 775 q 824 826 888 826 l 419 826 q 328 801 356 826 q 301 722 301 775 l 301 681 q 328 602 301 628 q 419 576 356 576 l 824 576 m 854 146 q 945 172 918 146 q 972 250 972 197 l 972 319 q 945 398 972 372 q 854 424 918 424 l 389 424 q 298 398 325 424 q 271 319 271 372 l 271 250 q 298 172 271 197 q 389 146 325 146 l 854 146 z "},"9":{"ha":1208,"x_min":83,"x_max":1125,"o":"m 335 0 l 335 94 l 731 375 l 731 382 l 628 382 l 347 382 q 150 442 217 382 q 83 604 83 501 l 83 764 q 150 926 83 867 q 347 986 217 986 l 861 986 q 1058 926 992 986 q 1125 764 1125 867 l 1125 589 q 1090 471 1125 524 q 967 354 1054 418 l 481 0 l 335 0 m 826 542 q 917 567 890 542 q 944 646 944 593 l 944 722 q 917 801 944 775 q 826 826 890 826 l 382 826 q 291 801 318 826 q 264 722 264 775 l 264 646 q 291 567 264 593 q 382 542 318 542 l 826 542 z "},"\r":{"ha":833,"x_min":0,"x_max":0,"o":""}," ":{"ha":403,"x_min":0,"x_max":0,"o":""}," ":{"ha":403,"x_min":0,"x_max":0,"o":""},"·":{"ha":403,"x_min":111,"x_max":292,"o":"m 292 264 l 111 264 l 111 444 l 292 444 l 292 264 z "},".":{"ha":347,"x_min":83,"x_max":264,"o":"m 264 0 l 83 0 l 83 181 l 264 181 l 264 0 z "},"…":{"ha":1292,"x_min":83,"x_max":1208,"o":"m 264 0 l 83 0 l 83 181 l 264 181 l 264 0 m 736 0 l 556 0 l 556 181 l 736 181 l 736 0 m 1208 0 l 1028 0 l 1028 181 l 1208 181 l 1208 0 z "},",":{"ha":347,"x_min":83,"x_max":264,"o":"m 181 -160 l 83 -160 l 83 181 l 264 181 l 264 35 l 181 -160 z "},":":{"ha":347,"x_min":83,"x_max":264,"o":"m 264 521 l 83 521 l 83 701 l 264 701 l 264 521 m 264 0 l 83 0 l 83 181 l 264 181 l 264 0 z "},";":{"ha":349,"x_min":83,"x_max":265,"o":"m 265 521 l 85 521 l 85 701 l 265 701 l 265 521 m 181 -160 l 83 -160 l 83 181 l 264 181 l 264 35 l 181 -160 z "},"!":{"ha":444,"x_min":118,"x_max":326,"o":"m 281 306 l 164 306 l 118 653 l 118 972 l 326 972 l 326 653 l 281 306 m 313 0 l 132 0 l 132 181 l 313 181 l 313 0 z "},"¡":{"ha":444,"x_min":118,"x_max":326,"o":"m 313 521 l 132 521 l 132 701 l 313 701 l 313 521 m 326 -236 l 118 -236 l 118 64 l 164 403 l 281 403 l 326 64 l 326 -236 z "},"?":{"ha":1014,"x_min":49,"x_max":931,"o":"m 371 357 q 404 464 371 424 q 484 525 438 504 q 604 567 531 546 q 715 608 679 588 q 750 665 750 628 l 750 708 q 723 787 750 761 q 632 813 696 813 l 104 813 l 49 868 l 49 972 l 667 972 q 864 913 797 972 q 931 750 931 853 l 931 633 q 896 528 931 568 q 813 467 861 488 q 689 425 765 446 q 585 389 618 406 q 551 342 551 372 l 551 306 l 371 306 l 371 357 m 551 0 l 371 0 l 371 181 l 551 181 l 551 0 z "},"¿":{"ha":1014,"x_min":83,"x_max":965,"o":"m 643 521 l 463 521 l 463 701 l 643 701 l 643 521 m 347 -236 q 150 -176 217 -236 q 83 -14 83 -117 l 83 103 q 119 208 83 169 q 203 263 154 246 q 329 297 251 281 q 429 324 396 310 q 463 367 463 339 l 463 403 l 643 403 l 643 351 q 608 244 643 283 q 526 187 574 204 q 404 151 479 169 q 297 119 331 135 q 264 71 264 104 l 264 28 q 291 -51 264 -25 q 382 -76 318 -76 l 910 -76 l 965 -132 l 965 -236 l 347 -236 z "},"*":{"ha":667,"x_min":63,"x_max":604,"o":"m 581 846 l 604 708 l 564 701 l 458 689 l 529 614 l 557 582 l 450 493 l 424 524 l 333 646 l 243 524 l 217 493 l 110 582 l 138 614 l 208 689 l 103 701 l 63 708 l 86 846 l 128 838 l 271 804 l 264 931 l 264 972 l 403 972 l 403 931 l 396 804 l 539 838 l 581 846 z "},"'":{"ha":326,"x_min":83,"x_max":243,"o":"m 208 632 l 118 632 l 83 806 l 83 972 l 243 972 l 243 806 l 208 632 z "},"\"":{"ha":625,"x_min":83,"x_max":542,"o":"m 208 632 l 118 632 l 83 806 l 83 972 l 243 972 l 243 806 l 208 632 m 507 632 l 417 632 l 382 806 l 382 972 l 542 972 l 542 806 l 507 632 z "},"‚":{"ha":347,"x_min":83,"x_max":264,"o":"m 181 -160 l 83 -160 l 83 181 l 264 181 l 264 35 l 181 -160 z "},"„":{"ha":660,"x_min":83,"x_max":576,"o":"m 181 -160 l 83 -160 l 83 181 l 264 181 l 264 35 l 181 -160 m 493 -160 l 396 -160 l 396 181 l 576 181 l 576 35 l 493 -160 z "},"‘":{"ha":347,"x_min":83,"x_max":264,"o":"m 264 674 l 83 674 l 83 819 l 167 1014 l 264 1014 l 264 674 z "},"’":{"ha":347,"x_min":83,"x_max":264,"o":"m 181 632 l 83 632 l 83 972 l 264 972 l 264 826 l 181 632 z "},"“":{"ha":660,"x_min":83,"x_max":576,"o":"m 264 674 l 83 674 l 83 819 l 167 1014 l 264 1014 l 264 674 m 576 674 l 396 674 l 396 819 l 479 1014 l 576 1014 l 576 674 z "},"”":{"ha":660,"x_min":83,"x_max":576,"o":"m 181 632 l 83 632 l 83 972 l 264 972 l 264 826 l 181 632 m 493 632 l 396 632 l 396 972 l 576 972 l 576 826 l 493 632 z "},"‹":{"ha":618,"x_min":69,"x_max":528,"o":"m 528 56 l 396 56 l 69 361 l 396 667 l 528 667 l 528 576 l 279 361 l 528 146 l 528 56 z "},"›":{"ha":618,"x_min":90,"x_max":549,"o":"m 222 56 l 90 56 l 90 146 l 339 361 l 90 576 l 90 667 l 222 667 l 549 361 l 222 56 z "},"«":{"ha":903,"x_min":69,"x_max":819,"o":"m 449 125 l 310 125 l 69 375 l 310 625 l 449 625 l 449 549 l 263 375 l 449 201 l 449 125 m 819 125 l 681 125 l 440 375 l 681 625 l 819 625 l 819 549 l 633 375 l 819 201 l 819 125 z "},"»":{"ha":903,"x_min":83,"x_max":833,"o":"m 222 125 l 83 125 l 83 201 l 269 375 l 83 549 l 83 625 l 222 625 l 463 375 l 222 125 m 593 125 l 454 125 l 454 201 l 640 375 l 454 549 l 454 625 l 593 625 l 833 375 l 593 125 z "},"•":{"ha":611,"x_min":174,"x_max":438,"o":"m 243 243 q 193 263 213 243 q 174 313 174 282 l 174 403 q 193 453 174 435 q 243 472 213 472 l 368 472 q 419 453 400 472 q 438 403 438 435 l 438 313 q 419 263 438 282 q 368 243 400 243 l 243 243 z "},"-":{"ha":778,"x_min":69,"x_max":708,"o":"m 708 361 l 69 361 l 69 514 l 708 514 l 708 361 z "},"­":{"ha":0,"x_min":0,"x_max":0,"o":""},"–":{"ha":1104,"x_min":69,"x_max":1035,"o":"m 1035 361 l 69 361 l 69 514 l 1035 514 l 1035 361 z "},"—":{"ha":1611,"x_min":69,"x_max":1542,"o":"m 1542 361 l 69 361 l 69 514 l 1542 514 l 1542 361 z "},"_":{"ha":854,"x_min":-28,"x_max":882,"o":"m 882 -236 l -28 -236 l -28 -90 l 882 -90 l 882 -236 z "},"(":{"ha":611,"x_min":118,"x_max":576,"o":"m 382 -264 q 185 -204 251 -264 q 118 -42 118 -144 l 118 861 q 185 1024 118 964 q 382 1083 251 1083 l 576 1083 l 576 924 l 417 924 q 326 898 353 924 q 299 819 299 872 l 299 0 q 326 -78 299 -53 q 417 -104 353 -104 l 576 -104 l 576 -264 l 382 -264 z "},")":{"ha":611,"x_min":35,"x_max":493,"o":"m 35 -264 l 35 -104 l 194 -104 q 285 -78 258 -104 q 313 0 313 -53 l 313 819 q 285 898 313 872 q 194 924 258 924 l 35 924 l 35 1083 l 229 1083 q 426 1024 360 1083 q 493 861 493 964 l 493 -42 q 426 -204 493 -144 q 229 -264 360 -264 l 35 -264 z "},"[":{"ha":646,"x_min":132,"x_max":583,"o":"m 583 -264 l 132 -264 l 132 1083 l 583 1083 l 583 924 l 313 924 l 313 -104 l 583 -104 l 583 -264 z "},"]":{"ha":646,"x_min":63,"x_max":514,"o":"m 514 -264 l 63 -264 l 63 -104 l 333 -104 l 333 924 l 63 924 l 63 1083 l 514 1083 l 514 -264 z "},"{":{"ha":729,"x_min":56,"x_max":667,"o":"m 493 -264 q 296 -204 363 -264 q 229 -42 229 -144 l 229 235 q 190 308 229 288 q 56 329 151 329 l 56 490 q 190 511 151 490 q 229 585 229 532 l 229 861 q 296 1024 229 964 q 493 1083 363 1083 l 667 1083 l 667 924 l 528 924 q 437 898 464 924 q 410 819 410 872 l 410 576 q 369 462 410 503 q 275 417 328 421 l 275 403 q 369 358 328 399 q 410 243 410 317 l 410 0 q 437 -78 410 -53 q 528 -104 464 -104 l 667 -104 l 667 -264 l 493 -264 z "},"}":{"ha":729,"x_min":63,"x_max":674,"o":"m 63 -264 l 63 -104 l 201 -104 q 292 -78 265 -104 q 319 0 319 -53 l 319 243 q 360 358 319 317 q 454 403 401 399 l 454 417 q 360 462 401 421 q 319 576 319 503 l 319 819 q 292 898 319 872 q 201 924 265 924 l 63 924 l 63 1083 l 236 1083 q 433 1024 367 1083 q 500 861 500 964 l 500 585 q 539 511 500 532 q 674 490 578 490 l 674 329 q 539 308 578 329 q 500 235 500 288 l 500 -42 q 433 -204 500 -144 q 236 -264 367 -264 l 63 -264 z "},"|":{"ha":521,"x_min":174,"x_max":347,"o":"m 347 -236 l 174 -236 l 174 1111 l 347 1111 l 347 -236 z "},"¦":{"ha":521,"x_min":174,"x_max":347,"o":"m 347 563 l 174 563 l 174 1111 l 347 1111 l 347 563 m 347 -236 l 174 -236 l 174 313 l 347 313 l 347 -236 z "},"†":{"ha":1083,"x_min":76,"x_max":1007,"o":"m 632 -236 l 451 -236 l 451 529 l 76 529 l 76 703 l 453 703 l 483 1000 l 600 1000 l 631 703 l 1007 703 l 1007 529 l 632 529 l 632 -236 z "},"‡":{"ha":1083,"x_min":76,"x_max":1007,"o":"m 601 -264 l 482 -264 l 451 -14 l 76 -14 l 76 160 l 451 160 l 451 576 l 76 576 l 76 750 l 451 750 l 482 1000 l 601 1000 l 632 750 l 1007 750 l 1007 576 l 632 576 l 632 160 l 1007 160 l 1007 -14 l 632 -14 l 601 -264 z "},"/":{"ha":903,"x_min":14,"x_max":889,"o":"m 174 -69 l 14 -69 l 14 28 l 729 1042 l 889 1042 l 889 944 l 174 -69 z "},"\\":{"ha":903,"x_min":14,"x_max":889,"o":"m 889 -69 l 729 -69 l 14 944 l 14 1042 l 174 1042 l 889 28 l 889 -69 z "},"#":{"ha":1222,"x_min":56,"x_max":1167,"o":"m 1167 771 l 1167 611 l 968 611 l 914 361 l 1090 361 l 1090 201 l 878 201 l 833 0 l 674 0 l 718 201 l 378 201 l 333 0 l 174 0 l 218 201 l 56 201 l 56 361 l 254 361 l 308 611 l 132 611 l 132 771 l 344 771 l 389 972 l 549 972 l 504 771 l 844 771 l 889 972 l 1049 972 l 1004 771 l 1167 771 m 414 361 l 754 361 l 808 611 l 468 611 l 414 361 z "},"№":{"ha":2146,"x_min":132,"x_max":2056,"o":"m 313 0 l 132 0 l 132 972 l 319 972 l 1119 235 l 1128 235 l 1111 424 l 1111 972 l 1292 972 l 1292 0 l 1104 0 l 304 738 l 296 738 l 313 549 l 313 0 m 1646 389 q 1508 431 1558 389 q 1458 542 1458 472 l 1458 667 q 1508 778 1458 736 q 1646 819 1558 819 l 1868 819 q 2006 778 1956 819 q 2056 667 2056 736 l 2056 542 q 2006 431 2056 472 q 1868 389 1956 389 l 1646 389 m 1842 507 q 1899 518 1881 507 q 1917 556 1917 529 l 1917 653 q 1899 690 1917 679 q 1842 701 1881 701 l 1672 701 q 1615 690 1633 701 q 1597 653 1597 679 l 1597 556 q 1615 518 1597 529 q 1672 507 1633 507 l 1842 507 m 2056 188 l 1458 188 l 1458 306 l 2056 306 l 2056 188 z "},"&":{"ha":1257,"x_min":69,"x_max":1264,"o":"m 333 -14 q 136 46 203 -14 q 69 208 69 106 l 69 285 q 131 442 69 383 q 307 507 192 501 l 307 514 q 224 590 253 547 q 194 693 194 633 l 194 750 q 261 913 194 853 q 458 972 328 972 l 1047 972 l 1047 869 l 990 813 l 493 813 q 375 722 375 813 l 375 707 q 388 658 375 679 q 431 616 401 638 q 522 556 460 594 l 1264 94 l 1264 0 l 1089 0 l 922 104 l 913 104 q 822 19 876 51 q 664 -14 767 -14 l 333 -14 m 624 146 q 719 164 693 146 q 753 213 746 182 l 499 369 l 368 369 q 277 344 304 369 q 250 265 250 318 l 250 250 q 277 172 250 197 q 368 146 304 146 l 624 146 z "},"§":{"ha":1035,"x_min":111,"x_max":931,"o":"m 111 -236 l 111 -83 l 667 -83 q 740 -70 717 -83 q 763 -28 763 -57 l 763 22 q 665 82 763 68 l 308 133 q 160 192 210 147 q 111 304 111 236 l 111 381 q 143 482 111 442 q 215 535 175 522 l 215 547 q 143 600 174 564 q 113 692 113 636 l 113 792 q 178 922 113 871 q 349 972 243 972 l 896 972 l 896 868 l 847 819 l 375 819 q 302 806 325 819 q 279 764 279 793 l 279 714 q 376 654 279 668 l 733 603 q 881 544 832 589 q 931 432 931 500 l 931 356 q 898 255 931 296 q 826 201 865 214 l 826 189 q 899 137 869 172 q 929 44 929 101 l 929 -56 q 864 -185 929 -135 q 693 -236 799 -236 l 111 -236 m 667 225 q 733 265 703 236 q 764 335 764 294 l 764 393 q 742 444 764 428 q 671 468 721 461 l 375 511 q 308 471 339 500 q 278 401 278 442 l 278 343 q 299 292 278 308 q 371 268 321 275 l 667 225 z "},"¶":{"ha":1208,"x_min":69,"x_max":1174,"o":"m 424 -236 l 424 476 l 313 476 q 138 529 207 476 q 69 664 69 582 l 69 785 q 138 920 69 868 q 313 972 207 972 l 1174 972 l 1174 819 l 958 819 l 958 -236 l 792 -236 l 792 819 l 590 819 l 590 -236 l 424 -236 z "},"©":{"ha":1764,"x_min":125,"x_max":1639,"o":"m 361 -42 q 180 16 235 -42 q 125 190 125 74 l 125 782 q 180 956 125 899 q 361 1014 235 1014 l 1403 1014 q 1584 956 1529 1014 q 1639 782 1639 899 l 1639 190 q 1584 16 1639 74 q 1403 -42 1529 -42 l 361 -42 m 1375 97 q 1461 119 1436 97 q 1486 190 1486 142 l 1486 782 q 1461 853 1486 831 q 1375 875 1436 875 l 389 875 q 303 853 328 875 q 278 782 278 831 l 278 190 q 303 119 278 142 q 389 97 328 97 l 1375 97 m 744 236 q 604 277 653 236 q 556 388 556 318 l 556 585 q 604 695 556 654 q 744 736 653 736 l 1181 736 l 1181 657 l 1128 604 l 804 604 q 729 589 750 604 q 708 544 708 574 l 708 428 q 729 383 708 399 q 804 368 750 368 l 1181 368 l 1181 236 l 744 236 z "},"®":{"ha":1764,"x_min":125,"x_max":1639,"o":"m 361 -42 q 180 16 235 -42 q 125 190 125 74 l 125 782 q 180 956 125 899 q 361 1014 235 1014 l 1403 1014 q 1584 956 1529 1014 q 1639 782 1639 899 l 1639 190 q 1584 16 1639 74 q 1403 -42 1529 -42 l 361 -42 m 1375 97 q 1461 119 1436 97 q 1486 190 1486 142 l 1486 782 q 1461 853 1486 831 q 1375 875 1436 875 l 389 875 q 303 853 328 875 q 278 782 278 831 l 278 190 q 303 119 278 142 q 389 97 328 97 l 1375 97 m 576 236 l 576 736 l 1033 736 q 1172 698 1121 736 q 1222 597 1222 660 l 1222 542 q 1183 450 1222 488 q 1079 406 1144 413 l 1219 315 l 1219 236 l 1085 236 l 890 403 l 729 403 l 729 236 l 576 236 m 996 521 q 1053 529 1036 521 q 1069 557 1069 538 l 1069 575 q 1053 603 1069 594 q 996 611 1036 611 l 729 611 l 729 521 l 996 521 z "},"™":{"ha":1535,"x_min":21,"x_max":1465,"o":"m 388 486 l 249 486 l 249 854 l 21 854 l 21 972 l 615 972 l 615 897 l 571 854 l 388 854 l 388 486 m 783 486 l 651 486 l 651 563 l 732 972 l 869 972 l 1054 708 l 1063 708 l 1247 972 l 1385 972 l 1465 563 l 1465 486 l 1333 486 l 1282 785 l 1272 785 l 1111 556 l 1006 556 l 844 785 l 835 785 l 783 486 z "},"@":{"ha":1694,"x_min":111,"x_max":1583,"o":"m 375 -167 q 178 -107 244 -167 q 111 56 111 -47 l 111 667 q 178 829 111 769 q 375 889 244 889 l 1319 889 q 1517 829 1450 889 q 1583 667 1583 769 l 1583 146 l 1465 146 l 1438 222 l 1429 222 q 1215 132 1357 132 l 956 132 q 832 159 885 132 q 751 232 779 186 q 722 333 722 278 l 722 368 q 751 469 722 424 q 832 542 779 515 q 956 569 885 569 l 1417 569 l 1417 639 q 1390 717 1417 692 q 1299 743 1363 743 l 396 743 q 305 717 332 743 q 278 639 278 692 l 278 83 q 305 5 278 31 q 396 -21 332 -21 l 1567 -21 l 1567 -167 l 375 -167 m 1242 285 q 1372 317 1326 285 q 1417 413 1417 350 l 1417 431 l 979 431 q 913 415 936 431 q 889 368 889 399 l 889 347 q 913 301 889 317 q 979 285 936 285 l 1242 285 z "},"A":{"ha":1333,"x_min":35,"x_max":1299,"o":"m 551 972 l 782 972 l 1299 97 l 1299 0 l 1139 0 l 1021 204 l 313 204 l 194 0 l 35 0 l 35 97 l 551 972 m 661 810 l 404 364 l 929 364 l 672 810 l 661 810 z "},"B":{"ha":1333,"x_min":132,"x_max":1243,"o":"m 132 0 l 132 972 l 951 972 q 1149 913 1082 972 q 1215 750 1215 853 l 1215 694 q 1196 601 1215 640 q 1148 540 1176 561 q 1092 514 1119 518 l 1092 507 q 1160 478 1125 501 q 1219 413 1196 456 q 1243 313 1243 371 l 1243 222 q 1176 60 1243 119 q 979 0 1110 0 l 132 0 m 917 579 q 1008 605 981 579 q 1035 682 1035 631 l 1035 710 q 1008 787 1035 761 q 917 813 981 813 l 313 813 l 313 579 l 917 579 m 944 160 q 1035 185 1008 160 q 1063 264 1063 211 l 1063 315 q 1035 394 1063 368 q 944 419 1008 419 l 313 419 l 313 160 l 944 160 z "},"C":{"ha":1236,"x_min":111,"x_max":1167,"o":"m 375 0 q 178 60 244 0 q 111 222 111 119 l 111 750 q 178 913 111 853 q 375 972 244 972 l 1167 972 l 1167 869 l 1110 813 l 410 813 q 319 787 346 813 q 292 708 292 761 l 292 264 q 319 185 292 211 q 410 160 346 160 l 1167 160 l 1167 0 l 375 0 z "},"D":{"ha":1375,"x_min":132,"x_max":1264,"o":"m 132 0 l 132 972 l 1000 972 q 1197 913 1131 972 q 1264 750 1264 853 l 1264 222 q 1197 60 1264 119 q 1000 0 1131 0 l 132 0 m 965 160 q 1056 185 1029 160 q 1083 264 1083 211 l 1083 708 q 1056 787 1083 761 q 965 813 1029 813 l 313 813 l 313 160 l 965 160 z "},"E":{"ha":1201,"x_min":132,"x_max":1132,"o":"m 1132 0 l 132 0 l 132 972 l 1132 972 l 1132 869 l 1075 813 l 313 813 l 313 572 l 946 572 l 946 413 l 313 413 l 313 160 l 1132 160 l 1132 0 z "},"F":{"ha":1160,"x_min":132,"x_max":1125,"o":"m 313 0 l 132 0 l 132 972 l 1125 972 l 1125 869 l 1068 813 l 313 813 l 313 528 l 924 528 l 924 368 l 313 368 l 313 0 z "},"G":{"ha":1354,"x_min":111,"x_max":1243,"o":"m 375 0 q 178 60 244 0 q 111 222 111 119 l 111 750 q 178 913 111 853 q 375 972 244 972 l 1167 972 l 1167 869 l 1110 813 l 410 813 q 319 787 346 813 q 292 708 292 761 l 292 264 q 319 185 292 211 q 410 160 346 160 l 1063 160 l 1063 536 l 1243 536 l 1243 0 l 375 0 z "},"H":{"ha":1403,"x_min":132,"x_max":1271,"o":"m 313 0 l 132 0 l 132 972 l 313 972 l 313 581 l 1090 581 l 1090 972 l 1271 972 l 1271 0 l 1090 0 l 1090 414 l 313 414 l 313 0 z "},"I":{"ha":444,"x_min":132,"x_max":313,"o":"m 313 0 l 132 0 l 132 972 l 313 972 l 313 0 z "},"J":{"ha":972,"x_min":42,"x_max":847,"o":"m 42 -14 l 42 146 l 549 146 q 640 172 613 146 q 667 250 667 197 l 667 972 l 847 972 l 847 208 q 781 46 847 106 q 583 -14 714 -14 l 42 -14 z "},"K":{"ha":1326,"x_min":132,"x_max":1271,"o":"m 313 0 l 132 0 l 132 972 l 313 972 l 313 576 l 675 576 l 1097 972 l 1257 972 l 1257 875 l 842 500 l 1271 97 l 1271 0 l 1110 0 l 674 410 l 313 410 l 313 0 z "},"L":{"ha":1153,"x_min":132,"x_max":1125,"o":"m 1125 0 l 132 0 l 132 972 l 313 972 l 313 167 l 1125 167 l 1125 0 z "},"M":{"ha":1714,"x_min":76,"x_max":1638,"o":"m 257 0 l 76 0 l 76 97 l 231 972 l 425 972 l 853 340 l 861 340 l 1289 972 l 1483 972 l 1638 97 l 1638 0 l 1457 0 l 1342 725 l 1333 725 l 936 139 l 778 139 l 381 725 l 372 725 l 257 0 z "},"N":{"ha":1424,"x_min":132,"x_max":1292,"o":"m 313 0 l 132 0 l 132 972 l 319 972 l 1119 235 l 1128 235 l 1111 424 l 1111 972 l 1292 972 l 1292 0 l 1104 0 l 304 738 l 296 738 l 313 549 l 313 0 z "},"O":{"ha":1389,"x_min":111,"x_max":1278,"o":"m 375 -14 q 178 46 244 -14 q 111 208 111 106 l 111 764 q 178 926 111 867 q 375 986 244 986 l 1014 986 q 1211 926 1144 986 q 1278 764 1278 867 l 1278 208 q 1211 46 1278 106 q 1014 -14 1144 -14 l 375 -14 m 979 146 q 1070 172 1043 146 q 1097 250 1097 197 l 1097 722 q 1070 801 1097 775 q 979 826 1043 826 l 410 826 q 319 801 346 826 q 292 722 292 775 l 292 250 q 319 172 292 197 q 410 146 346 146 l 979 146 z "},"P":{"ha":1333,"x_min":132,"x_max":1236,"o":"m 132 0 l 132 972 l 972 972 q 1169 913 1103 972 q 1236 750 1236 853 l 1236 528 q 1169 365 1236 425 q 972 306 1103 306 l 313 306 l 313 0 l 132 0 m 938 465 q 1028 491 1001 465 q 1056 569 1056 517 l 1056 708 q 1028 787 1056 761 q 938 813 1001 813 l 313 813 l 313 465 l 938 465 z "},"Q":{"ha":1389,"x_min":111,"x_max":1278,"o":"m 1014 986 q 1211 926 1144 986 q 1278 764 1278 867 l 1278 208 q 1211 46 1278 106 q 1014 -14 1144 -14 l 801 -14 l 921 -132 l 921 -222 l 735 -222 l 604 -14 l 375 -14 q 178 46 244 -14 q 111 208 111 106 l 111 764 q 178 926 111 867 q 375 986 244 986 l 1014 986 m 1097 722 q 1070 801 1097 775 q 979 826 1043 826 l 410 826 q 319 801 346 826 q 292 722 292 775 l 292 250 q 319 172 292 197 q 410 146 346 146 l 979 146 q 1070 172 1043 146 q 1097 250 1097 197 l 1097 722 z "},"R":{"ha":1361,"x_min":132,"x_max":1264,"o":"m 1264 97 l 1264 0 l 1099 0 l 750 361 l 311 361 l 311 0 l 132 0 l 132 972 l 971 972 q 1168 913 1101 972 q 1235 750 1235 853 l 1235 583 q 1174 426 1235 485 q 992 361 1113 367 l 1264 97 m 311 521 l 936 521 q 1027 547 1000 521 q 1054 625 1054 572 l 1054 708 q 1027 787 1054 761 q 936 813 1000 813 l 311 813 l 311 521 z "},"S":{"ha":1271,"x_min":90,"x_max":1194,"o":"m 92 0 l 92 160 l 896 160 q 987 185 960 160 q 1014 264 1014 211 l 1014 279 q 871 383 1014 367 l 353 443 q 158 510 225 458 q 90 653 90 563 l 90 750 q 157 913 90 853 q 354 972 224 972 l 1156 972 l 1156 869 l 1099 813 l 389 813 q 298 788 325 813 q 271 713 271 763 l 271 697 q 306 631 271 654 q 414 600 342 608 l 935 540 q 1128 470 1061 526 q 1194 324 1194 414 l 1194 222 q 1128 60 1194 119 q 931 0 1061 0 l 92 0 z "},"T":{"ha":1208,"x_min":35,"x_max":1174,"o":"m 694 0 l 514 0 l 514 813 l 35 813 l 35 972 l 1174 972 l 1174 869 l 1117 813 l 694 813 l 694 0 z "},"U":{"ha":1403,"x_min":125,"x_max":1278,"o":"m 389 -14 q 192 46 258 -14 q 125 208 125 106 l 125 972 l 306 972 l 306 250 q 333 172 306 197 q 424 146 360 146 l 979 146 q 1070 172 1043 146 q 1097 250 1097 197 l 1097 972 l 1278 972 l 1278 208 q 1211 46 1278 106 q 1014 -14 1144 -14 l 389 -14 z "},"V":{"ha":1340,"x_min":49,"x_max":1292,"o":"m 785 0 l 556 0 l 49 875 l 49 972 l 215 972 l 664 181 l 676 181 l 1125 972 l 1292 972 l 1292 875 l 785 0 z "},"W":{"ha":1854,"x_min":49,"x_max":1806,"o":"m 593 0 l 389 0 l 49 875 l 49 972 l 229 972 l 490 222 l 501 222 l 822 972 l 1032 972 l 1353 222 l 1364 222 l 1625 972 l 1806 972 l 1806 875 l 1465 0 l 1261 0 l 933 764 l 921 764 l 593 0 z "},"X":{"ha":1292,"x_min":56,"x_max":1236,"o":"m 222 0 l 56 0 l 56 97 l 511 488 l 90 875 l 90 972 l 257 972 l 639 604 l 653 604 l 1035 972 l 1201 972 l 1201 875 l 781 497 l 1236 97 l 1236 0 l 1069 0 l 653 376 l 639 376 l 222 0 z "},"Y":{"ha":1264,"x_min":42,"x_max":1222,"o":"m 722 0 l 542 0 l 542 317 l 42 875 l 42 972 l 201 972 l 625 490 l 639 490 l 1063 972 l 1222 972 l 1222 875 l 722 317 l 722 0 z "},"Z":{"ha":1222,"x_min":63,"x_max":1160,"o":"m 1160 0 l 63 0 l 63 153 l 876 806 l 876 813 l 140 813 l 83 869 l 83 972 l 1160 972 l 1160 819 l 346 167 l 346 160 l 1160 160 l 1160 0 z "},"a":{"ha":1014,"x_min":76,"x_max":917,"o":"m 310 -14 q 186 13 239 -14 q 105 86 133 40 q 76 188 76 132 l 76 222 q 105 324 76 278 q 186 397 133 369 q 310 424 239 424 l 750 424 l 750 456 q 639 549 750 549 l 160 549 l 160 701 l 683 701 q 807 674 754 701 q 888 601 860 647 q 917 500 917 556 l 917 0 l 799 0 l 771 76 l 763 76 q 549 -14 690 -14 l 310 -14 m 575 139 q 705 172 660 139 q 750 267 750 204 l 750 285 l 333 285 q 267 269 290 285 q 243 222 243 253 l 243 201 q 267 155 243 171 q 333 139 290 139 l 575 139 z "},"b":{"ha":1076,"x_min":111,"x_max":986,"o":"m 111 0 l 111 951 l 278 951 l 278 632 l 286 632 q 479 715 351 715 l 753 715 q 876 688 824 715 q 958 615 929 661 q 986 514 986 569 l 986 201 q 958 100 986 146 q 876 27 929 54 q 753 0 824 0 l 111 0 m 708 153 q 819 246 819 153 l 819 469 q 708 563 819 563 l 453 563 q 323 530 368 563 q 278 435 278 497 l 278 153 l 708 153 z "},"c":{"ha":924,"x_min":90,"x_max":854,"o":"m 324 0 q 200 27 253 0 q 119 100 147 54 q 90 201 90 146 l 90 500 q 119 601 90 556 q 200 674 147 647 q 324 701 253 701 l 854 701 l 854 604 l 799 549 l 368 549 q 257 456 257 549 l 257 246 q 368 153 257 153 l 854 153 l 854 0 l 324 0 z "},"d":{"ha":1076,"x_min":90,"x_max":965,"o":"m 324 -14 q 200 13 253 -14 q 119 86 147 40 q 90 188 90 132 l 90 500 q 119 601 90 556 q 200 674 147 647 q 324 701 253 701 l 799 701 l 799 951 l 965 951 l 965 0 l 847 0 l 819 76 l 811 76 q 597 -14 739 -14 l 324 -14 m 624 139 q 753 172 708 139 q 799 267 799 204 l 799 549 l 368 549 q 257 456 257 549 l 257 232 q 368 139 257 139 l 624 139 z "},"e":{"ha":1056,"x_min":90,"x_max":965,"o":"m 324 0 q 200 27 253 0 q 119 100 147 54 q 90 201 90 146 l 90 514 q 119 615 90 569 q 200 688 147 661 q 324 715 253 715 l 732 715 q 856 688 803 715 q 937 615 908 661 q 965 514 965 569 l 965 278 l 257 278 l 257 246 q 368 153 257 153 l 931 153 l 931 0 l 324 0 m 257 424 l 799 424 l 799 469 q 688 563 799 563 l 368 563 q 257 469 257 563 l 257 424 z "},"f":{"ha":708,"x_min":111,"x_max":715,"o":"m 111 764 q 140 865 111 819 q 221 938 168 911 q 344 965 274 965 l 715 965 l 715 813 l 389 813 q 278 719 278 813 l 278 632 l 611 632 l 611 544 l 576 479 l 278 479 l 278 0 l 111 0 l 111 764 z "},"g":{"ha":1056,"x_min":56,"x_max":1000,"o":"m 289 -250 q 160 -224 213 -250 q 82 -155 108 -197 q 56 -62 56 -112 l 56 -7 q 98 94 56 51 q 206 142 140 136 l 206 149 q 164 173 182 151 q 146 222 146 194 q 164 272 146 250 q 206 296 182 293 l 206 303 q 135 357 161 319 q 110 443 110 394 l 110 528 q 136 620 110 578 q 215 689 163 663 q 343 715 267 715 l 650 715 l 756 833 l 908 833 l 908 743 l 800 694 l 800 688 q 903 630 863 675 q 944 529 944 585 l 944 451 q 918 359 944 401 q 840 290 892 317 q 711 264 788 264 l 369 264 q 306 222 306 264 q 369 181 306 181 l 767 181 q 895 154 843 181 q 974 85 947 128 q 1000 -7 1000 43 l 1000 -62 q 974 -155 1000 -112 q 895 -224 947 -197 q 767 -250 843 -250 l 289 -250 m 689 417 q 756 430 733 417 q 778 468 778 443 l 778 511 q 756 549 778 536 q 689 563 733 563 l 365 563 q 299 549 321 563 q 276 511 276 536 l 276 468 q 299 430 276 443 q 365 417 321 417 l 689 417 m 744 -97 q 811 -84 789 -97 q 833 -46 833 -71 l 833 -24 q 811 15 833 1 q 744 28 789 28 l 311 28 q 244 15 267 28 q 222 -24 222 1 l 222 -46 q 244 -84 222 -71 q 311 -97 267 -97 l 744 -97 z "},"h":{"ha":1083,"x_min":111,"x_max":986,"o":"m 111 0 l 111 951 l 278 951 l 278 632 l 286 632 q 479 715 351 715 l 753 715 q 876 688 824 715 q 958 615 929 661 q 986 514 986 569 l 986 0 l 819 0 l 819 469 q 708 563 819 563 l 453 563 q 323 530 368 563 q 278 435 278 497 l 278 0 l 111 0 z "},"i":{"ha":389,"x_min":110,"x_max":278,"o":"m 278 0 l 111 0 l 111 701 l 278 701 l 278 0 m 276 833 l 110 833 l 110 1007 l 276 1007 l 276 833 z "},"j":{"ha":389,"x_min":-104,"x_max":285,"o":"m -104 -236 l -104 -83 l 7 -83 q 118 10 118 -83 l 118 701 l 285 701 l 285 -35 q 256 -136 285 -90 q 175 -209 228 -182 q 51 -236 122 -236 l -104 -236 m 283 833 l 117 833 l 117 1007 l 283 1007 l 283 833 z "},"k":{"ha":1007,"x_min":111,"x_max":958,"o":"m 278 0 l 111 0 l 111 951 l 278 951 l 278 431 l 538 431 l 794 701 l 940 701 l 940 611 l 683 361 l 958 90 l 958 0 l 806 0 l 542 278 l 278 278 l 278 0 z "},"l":{"ha":389,"x_min":111,"x_max":278,"o":"m 278 0 l 111 0 l 111 951 l 278 951 l 278 0 z "},"m":{"ha":1646,"x_min":104,"x_max":1549,"o":"m 104 0 l 104 701 l 222 701 l 250 625 l 258 625 q 472 715 331 715 l 639 715 q 853 625 781 715 l 861 625 q 1075 715 933 715 l 1315 715 q 1439 688 1386 715 q 1520 615 1492 661 q 1549 514 1549 569 l 1549 0 l 1382 0 l 1382 469 q 1271 563 1382 563 l 1021 563 q 910 469 910 563 l 910 0 l 743 0 l 743 469 q 632 563 743 563 l 446 563 q 316 530 361 563 q 271 435 271 497 l 271 0 l 104 0 z "},"n":{"ha":1076,"x_min":104,"x_max":979,"o":"m 104 0 l 104 701 l 222 701 l 250 625 l 258 625 q 472 715 331 715 l 746 715 q 869 688 817 715 q 951 615 922 661 q 979 514 979 569 l 979 0 l 813 0 l 813 469 q 701 563 813 563 l 446 563 q 316 530 361 563 q 271 435 271 497 l 271 0 l 104 0 z "},"o":{"ha":1069,"x_min":90,"x_max":979,"o":"m 324 -14 q 200 13 253 -14 q 119 86 147 40 q 90 188 90 132 l 90 514 q 119 615 90 569 q 200 688 147 661 q 324 715 253 715 l 746 715 q 869 688 817 715 q 951 615 922 661 q 979 514 979 569 l 979 188 q 951 86 979 132 q 869 13 922 40 q 746 -14 817 -14 l 324 -14 m 701 139 q 813 232 813 139 l 813 469 q 701 563 813 563 l 368 563 q 257 469 257 563 l 257 232 q 368 139 257 139 l 701 139 z "},"p":{"ha":1069,"x_min":104,"x_max":979,"o":"m 104 -236 l 104 701 l 222 701 l 250 625 l 258 625 q 472 715 331 715 l 746 715 q 869 688 817 715 q 951 615 922 661 q 979 514 979 569 l 979 201 q 951 100 979 146 q 869 27 922 54 q 746 0 817 0 l 271 0 l 271 -236 l 104 -236 m 701 153 q 813 246 813 153 l 813 469 q 701 563 813 563 l 446 563 q 316 530 361 563 q 271 435 271 497 l 271 153 l 701 153 z "},"q":{"ha":1069,"x_min":90,"x_max":965,"o":"m 799 -236 l 799 83 l 790 83 q 597 0 725 0 l 324 0 q 200 27 253 0 q 119 100 147 54 q 90 201 90 146 l 90 500 q 119 601 90 556 q 200 674 147 647 q 324 701 253 701 l 965 701 l 965 -236 l 799 -236 m 624 153 q 753 185 708 153 q 799 281 799 218 l 799 549 l 368 549 q 257 456 257 549 l 257 246 q 368 153 257 153 l 624 153 z "},"r":{"ha":743,"x_min":104,"x_max":708,"o":"m 104 0 l 104 701 l 222 701 l 250 625 l 258 625 q 472 715 331 715 l 708 715 l 708 556 l 446 556 q 316 523 361 556 q 271 428 271 490 l 271 0 l 104 0 z "},"s":{"ha":951,"x_min":76,"x_max":889,"o":"m 76 0 l 76 153 l 640 153 q 704 163 686 153 q 722 193 722 172 l 722 207 q 702 235 722 226 q 624 254 682 244 l 288 308 q 130 369 183 325 q 76 483 76 414 l 76 518 q 103 608 76 565 q 182 676 129 650 q 310 701 235 701 l 853 701 l 853 600 l 801 549 l 325 549 q 261 539 279 549 q 243 508 243 529 l 243 494 q 263 466 243 475 q 342 447 283 457 l 678 393 q 835 332 782 376 q 889 218 889 288 l 889 183 q 863 94 889 136 q 783 26 836 51 q 656 0 731 0 l 76 0 z "},"t":{"ha":785,"x_min":42,"x_max":715,"o":"m 442 0 q 318 27 371 0 q 237 100 265 54 q 208 201 208 146 l 208 549 l 42 549 l 42 701 l 215 701 l 271 903 l 375 903 l 375 701 l 688 701 l 688 599 l 638 549 l 375 549 l 375 246 q 486 153 375 153 l 715 153 l 715 0 l 442 0 z "},"u":{"ha":1076,"x_min":97,"x_max":972,"o":"m 331 -14 q 207 13 260 -14 q 126 86 154 40 q 97 188 97 132 l 97 701 l 264 701 l 264 232 q 375 139 264 139 l 631 139 q 760 172 715 139 q 806 267 806 204 l 806 701 l 972 701 l 972 0 l 854 0 l 826 76 l 818 76 q 604 -14 746 -14 l 331 -14 z "},"v":{"ha":986,"x_min":42,"x_max":944,"o":"m 588 0 l 399 0 l 42 618 l 42 701 l 194 701 l 489 174 l 497 174 l 792 701 l 944 701 l 944 618 l 588 0 z "},"w":{"ha":1451,"x_min":49,"x_max":1403,"o":"m 489 0 l 306 0 l 49 618 l 49 701 l 201 701 l 401 188 l 411 188 l 642 701 l 810 701 l 1040 188 l 1050 188 l 1250 701 l 1403 701 l 1403 618 l 1146 0 l 963 0 l 731 514 l 721 514 l 489 0 z "},"x":{"ha":979,"x_min":49,"x_max":931,"o":"m 206 0 l 49 0 l 49 83 l 360 354 l 69 618 l 69 701 l 226 701 l 485 451 l 494 451 l 753 701 l 910 701 l 910 618 l 618 361 l 931 83 l 931 0 l 774 0 l 494 257 l 485 257 l 206 0 z "},"y":{"ha":986,"x_min":42,"x_max":944,"o":"m 793 701 l 944 701 l 944 611 l 583 -19 q 502 -139 542 -93 q 406 -210 463 -185 q 267 -236 350 -236 l 131 -236 l 131 -83 l 242 -83 q 335 -60 294 -83 q 408 14 375 -37 l 411 18 l 42 611 l 42 701 l 196 701 l 503 188 l 513 188 l 793 701 z "},"z":{"ha":931,"x_min":56,"x_max":868,"o":"m 868 0 l 56 0 l 56 136 l 581 542 l 581 549 l 125 549 l 68 604 l 68 701 l 868 701 l 868 567 l 342 160 l 342 153 l 868 153 l 868 0 z "},"Á":{"ha":1333,"x_min":35,"x_max":1299,"o":"m 551 972 l 782 972 l 1299 97 l 1299 0 l 1139 0 l 1021 204 l 313 204 l 194 0 l 35 0 l 35 97 l 551 972 m 661 810 l 404 364 l 929 364 l 672 810 l 661 810 m 724 1069 l 557 1069 l 668 1278 l 883 1278 l 724 1069 z "},"Ă":{"ha":1333,"x_min":35,"x_max":1299,"o":"m 551 972 l 782 972 l 1299 97 l 1299 0 l 1139 0 l 1021 204 l 313 204 l 194 0 l 35 0 l 35 97 l 551 972 m 661 810 l 404 364 l 929 364 l 672 810 l 661 810 m 525 1069 q 406 1103 449 1069 q 363 1194 363 1138 l 363 1278 l 522 1278 l 522 1242 q 536 1205 522 1215 q 583 1194 550 1194 l 753 1194 q 800 1205 786 1194 q 814 1242 814 1215 l 814 1278 l 974 1278 l 974 1194 q 931 1103 974 1138 q 811 1069 888 1069 l 525 1069 z "},"Â":{"ha":1333,"x_min":35,"x_max":1299,"o":"m 551 972 l 782 972 l 1299 97 l 1299 0 l 1139 0 l 1021 204 l 313 204 l 194 0 l 35 0 l 35 97 l 551 972 m 661 810 l 404 364 l 929 364 l 672 810 l 661 810 m 529 1069 l 354 1069 l 578 1278 l 758 1278 l 982 1069 l 807 1069 l 671 1192 l 664 1192 l 529 1069 z "},"Ä":{"ha":1333,"x_min":35,"x_max":1299,"o":"m 551 972 l 782 972 l 1299 97 l 1299 0 l 1139 0 l 1021 204 l 313 204 l 194 0 l 35 0 l 35 97 l 551 972 m 661 810 l 404 364 l 929 364 l 672 810 l 661 810 m 578 1083 l 411 1083 l 411 1257 l 578 1257 l 578 1083 m 925 1083 l 758 1083 l 758 1257 l 925 1257 l 925 1083 z "},"À":{"ha":1333,"x_min":35,"x_max":1299,"o":"m 551 972 l 782 972 l 1299 97 l 1299 0 l 1139 0 l 1021 204 l 313 204 l 194 0 l 35 0 l 35 97 l 551 972 m 661 810 l 404 364 l 929 364 l 672 810 l 661 810 m 779 1069 l 613 1069 l 453 1278 l 668 1278 l 779 1069 z "},"Ā":{"ha":1333,"x_min":35,"x_max":1299,"o":"m 551 972 l 782 972 l 1299 97 l 1299 0 l 1139 0 l 1021 204 l 313 204 l 194 0 l 35 0 l 35 97 l 551 972 m 661 810 l 404 364 l 929 364 l 672 810 l 661 810 m 981 1111 l 356 1111 l 356 1243 l 981 1243 l 981 1111 z "},"Ą":{"ha":1333,"x_min":35,"x_max":1299,"o":"m 1299 0 q 1153 -94 1208 -53 q 1099 -165 1099 -135 q 1110 -193 1099 -185 q 1150 -201 1121 -201 l 1299 -201 l 1299 -312 l 1129 -312 q 1008 -282 1051 -312 q 965 -194 965 -251 q 1010 -91 965 -137 q 1150 0 1054 -44 l 1139 0 l 1021 204 l 313 204 l 194 0 l 35 0 l 35 97 l 551 972 l 782 972 l 1299 97 l 1299 0 m 661 810 l 404 364 l 929 364 l 672 810 l 661 810 z "},"Ã":{"ha":1333,"x_min":35,"x_max":1299,"o":"m 551 972 l 782 972 l 1299 97 l 1299 0 l 1139 0 l 1021 204 l 313 204 l 194 0 l 35 0 l 35 97 l 551 972 m 661 810 l 404 364 l 929 364 l 672 810 l 661 810 m 844 1063 q 738 1078 785 1063 q 636 1119 692 1093 q 578 1144 600 1136 q 535 1153 556 1153 q 504 1126 504 1153 l 504 1069 l 372 1069 l 372 1168 q 403 1249 372 1221 q 492 1278 435 1278 q 598 1263 551 1278 q 700 1221 644 1247 q 758 1196 736 1204 q 801 1188 781 1188 q 832 1214 832 1188 l 832 1271 l 964 1271 l 964 1172 q 933 1091 964 1119 q 844 1063 901 1063 z "},"Ǎ":{"ha":1333,"x_min":35,"x_max":1299,"o":"m 551 972 l 782 972 l 1299 97 l 1299 0 l 1139 0 l 1021 204 l 313 204 l 194 0 l 35 0 l 35 97 l 551 972 m 661 810 l 404 364 l 929 364 l 672 810 l 661 810 m 758 1069 l 578 1069 l 354 1278 l 535 1278 l 664 1156 l 672 1156 l 801 1278 l 982 1278 l 758 1069 z "},"Å":{"ha":1333,"x_min":35,"x_max":1299,"o":"m 551 972 l 782 972 l 1299 97 l 1299 0 l 1139 0 l 1021 204 l 313 204 l 194 0 l 35 0 l 35 97 l 551 972 m 661 810 l 404 364 l 929 364 l 672 810 l 661 810 m 614 1028 q 494 1061 536 1028 q 453 1151 453 1094 l 453 1189 q 494 1279 453 1246 q 614 1313 536 1313 l 722 1313 q 842 1279 800 1313 q 883 1189 883 1246 l 883 1151 q 842 1061 883 1094 q 722 1028 800 1028 l 614 1028 m 713 1132 q 748 1140 738 1132 q 758 1165 758 1149 l 758 1175 q 748 1200 758 1192 q 713 1208 738 1208 l 624 1208 q 588 1200 599 1208 q 578 1175 578 1192 l 578 1165 q 588 1140 578 1149 q 624 1132 599 1132 l 713 1132 z "},"Ǻ":{"ha":1333,"x_min":35,"x_max":1299,"o":"m 551 972 l 782 972 l 1299 97 l 1299 0 l 1139 0 l 1021 204 l 313 204 l 194 0 l 35 0 l 35 97 l 551 972 m 661 810 l 404 364 l 929 364 l 672 810 l 661 810 m 756 1311 q 850 1272 817 1304 q 883 1189 883 1239 l 883 1151 q 842 1061 883 1094 q 722 1028 800 1028 l 614 1028 q 494 1061 536 1028 q 453 1151 453 1094 l 453 1189 q 488 1273 453 1240 q 586 1311 522 1306 l 658 1451 l 874 1451 l 756 1311 m 758 1175 q 748 1200 758 1192 q 713 1208 738 1208 l 624 1208 q 588 1200 599 1208 q 578 1175 578 1192 l 578 1165 q 588 1140 578 1149 q 624 1132 599 1132 l 713 1132 q 748 1140 738 1132 q 758 1165 758 1149 l 758 1175 z "},"Æ":{"ha":1958,"x_min":35,"x_max":1889,"o":"m 1889 869 l 1832 813 l 1111 813 l 1111 572 l 1701 572 l 1701 413 l 1111 413 l 1111 160 l 1889 160 l 1889 0 l 931 0 l 931 208 l 311 208 l 199 0 l 35 0 l 35 94 l 519 972 l 1889 972 l 1889 869 m 635 813 l 396 368 l 931 368 l 931 813 l 635 813 z "},"Ǽ":{"ha":1958,"x_min":35,"x_max":1889,"o":"m 1889 869 l 1832 813 l 1111 813 l 1111 572 l 1701 572 l 1701 413 l 1111 413 l 1111 160 l 1889 160 l 1889 0 l 931 0 l 931 208 l 311 208 l 199 0 l 35 0 l 35 94 l 519 972 l 1889 972 l 1889 869 m 635 813 l 396 368 l 931 368 l 931 813 l 635 813 m 1107 1069 l 940 1069 l 1051 1278 l 1267 1278 l 1107 1069 z "},"Ć":{"ha":1236,"x_min":111,"x_max":1167,"o":"m 375 0 q 178 60 244 0 q 111 222 111 119 l 111 750 q 178 913 111 853 q 375 972 244 972 l 1167 972 l 1167 869 l 1110 813 l 410 813 q 319 787 346 813 q 292 708 292 761 l 292 264 q 319 185 292 211 q 410 160 346 160 l 1167 160 l 1167 0 l 375 0 m 750 1069 l 583 1069 l 694 1278 l 910 1278 l 750 1069 z "},"Č":{"ha":1236,"x_min":111,"x_max":1167,"o":"m 375 0 q 178 60 244 0 q 111 222 111 119 l 111 750 q 178 913 111 853 q 375 972 244 972 l 1167 972 l 1167 869 l 1110 813 l 410 813 q 319 787 346 813 q 292 708 292 761 l 292 264 q 319 185 292 211 q 410 160 346 160 l 1167 160 l 1167 0 l 375 0 m 785 1069 l 604 1069 l 381 1278 l 561 1278 l 690 1156 l 699 1156 l 828 1278 l 1008 1278 l 785 1069 z "},"Ç":{"ha":1236,"x_min":111,"x_max":1167,"o":"m 410 813 q 319 787 346 813 q 292 708 292 761 l 292 264 q 319 185 292 211 q 410 160 346 160 l 1167 160 l 1167 0 l 744 0 l 726 -62 l 779 -62 q 892 -93 851 -62 q 932 -181 932 -124 l 932 -208 q 892 -296 932 -265 q 779 -326 851 -326 l 564 -326 l 564 -229 l 768 -229 q 807 -201 807 -229 l 807 -187 q 768 -160 807 -160 l 624 -160 l 582 -125 l 619 0 l 375 0 q 178 60 244 0 q 111 222 111 119 l 111 750 q 178 913 111 853 q 375 972 244 972 l 1167 972 l 1167 869 l 1110 813 l 410 813 z "},"Ĉ":{"ha":1236,"x_min":111,"x_max":1167,"o":"m 375 0 q 178 60 244 0 q 111 222 111 119 l 111 750 q 178 913 111 853 q 375 972 244 972 l 1167 972 l 1167 869 l 1110 813 l 410 813 q 319 787 346 813 q 292 708 292 761 l 292 264 q 319 185 292 211 q 410 160 346 160 l 1167 160 l 1167 0 l 375 0 m 556 1069 l 381 1069 l 604 1278 l 785 1278 l 1008 1069 l 833 1069 l 697 1192 l 690 1192 l 556 1069 z "},"Ċ":{"ha":1236,"x_min":111,"x_max":1167,"o":"m 375 0 q 178 60 244 0 q 111 222 111 119 l 111 750 q 178 913 111 853 q 375 972 244 972 l 1167 972 l 1167 869 l 1110 813 l 410 813 q 319 787 346 813 q 292 708 292 761 l 292 264 q 319 185 292 211 q 410 160 346 160 l 1167 160 l 1167 0 l 375 0 m 778 1083 l 611 1083 l 611 1257 l 778 1257 l 778 1083 z "},"Ð":{"ha":1389,"x_min":-28,"x_max":1278,"o":"m 1014 972 q 1211 913 1144 972 q 1278 750 1278 853 l 1278 222 q 1211 60 1278 119 q 1014 0 1144 0 l 146 0 l 146 408 l -28 408 l -28 561 l 146 561 l 146 972 l 1014 972 m 1097 708 q 1070 787 1097 761 q 979 813 1043 813 l 326 813 l 326 561 l 632 561 l 632 408 l 326 408 l 326 160 l 979 160 q 1070 185 1043 160 q 1097 264 1097 211 l 1097 708 z "},"Ď":{"ha":1375,"x_min":132,"x_max":1264,"o":"m 132 0 l 132 972 l 1000 972 q 1197 913 1131 972 q 1264 750 1264 853 l 1264 222 q 1197 60 1264 119 q 1000 0 1131 0 l 132 0 m 965 160 q 1056 185 1029 160 q 1083 264 1083 211 l 1083 708 q 1056 787 1083 761 q 965 813 1029 813 l 313 813 l 313 160 l 965 160 m 775 1069 l 594 1069 l 371 1278 l 551 1278 l 681 1156 l 689 1156 l 818 1278 l 999 1278 l 775 1069 z "},"Đ":{"ha":1389,"x_min":-28,"x_max":1278,"o":"m 1014 972 q 1211 913 1144 972 q 1278 750 1278 853 l 1278 222 q 1211 60 1278 119 q 1014 0 1144 0 l 146 0 l 146 408 l -28 408 l -28 561 l 146 561 l 146 972 l 1014 972 m 1097 708 q 1070 787 1097 761 q 979 813 1043 813 l 326 813 l 326 561 l 632 561 l 632 408 l 326 408 l 326 160 l 979 160 q 1070 185 1043 160 q 1097 264 1097 211 l 1097 708 z "},"Ǳ":{"ha":2576,"x_min":132,"x_max":2514,"o":"m 132 0 l 132 972 l 1000 972 q 1197 913 1131 972 q 1264 750 1264 853 l 1264 222 q 1197 60 1264 119 q 1000 0 1131 0 l 132 0 m 965 160 q 1056 185 1029 160 q 1083 264 1083 211 l 1083 708 q 1056 787 1083 761 q 965 813 1029 813 l 313 813 l 313 160 l 965 160 m 2514 0 l 1417 0 l 1417 153 l 2231 806 l 2231 813 l 1494 813 l 1438 869 l 1438 972 l 2514 972 l 2514 819 l 1700 167 l 1700 160 l 2514 160 l 2514 0 z "},"Ǆ":{"ha":2576,"x_min":132,"x_max":2514,"o":"m 132 0 l 132 972 l 1000 972 q 1197 913 1131 972 q 1264 750 1264 853 l 1264 222 q 1197 60 1264 119 q 1000 0 1131 0 l 132 0 m 965 160 q 1056 185 1029 160 q 1083 264 1083 211 l 1083 708 q 1056 787 1083 761 q 965 813 1029 813 l 313 813 l 313 160 l 965 160 z "},"ǲ":{"ha":2306,"x_min":132,"x_max":2243,"o":"m 132 0 l 132 972 l 1000 972 q 1197 913 1131 972 q 1264 750 1264 853 l 1264 222 q 1197 60 1264 119 q 1000 0 1131 0 l 132 0 m 965 160 q 1056 185 1029 160 q 1083 264 1083 211 l 1083 708 q 1056 787 1083 761 q 965 813 1029 813 l 313 813 l 313 160 l 965 160 m 2243 0 l 1431 0 l 1431 136 l 1956 542 l 1956 549 l 1500 549 l 1443 604 l 1443 701 l 2243 701 l 2243 567 l 1717 160 l 1717 153 l 2243 153 l 2243 0 z "},"ǅ":{"ha":2306,"x_min":132,"x_max":2243,"o":"m 132 0 l 132 972 l 1000 972 q 1197 913 1131 972 q 1264 750 1264 853 l 1264 222 q 1197 60 1264 119 q 1000 0 1131 0 l 132 0 m 965 160 q 1056 185 1029 160 q 1083 264 1083 211 l 1083 708 q 1056 787 1083 761 q 965 813 1029 813 l 313 813 l 313 160 l 965 160 z "},"É":{"ha":1201,"x_min":132,"x_max":1132,"o":"m 1132 0 l 132 0 l 132 972 l 1132 972 l 1132 869 l 1075 813 l 313 813 l 313 572 l 946 572 l 946 413 l 313 413 l 313 160 l 1132 160 l 1132 0 m 688 1069 l 521 1069 l 632 1278 l 847 1278 l 688 1069 z "},"Ĕ":{"ha":1201,"x_min":132,"x_max":1132,"o":"m 1132 0 l 132 0 l 132 972 l 1132 972 l 1132 869 l 1075 813 l 313 813 l 313 572 l 946 572 l 946 413 l 313 413 l 313 160 l 1132 160 l 1132 0 m 489 1069 q 369 1103 413 1069 q 326 1194 326 1138 l 326 1278 l 486 1278 l 486 1242 q 500 1205 486 1215 q 547 1194 514 1194 l 717 1194 q 764 1205 750 1194 q 778 1242 778 1215 l 778 1278 l 938 1278 l 938 1194 q 894 1103 938 1138 q 775 1069 851 1069 l 489 1069 z "},"Ě":{"ha":1201,"x_min":132,"x_max":1132,"o":"m 1132 0 l 132 0 l 132 972 l 1132 972 l 1132 869 l 1075 813 l 313 813 l 313 572 l 946 572 l 946 413 l 313 413 l 313 160 l 1132 160 l 1132 0 m 722 1069 l 542 1069 l 318 1278 l 499 1278 l 628 1156 l 636 1156 l 765 1278 l 946 1278 l 722 1069 z "},"Ê":{"ha":1201,"x_min":132,"x_max":1132,"o":"m 1132 0 l 132 0 l 132 972 l 1132 972 l 1132 869 l 1075 813 l 313 813 l 313 572 l 946 572 l 946 413 l 313 413 l 313 160 l 1132 160 l 1132 0 m 493 1069 l 318 1069 l 542 1278 l 722 1278 l 946 1069 l 771 1069 l 635 1192 l 628 1192 l 493 1069 z "},"Ë":{"ha":1201,"x_min":132,"x_max":1132,"o":"m 1132 0 l 132 0 l 132 972 l 1132 972 l 1132 869 l 1075 813 l 313 813 l 313 572 l 946 572 l 946 413 l 313 413 l 313 160 l 1132 160 l 1132 0 m 542 1083 l 375 1083 l 375 1257 l 542 1257 l 542 1083 m 889 1083 l 722 1083 l 722 1257 l 889 1257 l 889 1083 z "},"Ė":{"ha":1201,"x_min":132,"x_max":1132,"o":"m 1132 0 l 132 0 l 132 972 l 1132 972 l 1132 869 l 1075 813 l 313 813 l 313 572 l 946 572 l 946 413 l 313 413 l 313 160 l 1132 160 l 1132 0 m 715 1083 l 549 1083 l 549 1257 l 715 1257 l 715 1083 z "},"È":{"ha":1201,"x_min":132,"x_max":1132,"o":"m 1132 0 l 132 0 l 132 972 l 1132 972 l 1132 869 l 1075 813 l 313 813 l 313 572 l 946 572 l 946 413 l 313 413 l 313 160 l 1132 160 l 1132 0 m 743 1069 l 576 1069 l 417 1278 l 632 1278 l 743 1069 z "},"Ē":{"ha":1201,"x_min":132,"x_max":1132,"o":"m 1132 0 l 132 0 l 132 972 l 1132 972 l 1132 869 l 1075 813 l 313 813 l 313 572 l 946 572 l 946 413 l 313 413 l 313 160 l 1132 160 l 1132 0 m 944 1111 l 319 1111 l 319 1243 l 944 1243 l 944 1111 z "},"Ę":{"ha":1201,"x_min":132,"x_max":1132,"o":"m 1075 813 l 313 813 l 313 572 l 946 572 l 946 413 l 313 413 l 313 160 l 1132 160 l 1132 0 q 987 -94 1042 -53 q 932 -165 932 -135 q 943 -193 932 -185 q 983 -201 954 -201 l 1132 -201 l 1132 -312 l 963 -312 q 842 -282 885 -312 q 799 -194 799 -251 q 843 -91 799 -137 q 983 0 888 -44 l 132 0 l 132 972 l 1132 972 l 1132 869 l 1075 813 z "},"Ẽ":{"ha":1201,"x_min":132,"x_max":1132,"o":"m 1132 0 l 132 0 l 132 972 l 1132 972 l 1132 869 l 1075 813 l 313 813 l 313 572 l 946 572 l 946 413 l 313 413 l 313 160 l 1132 160 l 1132 0 m 808 1063 q 702 1078 749 1063 q 600 1119 656 1093 q 542 1144 564 1136 q 499 1153 519 1153 q 468 1126 468 1153 l 468 1069 l 336 1069 l 336 1168 q 367 1249 336 1221 q 456 1278 399 1278 q 562 1263 515 1278 q 664 1221 608 1247 q 722 1196 700 1204 q 765 1188 744 1188 q 796 1214 796 1188 l 796 1271 l 928 1271 l 928 1172 q 897 1091 928 1119 q 808 1063 865 1063 z "},"Ə":{"ha":1389,"x_min":111,"x_max":1278,"o":"m 375 -14 q 178 46 244 -14 q 111 208 111 106 l 111 569 l 1097 569 l 1097 708 q 1070 787 1097 761 q 979 813 1043 813 l 279 813 l 222 869 l 222 972 l 1014 972 q 1211 913 1144 972 q 1278 750 1278 853 l 1278 208 q 1211 46 1278 106 q 1014 -14 1144 -14 l 375 -14 m 979 146 q 1070 172 1043 146 q 1097 250 1097 197 l 1097 410 l 292 410 l 292 250 q 319 172 292 197 q 410 146 346 146 l 979 146 z "},"Ǵ":{"ha":1354,"x_min":111,"x_max":1243,"o":"m 375 0 q 178 60 244 0 q 111 222 111 119 l 111 750 q 178 913 111 853 q 375 972 244 972 l 1167 972 l 1167 869 l 1110 813 l 410 813 q 319 787 346 813 q 292 708 292 761 l 292 264 q 319 185 292 211 q 410 160 346 160 l 1063 160 l 1063 536 l 1243 536 l 1243 0 l 375 0 m 754 1069 l 588 1069 l 699 1278 l 914 1278 l 754 1069 z "},"Ğ":{"ha":1354,"x_min":111,"x_max":1243,"o":"m 375 0 q 178 60 244 0 q 111 222 111 119 l 111 750 q 178 913 111 853 q 375 972 244 972 l 1167 972 l 1167 869 l 1110 813 l 410 813 q 319 787 346 813 q 292 708 292 761 l 292 264 q 319 185 292 211 q 410 160 346 160 l 1063 160 l 1063 536 l 1243 536 l 1243 0 l 375 0 m 556 1069 q 436 1103 479 1069 q 393 1194 393 1138 l 393 1278 l 553 1278 l 553 1242 q 567 1205 553 1215 q 614 1194 581 1194 l 783 1194 q 831 1205 817 1194 q 844 1242 844 1215 l 844 1278 l 1004 1278 l 1004 1194 q 961 1103 1004 1138 q 842 1069 918 1069 l 556 1069 z "},"Ĝ":{"ha":1354,"x_min":111,"x_max":1243,"o":"m 375 0 q 178 60 244 0 q 111 222 111 119 l 111 750 q 178 913 111 853 q 375 972 244 972 l 1167 972 l 1167 869 l 1110 813 l 410 813 q 319 787 346 813 q 292 708 292 761 l 292 264 q 319 185 292 211 q 410 160 346 160 l 1063 160 l 1063 536 l 1243 536 l 1243 0 l 375 0 m 560 1069 l 385 1069 l 608 1278 l 789 1278 l 1013 1069 l 838 1069 l 701 1192 l 694 1192 l 560 1069 z "},"Ģ":{"ha":1354,"x_min":111,"x_max":1243,"o":"m 375 0 q 178 60 244 0 q 111 222 111 119 l 111 750 q 178 913 111 853 q 375 972 244 972 l 1167 972 l 1167 869 l 1110 813 l 410 813 q 319 787 346 813 q 292 708 292 761 l 292 264 q 319 185 292 211 q 410 160 346 160 l 1063 160 l 1063 536 l 1243 536 l 1243 0 l 375 0 m 701 -389 l 611 -389 l 611 -90 l 778 -90 l 778 -231 l 701 -389 z "},"Ġ":{"ha":1354,"x_min":111,"x_max":1243,"o":"m 375 0 q 178 60 244 0 q 111 222 111 119 l 111 750 q 178 913 111 853 q 375 972 244 972 l 1167 972 l 1167 869 l 1110 813 l 410 813 q 319 787 346 813 q 292 708 292 761 l 292 264 q 319 185 292 211 q 410 160 346 160 l 1063 160 l 1063 536 l 1243 536 l 1243 0 l 375 0 m 782 1083 l 615 1083 l 615 1257 l 782 1257 l 782 1083 z "},"Ǧ":{"ha":1354,"x_min":111,"x_max":1243,"o":"m 375 0 q 178 60 244 0 q 111 222 111 119 l 111 750 q 178 913 111 853 q 375 972 244 972 l 1167 972 l 1167 869 l 1110 813 l 410 813 q 319 787 346 813 q 292 708 292 761 l 292 264 q 319 185 292 211 q 410 160 346 160 l 1063 160 l 1063 536 l 1243 536 l 1243 0 l 375 0 m 789 1069 l 608 1069 l 385 1278 l 565 1278 l 694 1156 l 703 1156 l 832 1278 l 1013 1278 l 789 1069 z "},"Ħ":{"ha":1431,"x_min":0,"x_max":1431,"o":"m 1285 828 l 1431 828 l 1431 675 l 1285 675 l 1285 0 l 1104 0 l 1104 414 l 326 414 l 326 0 l 146 0 l 146 675 l 0 675 l 0 828 l 146 828 l 146 972 l 326 972 l 326 828 l 1104 828 l 1104 972 l 1285 972 l 1285 828 m 326 581 l 1104 581 l 1104 675 l 326 675 l 326 581 z "},"Ĥ":{"ha":1403,"x_min":132,"x_max":1271,"o":"m 313 0 l 132 0 l 132 972 l 313 972 l 313 581 l 1090 581 l 1090 972 l 1271 972 l 1271 0 l 1090 0 l 1090 414 l 313 414 l 313 0 m 563 1069 l 388 1069 l 611 1278 l 792 1278 l 1015 1069 l 840 1069 l 704 1192 l 697 1192 l 563 1069 z "},"Ȟ":{"ha":1403,"x_min":132,"x_max":1271,"o":"m 313 0 l 132 0 l 132 972 l 313 972 l 313 581 l 1090 581 l 1090 972 l 1271 972 l 1271 0 l 1090 0 l 1090 414 l 313 414 l 313 0 m 792 1069 l 611 1069 l 388 1278 l 568 1278 l 697 1156 l 706 1156 l 835 1278 l 1015 1278 l 792 1069 z "},"Ḧ":{"ha":1403,"x_min":132,"x_max":1271,"o":"m 313 0 l 132 0 l 132 972 l 313 972 l 313 581 l 1090 581 l 1090 972 l 1271 972 l 1271 0 l 1090 0 l 1090 414 l 313 414 l 313 0 m 611 1083 l 444 1083 l 444 1257 l 611 1257 l 611 1083 m 958 1083 l 792 1083 l 792 1257 l 958 1257 l 958 1083 z "},"Ḥ":{"ha":1403,"x_min":132,"x_max":1271,"o":"m 313 0 l 132 0 l 132 972 l 313 972 l 313 581 l 1090 581 l 1090 972 l 1271 972 l 1271 0 l 1090 0 l 1090 414 l 313 414 l 313 0 m 792 -285 l 611 -285 l 611 -104 l 792 -104 l 792 -285 z "},"Í":{"ha":444,"x_min":111,"x_max":438,"o":"m 313 0 l 132 0 l 132 972 l 313 972 l 313 0 m 278 1069 l 111 1069 l 222 1278 l 438 1278 l 278 1069 z "},"Ĭ":{"ha":444,"x_min":-83,"x_max":528,"o":"m 313 0 l 132 0 l 132 972 l 313 972 l 313 0 m 79 1069 q -40 1103 3 1069 q -83 1194 -83 1138 l -83 1278 l 76 1278 l 76 1242 q 90 1205 76 1215 q 138 1194 104 1194 l 307 1194 q 354 1205 340 1194 q 368 1242 368 1215 l 368 1278 l 528 1278 l 528 1194 q 485 1103 528 1138 q 365 1069 442 1069 l 79 1069 z "},"Î":{"ha":444,"x_min":-92,"x_max":536,"o":"m 313 0 l 132 0 l 132 972 l 313 972 l 313 0 m 83 1069 l -92 1069 l 132 1278 l 313 1278 l 536 1069 l 361 1069 l 225 1192 l 218 1192 l 83 1069 z "},"Ï":{"ha":444,"x_min":-35,"x_max":479,"o":"m 313 0 l 132 0 l 132 972 l 313 972 l 313 0 m 132 1083 l -35 1083 l -35 1257 l 132 1257 l 132 1083 m 479 1083 l 313 1083 l 313 1257 l 479 1257 l 479 1083 z "},"İ":{"ha":444,"x_min":132,"x_max":313,"o":"m 313 0 l 132 0 l 132 972 l 313 972 l 313 0 m 306 1083 l 139 1083 l 139 1257 l 306 1257 l 306 1083 z "},"Ì":{"ha":444,"x_min":7,"x_max":333,"o":"m 313 0 l 132 0 l 132 972 l 313 972 l 313 0 m 333 1069 l 167 1069 l 7 1278 l 222 1278 l 333 1069 z "},"Ī":{"ha":444,"x_min":-90,"x_max":535,"o":"m 313 0 l 132 0 l 132 972 l 313 972 l 313 0 m 535 1111 l -90 1111 l -90 1243 l 535 1243 l 535 1111 z "},"Į":{"ha":444,"x_min":0,"x_max":313,"o":"m 313 0 q 185 -90 238 -46 q 133 -165 133 -135 q 144 -193 133 -185 q 185 -201 156 -201 l 313 -201 l 313 -312 l 164 -312 q 43 -282 86 -312 q 0 -194 0 -251 q 40 -90 0 -135 q 171 0 79 -44 l 132 0 l 132 972 l 313 972 l 313 0 z "},"Ĩ":{"ha":444,"x_min":-74,"x_max":518,"o":"m 313 0 l 132 0 l 132 972 l 313 972 l 313 0 m 399 1063 q 292 1078 339 1063 q 190 1119 246 1093 q 132 1144 154 1136 q 89 1153 110 1153 q 58 1126 58 1153 l 58 1069 l -74 1069 l -74 1168 q -42 1249 -74 1221 q 46 1278 -11 1278 q 152 1263 106 1278 q 254 1221 199 1247 q 313 1196 290 1204 q 356 1188 335 1188 q 386 1214 386 1188 l 386 1271 l 518 1271 l 518 1172 q 487 1091 518 1119 q 399 1063 456 1063 z "},"Ĳ":{"ha":1417,"x_min":132,"x_max":1292,"o":"m 313 0 l 132 0 l 132 972 l 313 972 l 313 0 m 486 -14 l 486 146 l 993 146 q 1084 172 1057 146 q 1111 250 1111 197 l 1111 972 l 1292 972 l 1292 208 q 1225 46 1292 106 q 1028 -14 1158 -14 l 486 -14 z "},"":{"ha":1417,"x_min":111,"x_max":1417,"o":"m 313 0 l 132 0 l 132 972 l 313 972 l 313 0 m 278 1069 l 111 1069 l 222 1278 l 438 1278 l 278 1069 m 486 -14 l 486 146 l 993 146 q 1084 172 1057 146 q 1111 250 1111 197 l 1111 972 l 1292 972 l 1292 208 q 1225 46 1292 106 q 1028 -14 1158 -14 l 486 -14 m 1257 1069 l 1090 1069 l 1201 1278 l 1417 1278 l 1257 1069 z "},"Ĵ":{"ha":972,"x_min":42,"x_max":1071,"o":"m 42 -14 l 42 146 l 549 146 q 640 172 613 146 q 667 250 667 197 l 667 972 l 847 972 l 847 208 q 781 46 847 106 q 583 -14 714 -14 l 42 -14 m 618 1069 l 443 1069 l 667 1278 l 847 1278 l 1071 1069 l 896 1069 l 760 1192 l 753 1192 l 618 1069 z "},"Ķ":{"ha":1326,"x_min":132,"x_max":1271,"o":"m 313 0 l 132 0 l 132 972 l 313 972 l 313 576 l 675 576 l 1097 972 l 1257 972 l 1257 875 l 842 500 l 1271 97 l 1271 0 l 1110 0 l 674 410 l 313 410 l 313 0 m 683 -389 l 593 -389 l 593 -90 l 760 -90 l 760 -231 l 683 -389 z "},"Ḱ":{"ha":1326,"x_min":132,"x_max":1271,"o":"m 313 0 l 132 0 l 132 972 l 313 972 l 313 576 l 675 576 l 1097 972 l 1257 972 l 1257 875 l 842 500 l 1271 97 l 1271 0 l 1110 0 l 674 410 l 313 410 l 313 0 m 732 1069 l 565 1069 l 676 1278 l 892 1278 l 732 1069 z "},"Ĺ":{"ha":1153,"x_min":111,"x_max":1125,"o":"m 1125 0 l 132 0 l 132 972 l 313 972 l 313 167 l 1125 167 l 1125 0 m 278 1069 l 111 1069 l 222 1278 l 438 1278 l 278 1069 z "},"Ľ":{"ha":1153,"x_min":132,"x_max":1125,"o":"m 1125 0 l 132 0 l 132 972 l 313 972 l 313 167 l 1125 167 l 1125 0 m 543 708 l 451 708 l 451 972 l 618 972 l 618 879 l 543 708 z "},"Ļ":{"ha":1153,"x_min":132,"x_max":1125,"o":"m 1125 0 l 132 0 l 132 972 l 313 972 l 313 167 l 1125 167 l 1125 0 m 632 -389 l 542 -389 l 542 -90 l 708 -90 l 708 -231 l 632 -389 z "},"Ŀ":{"ha":1153,"x_min":132,"x_max":1125,"o":"m 1125 0 l 132 0 l 132 972 l 313 972 l 313 167 l 1125 167 l 1125 0 m 889 425 l 708 425 l 708 606 l 889 606 l 889 425 z "},"Ł":{"ha":1167,"x_min":11,"x_max":1139,"o":"m 326 451 l 326 167 l 1139 167 l 1139 0 l 146 0 l 146 339 l 11 254 l 11 417 l 146 501 l 146 972 l 326 972 l 326 614 l 664 826 l 664 664 l 326 451 z "},"Ǉ":{"ha":2125,"x_min":132,"x_max":2000,"o":"m 1125 0 l 132 0 l 132 972 l 313 972 l 313 167 l 1125 167 l 1125 0 m 1194 -14 l 1194 146 l 1701 146 q 1792 172 1765 146 q 1819 250 1819 197 l 1819 972 l 2000 972 l 2000 208 q 1933 46 2000 106 q 1736 -14 1867 -14 l 1194 -14 z "},"Ḷ":{"ha":1153,"x_min":132,"x_max":1125,"o":"m 1125 0 l 132 0 l 132 972 l 313 972 l 313 167 l 1125 167 l 1125 0 m 715 -285 l 535 -285 l 535 -104 l 715 -104 l 715 -285 z "},"ǈ":{"ha":1542,"x_min":132,"x_max":1438,"o":"m 1125 0 l 132 0 l 132 972 l 313 972 l 313 167 l 1125 167 l 1125 0 m 1049 -236 l 1049 -83 l 1160 -83 q 1271 10 1271 -83 l 1271 701 l 1438 701 l 1438 -35 q 1409 -136 1438 -90 q 1328 -209 1381 -182 q 1204 -236 1275 -236 l 1049 -236 m 1436 833 l 1269 833 l 1269 1007 l 1436 1007 l 1436 833 z "},"Ḿ":{"ha":1714,"x_min":76,"x_max":1638,"o":"m 257 0 l 76 0 l 76 97 l 231 972 l 425 972 l 853 340 l 861 340 l 1289 972 l 1483 972 l 1638 97 l 1638 0 l 1457 0 l 1342 725 l 1333 725 l 936 139 l 778 139 l 381 725 l 372 725 l 257 0 m 939 1069 l 772 1069 l 883 1278 l 1099 1278 l 939 1069 z "},"Ń":{"ha":1424,"x_min":132,"x_max":1292,"o":"m 313 0 l 132 0 l 132 972 l 319 972 l 1119 235 l 1128 235 l 1111 424 l 1111 972 l 1292 972 l 1292 0 l 1104 0 l 304 738 l 296 738 l 313 549 l 313 0 m 769 1069 l 603 1069 l 714 1278 l 929 1278 l 769 1069 z "},"Ň":{"ha":1424,"x_min":132,"x_max":1292,"o":"m 313 0 l 132 0 l 132 972 l 319 972 l 1119 235 l 1128 235 l 1111 424 l 1111 972 l 1292 972 l 1292 0 l 1104 0 l 304 738 l 296 738 l 313 549 l 313 0 m 804 1069 l 624 1069 l 400 1278 l 581 1278 l 710 1156 l 718 1156 l 847 1278 l 1028 1278 l 804 1069 z "},"Ņ":{"ha":1424,"x_min":132,"x_max":1292,"o":"m 313 0 l 132 0 l 132 972 l 319 972 l 1119 235 l 1128 235 l 1111 424 l 1111 972 l 1292 972 l 1292 0 l 1104 0 l 304 738 l 296 738 l 313 549 l 313 0 m 721 -389 l 631 -389 l 631 -90 l 797 -90 l 797 -231 l 721 -389 z "},"Ŋ":{"ha":1424,"x_min":132,"x_max":1292,"o":"m 500 -243 l 500 -83 l 993 -83 q 1083 -62 1054 -83 q 1111 -7 1111 -40 l 1111 0 l 304 738 l 296 738 l 313 549 l 313 0 l 132 0 l 132 972 l 319 972 l 1119 242 l 1128 242 l 1111 431 l 1111 972 l 1292 972 l 1292 -21 q 1225 -183 1292 -124 q 1028 -243 1158 -243 l 500 -243 z "},"Ñ":{"ha":1424,"x_min":132,"x_max":1292,"o":"m 313 0 l 132 0 l 132 972 l 319 972 l 1119 235 l 1128 235 l 1111 424 l 1111 972 l 1292 972 l 1292 0 l 1104 0 l 304 738 l 296 738 l 313 549 l 313 0 m 890 1063 q 784 1078 831 1063 q 682 1119 738 1093 q 624 1144 646 1136 q 581 1153 601 1153 q 550 1126 550 1153 l 550 1069 l 418 1069 l 418 1168 q 449 1249 418 1221 q 538 1278 481 1278 q 644 1263 597 1278 q 746 1221 690 1247 q 804 1196 782 1204 q 847 1188 826 1188 q 878 1214 878 1188 l 878 1271 l 1010 1271 l 1010 1172 q 978 1091 1010 1119 q 890 1063 947 1063 z "},"Ǌ":{"ha":2396,"x_min":132,"x_max":2271,"o":"m 313 0 l 132 0 l 132 972 l 319 972 l 1119 235 l 1128 235 l 1111 424 l 1111 972 l 1292 972 l 1292 0 l 1104 0 l 304 738 l 296 738 l 313 549 l 313 0 m 1465 -14 l 1465 146 l 1972 146 q 2063 172 2036 146 q 2090 250 2090 197 l 2090 972 l 2271 972 l 2271 208 q 2204 46 2271 106 q 2007 -14 2138 -14 l 1465 -14 z "},"ǋ":{"ha":1813,"x_min":132,"x_max":1708,"o":"m 313 0 l 132 0 l 132 972 l 319 972 l 1119 235 l 1128 235 l 1111 424 l 1111 972 l 1292 972 l 1292 0 l 1104 0 l 304 738 l 296 738 l 313 549 l 313 0 m 1319 -236 l 1319 -83 l 1431 -83 q 1542 10 1542 -83 l 1542 701 l 1708 701 l 1708 -35 q 1680 -136 1708 -90 q 1599 -209 1651 -182 q 1475 -236 1546 -236 l 1319 -236 m 1707 833 l 1540 833 l 1540 1007 l 1707 1007 l 1707 833 z "},"Ó":{"ha":1389,"x_min":111,"x_max":1278,"o":"m 375 -14 q 178 46 244 -14 q 111 208 111 106 l 111 764 q 178 926 111 867 q 375 986 244 986 l 1014 986 q 1211 926 1144 986 q 1278 764 1278 867 l 1278 208 q 1211 46 1278 106 q 1014 -14 1144 -14 l 375 -14 m 979 146 q 1070 172 1043 146 q 1097 250 1097 197 l 1097 722 q 1070 801 1097 775 q 979 826 1043 826 l 410 826 q 319 801 346 826 q 292 722 292 775 l 292 250 q 319 172 292 197 q 410 146 346 146 l 979 146 m 750 1069 l 583 1069 l 694 1278 l 910 1278 l 750 1069 z "},"Ŏ":{"ha":1389,"x_min":111,"x_max":1278,"o":"m 375 -14 q 178 46 244 -14 q 111 208 111 106 l 111 764 q 178 926 111 867 q 375 986 244 986 l 1014 986 q 1211 926 1144 986 q 1278 764 1278 867 l 1278 208 q 1211 46 1278 106 q 1014 -14 1144 -14 l 375 -14 m 979 146 q 1070 172 1043 146 q 1097 250 1097 197 l 1097 722 q 1070 801 1097 775 q 979 826 1043 826 l 410 826 q 319 801 346 826 q 292 722 292 775 l 292 250 q 319 172 292 197 q 410 146 346 146 l 979 146 m 551 1069 q 432 1103 475 1069 q 389 1194 389 1138 l 389 1278 l 549 1278 l 549 1242 q 563 1205 549 1215 q 610 1194 576 1194 l 779 1194 q 826 1205 813 1194 q 840 1242 840 1215 l 840 1278 l 1000 1278 l 1000 1194 q 957 1103 1000 1138 q 838 1069 914 1069 l 551 1069 z "},"Ô":{"ha":1389,"x_min":111,"x_max":1278,"o":"m 375 -14 q 178 46 244 -14 q 111 208 111 106 l 111 764 q 178 926 111 867 q 375 986 244 986 l 1014 986 q 1211 926 1144 986 q 1278 764 1278 867 l 1278 208 q 1211 46 1278 106 q 1014 -14 1144 -14 l 375 -14 m 979 146 q 1070 172 1043 146 q 1097 250 1097 197 l 1097 722 q 1070 801 1097 775 q 979 826 1043 826 l 410 826 q 319 801 346 826 q 292 722 292 775 l 292 250 q 319 172 292 197 q 410 146 346 146 l 979 146 m 556 1069 l 381 1069 l 604 1278 l 785 1278 l 1008 1069 l 833 1069 l 697 1192 l 690 1192 l 556 1069 z "},"Ö":{"ha":1389,"x_min":111,"x_max":1278,"o":"m 375 -14 q 178 46 244 -14 q 111 208 111 106 l 111 764 q 178 926 111 867 q 375 986 244 986 l 1014 986 q 1211 926 1144 986 q 1278 764 1278 867 l 1278 208 q 1211 46 1278 106 q 1014 -14 1144 -14 l 375 -14 m 979 146 q 1070 172 1043 146 q 1097 250 1097 197 l 1097 722 q 1070 801 1097 775 q 979 826 1043 826 l 410 826 q 319 801 346 826 q 292 722 292 775 l 292 250 q 319 172 292 197 q 410 146 346 146 l 979 146 m 604 1083 l 438 1083 l 438 1257 l 604 1257 l 604 1083 m 951 1083 l 785 1083 l 785 1257 l 951 1257 l 951 1083 z "},"Ò":{"ha":1389,"x_min":111,"x_max":1278,"o":"m 375 -14 q 178 46 244 -14 q 111 208 111 106 l 111 764 q 178 926 111 867 q 375 986 244 986 l 1014 986 q 1211 926 1144 986 q 1278 764 1278 867 l 1278 208 q 1211 46 1278 106 q 1014 -14 1144 -14 l 375 -14 m 979 146 q 1070 172 1043 146 q 1097 250 1097 197 l 1097 722 q 1070 801 1097 775 q 979 826 1043 826 l 410 826 q 319 801 346 826 q 292 722 292 775 l 292 250 q 319 172 292 197 q 410 146 346 146 l 979 146 m 806 1069 l 639 1069 l 479 1278 l 694 1278 l 806 1069 z "},"Ő":{"ha":1389,"x_min":111,"x_max":1278,"o":"m 375 -14 q 178 46 244 -14 q 111 208 111 106 l 111 764 q 178 926 111 867 q 375 986 244 986 l 1014 986 q 1211 926 1144 986 q 1278 764 1278 867 l 1278 208 q 1211 46 1278 106 q 1014 -14 1144 -14 l 375 -14 m 979 146 q 1070 172 1043 146 q 1097 250 1097 197 l 1097 722 q 1070 801 1097 775 q 979 826 1043 826 l 410 826 q 319 801 346 826 q 292 722 292 775 l 292 250 q 319 172 292 197 q 410 146 346 146 l 979 146 m 588 1069 l 449 1069 l 596 1278 l 769 1278 l 588 1069 m 907 1069 l 768 1069 l 915 1278 l 1089 1278 l 907 1069 z "},"Ō":{"ha":1389,"x_min":111,"x_max":1278,"o":"m 375 -14 q 178 46 244 -14 q 111 208 111 106 l 111 764 q 178 926 111 867 q 375 986 244 986 l 1014 986 q 1211 926 1144 986 q 1278 764 1278 867 l 1278 208 q 1211 46 1278 106 q 1014 -14 1144 -14 l 375 -14 m 979 146 q 1070 172 1043 146 q 1097 250 1097 197 l 1097 722 q 1070 801 1097 775 q 979 826 1043 826 l 410 826 q 319 801 346 826 q 292 722 292 775 l 292 250 q 319 172 292 197 q 410 146 346 146 l 979 146 m 1007 1111 l 382 1111 l 382 1243 l 1007 1243 l 1007 1111 z "},"Ø":{"ha":1389,"x_min":111,"x_max":1278,"o":"m 1014 986 q 1211 926 1144 986 q 1278 764 1278 867 l 1278 208 q 1211 46 1278 106 q 1014 -14 1144 -14 l 375 -14 q 178 46 244 -14 q 111 208 111 106 l 111 764 q 178 926 111 867 q 375 986 244 986 l 1014 986 m 292 250 q 300 200 292 221 l 1001 825 q 979 826 994 826 l 410 826 q 319 801 346 826 q 292 722 292 775 l 292 250 m 1097 722 q 1089 772 1097 751 l 386 147 q 410 146 393 146 l 979 146 q 1070 172 1043 146 q 1097 250 1097 197 l 1097 722 z "},"Ǿ":{"ha":1389,"x_min":111,"x_max":1278,"o":"m 1014 986 q 1211 926 1144 986 q 1278 764 1278 867 l 1278 208 q 1211 46 1278 106 q 1014 -14 1144 -14 l 375 -14 q 178 46 244 -14 q 111 208 111 106 l 111 764 q 178 926 111 867 q 375 986 244 986 l 1014 986 m 292 250 q 300 200 292 221 l 1001 825 q 979 826 994 826 l 410 826 q 319 801 346 826 q 292 722 292 775 l 292 250 m 1097 722 q 1089 772 1097 751 l 386 147 q 410 146 393 146 l 979 146 q 1070 172 1043 146 q 1097 250 1097 197 l 1097 722 m 750 1069 l 583 1069 l 694 1278 l 910 1278 l 750 1069 z "},"Õ":{"ha":1389,"x_min":111,"x_max":1278,"o":"m 375 -14 q 178 46 244 -14 q 111 208 111 106 l 111 764 q 178 926 111 867 q 375 986 244 986 l 1014 986 q 1211 926 1144 986 q 1278 764 1278 867 l 1278 208 q 1211 46 1278 106 q 1014 -14 1144 -14 l 375 -14 m 979 146 q 1070 172 1043 146 q 1097 250 1097 197 l 1097 722 q 1070 801 1097 775 q 979 826 1043 826 l 410 826 q 319 801 346 826 q 292 722 292 775 l 292 250 q 319 172 292 197 q 410 146 346 146 l 979 146 m 871 1063 q 765 1078 811 1063 q 663 1119 718 1093 q 604 1144 626 1136 q 561 1153 582 1153 q 531 1126 531 1153 l 531 1069 l 399 1069 l 399 1168 q 430 1249 399 1221 q 518 1278 461 1278 q 624 1263 578 1278 q 726 1221 671 1247 q 785 1196 763 1204 q 828 1188 807 1188 q 858 1214 858 1188 l 858 1271 l 990 1271 l 990 1172 q 959 1091 990 1119 q 871 1063 928 1063 z "},"Œ":{"ha":2000,"x_min":111,"x_max":1931,"o":"m 375 0 q 178 60 244 0 q 111 222 111 119 l 111 750 q 178 913 111 853 q 375 972 244 972 l 1931 972 l 1931 869 l 1874 813 l 1153 813 l 1153 572 l 1743 572 l 1743 413 l 1153 413 l 1153 160 l 1931 160 l 1931 0 l 375 0 m 972 160 l 972 813 l 410 813 q 319 787 346 813 q 292 708 292 761 l 292 264 q 319 185 292 211 q 410 160 346 160 l 972 160 z "},"Ṕ":{"ha":1333,"x_min":132,"x_max":1236,"o":"m 132 0 l 132 972 l 972 972 q 1169 913 1103 972 q 1236 750 1236 853 l 1236 528 q 1169 365 1236 425 q 972 306 1103 306 l 313 306 l 313 0 l 132 0 m 938 465 q 1028 491 1001 465 q 1056 569 1056 517 l 1056 708 q 1028 787 1056 761 q 938 813 1001 813 l 313 813 l 313 465 l 938 465 m 736 1069 l 569 1069 l 681 1278 l 896 1278 l 736 1069 z "},"Þ":{"ha":1410,"x_min":132,"x_max":1313,"o":"m 132 0 l 132 972 l 313 972 l 313 781 l 1049 781 q 1246 721 1179 781 q 1313 558 1313 661 l 1313 414 q 1246 251 1313 311 q 1049 192 1179 192 l 313 192 l 313 0 l 132 0 m 1014 351 q 1105 377 1078 351 q 1132 456 1132 403 l 1132 517 q 1105 595 1132 569 q 1014 621 1078 621 l 313 621 l 313 351 l 1014 351 z "},"Ŕ":{"ha":1361,"x_min":132,"x_max":1264,"o":"m 1264 97 l 1264 0 l 1099 0 l 750 361 l 311 361 l 311 0 l 132 0 l 132 972 l 971 972 q 1168 913 1101 972 q 1235 750 1235 853 l 1235 583 q 1174 426 1235 485 q 992 361 1113 367 l 1264 97 m 311 521 l 936 521 q 1027 547 1000 521 q 1054 625 1054 572 l 1054 708 q 1027 787 1054 761 q 936 813 1000 813 l 311 813 l 311 521 m 715 1069 l 549 1069 l 660 1278 l 875 1278 l 715 1069 z "},"Ř":{"ha":1361,"x_min":132,"x_max":1264,"o":"m 1264 97 l 1264 0 l 1099 0 l 750 361 l 311 361 l 311 0 l 132 0 l 132 972 l 971 972 q 1168 913 1101 972 q 1235 750 1235 853 l 1235 583 q 1174 426 1235 485 q 992 361 1113 367 l 1264 97 m 311 521 l 936 521 q 1027 547 1000 521 q 1054 625 1054 572 l 1054 708 q 1027 787 1054 761 q 936 813 1000 813 l 311 813 l 311 521 m 750 1069 l 569 1069 l 346 1278 l 526 1278 l 656 1156 l 664 1156 l 793 1278 l 974 1278 l 750 1069 z "},"Ŗ":{"ha":1361,"x_min":132,"x_max":1264,"o":"m 1264 97 l 1264 0 l 1099 0 l 750 361 l 311 361 l 311 0 l 132 0 l 132 972 l 971 972 q 1168 913 1101 972 q 1235 750 1235 853 l 1235 583 q 1174 426 1235 485 q 992 361 1113 367 l 1264 97 m 311 521 l 936 521 q 1027 547 1000 521 q 1054 625 1054 572 l 1054 708 q 1027 787 1054 761 q 936 813 1000 813 l 311 813 l 311 521 m 676 -389 l 586 -389 l 586 -90 l 753 -90 l 753 -231 l 676 -389 z "},"Ś":{"ha":1271,"x_min":90,"x_max":1194,"o":"m 92 0 l 92 160 l 896 160 q 987 185 960 160 q 1014 264 1014 211 l 1014 279 q 871 383 1014 367 l 353 443 q 158 510 225 458 q 90 653 90 563 l 90 750 q 157 913 90 853 q 354 972 224 972 l 1156 972 l 1156 869 l 1099 813 l 389 813 q 298 788 325 813 q 271 713 271 763 l 271 697 q 306 631 271 654 q 414 600 342 608 l 935 540 q 1128 470 1061 526 q 1194 324 1194 414 l 1194 222 q 1128 60 1194 119 q 931 0 1061 0 l 92 0 m 696 1069 l 529 1069 l 640 1278 l 856 1278 l 696 1069 z "},"Š":{"ha":1271,"x_min":90,"x_max":1194,"o":"m 92 0 l 92 160 l 896 160 q 987 185 960 160 q 1014 264 1014 211 l 1014 279 q 871 383 1014 367 l 353 443 q 158 510 225 458 q 90 653 90 563 l 90 750 q 157 913 90 853 q 354 972 224 972 l 1156 972 l 1156 869 l 1099 813 l 389 813 q 298 788 325 813 q 271 713 271 763 l 271 697 q 306 631 271 654 q 414 600 342 608 l 935 540 q 1128 470 1061 526 q 1194 324 1194 414 l 1194 222 q 1128 60 1194 119 q 931 0 1061 0 l 92 0 m 731 1069 l 550 1069 l 326 1278 l 507 1278 l 636 1156 l 644 1156 l 774 1278 l 954 1278 l 731 1069 z "},"Ş":{"ha":1271,"x_min":90,"x_max":1194,"o":"m 935 540 q 1128 470 1061 526 q 1194 324 1194 414 l 1194 222 q 1128 60 1194 119 q 931 0 1061 0 l 661 0 l 643 -62 l 696 -62 q 808 -93 768 -62 q 849 -181 849 -124 l 849 -208 q 808 -296 849 -265 q 696 -326 768 -326 l 481 -326 l 481 -229 l 685 -229 q 724 -201 724 -229 l 724 -187 q 685 -160 724 -160 l 540 -160 l 499 -125 l 536 0 l 92 0 l 92 160 l 896 160 q 987 185 960 160 q 1014 264 1014 211 l 1014 279 q 871 383 1014 367 l 353 443 q 158 510 225 458 q 90 653 90 563 l 90 750 q 157 913 90 853 q 354 972 224 972 l 1156 972 l 1156 869 l 1099 813 l 389 813 q 298 788 325 813 q 271 713 271 763 l 271 697 q 306 631 271 654 q 414 600 342 608 l 935 540 z "},"Ŝ":{"ha":1271,"x_min":90,"x_max":1194,"o":"m 92 0 l 92 160 l 896 160 q 987 185 960 160 q 1014 264 1014 211 l 1014 279 q 871 383 1014 367 l 353 443 q 158 510 225 458 q 90 653 90 563 l 90 750 q 157 913 90 853 q 354 972 224 972 l 1156 972 l 1156 869 l 1099 813 l 389 813 q 298 788 325 813 q 271 713 271 763 l 271 697 q 306 631 271 654 q 414 600 342 608 l 935 540 q 1128 470 1061 526 q 1194 324 1194 414 l 1194 222 q 1128 60 1194 119 q 931 0 1061 0 l 92 0 m 501 1069 l 326 1069 l 550 1278 l 731 1278 l 954 1069 l 779 1069 l 643 1192 l 636 1192 l 501 1069 z "},"Ș":{"ha":1271,"x_min":90,"x_max":1194,"o":"m 92 0 l 92 160 l 896 160 q 987 185 960 160 q 1014 264 1014 211 l 1014 279 q 871 383 1014 367 l 353 443 q 158 510 225 458 q 90 653 90 563 l 90 750 q 157 913 90 853 q 354 972 224 972 l 1156 972 l 1156 869 l 1099 813 l 389 813 q 298 788 325 813 q 271 713 271 763 l 271 697 q 306 631 271 654 q 414 600 342 608 l 935 540 q 1128 470 1061 526 q 1194 324 1194 414 l 1194 222 q 1128 60 1194 119 q 931 0 1061 0 l 92 0 m 618 -389 l 528 -389 l 528 -90 l 694 -90 l 694 -231 l 618 -389 z "},"ẞ":{"ha":1361,"x_min":125,"x_max":1264,"o":"m 1000 563 q 1197 503 1131 563 q 1264 340 1264 443 l 1264 222 q 1197 60 1264 119 q 1000 0 1131 0 l 618 0 l 618 160 l 965 160 q 1056 185 1029 160 q 1083 264 1083 211 l 1083 306 q 1056 384 1083 358 q 965 410 1029 410 l 597 410 l 597 547 l 932 806 l 932 813 l 424 813 q 333 788 360 813 q 306 710 306 763 l 306 0 l 125 0 l 125 750 q 192 913 125 853 q 389 972 258 972 l 1197 972 l 1197 821 l 872 569 l 872 563 l 1000 563 z "},"Ŧ":{"ha":1208,"x_min":35,"x_max":1174,"o":"m 35 813 l 35 972 l 1174 972 l 1174 869 l 1117 813 l 694 813 l 694 549 l 1056 549 l 1056 396 l 694 396 l 694 0 l 514 0 l 514 396 l 153 396 l 153 549 l 514 549 l 514 813 l 35 813 z "},"Ť":{"ha":1208,"x_min":35,"x_max":1174,"o":"m 694 0 l 514 0 l 514 813 l 35 813 l 35 972 l 1174 972 l 1174 869 l 1117 813 l 694 813 l 694 0 m 694 1069 l 514 1069 l 290 1278 l 471 1278 l 600 1156 l 608 1156 l 738 1278 l 918 1278 l 694 1069 z "},"Ţ":{"ha":1208,"x_min":35,"x_max":1174,"o":"m 35 972 l 1174 972 l 1174 869 l 1117 813 l 694 813 l 694 0 l 654 0 l 636 -62 l 689 -62 q 801 -93 761 -62 q 842 -181 842 -124 l 842 -208 q 801 -296 842 -265 q 689 -326 761 -326 l 474 -326 l 474 -229 l 678 -229 q 717 -201 717 -229 l 717 -187 q 678 -160 717 -160 l 533 -160 l 492 -125 l 529 0 l 514 0 l 514 813 l 35 813 l 35 972 z "},"Ț":{"ha":1208,"x_min":35,"x_max":1174,"o":"m 694 0 l 514 0 l 514 813 l 35 813 l 35 972 l 1174 972 l 1174 869 l 1117 813 l 694 813 l 694 0 m 611 -389 l 521 -389 l 521 -90 l 688 -90 l 688 -231 l 611 -389 z "},"Ú":{"ha":1403,"x_min":125,"x_max":1278,"o":"m 389 -14 q 192 46 258 -14 q 125 208 125 106 l 125 972 l 306 972 l 306 250 q 333 172 306 197 q 424 146 360 146 l 979 146 q 1070 172 1043 146 q 1097 250 1097 197 l 1097 972 l 1278 972 l 1278 208 q 1211 46 1278 106 q 1014 -14 1144 -14 l 389 -14 m 757 1069 l 590 1069 l 701 1278 l 917 1278 l 757 1069 z "},"Ʉ":{"ha":1431,"x_min":-7,"x_max":1438,"o":"m 1438 632 l 1438 479 l 1292 479 l 1292 208 q 1225 46 1292 106 q 1028 -14 1158 -14 l 403 -14 q 206 46 272 -14 q 139 208 139 106 l 139 479 l -7 479 l -7 632 l 139 632 l 139 972 l 319 972 l 319 632 l 1111 632 l 1111 972 l 1292 972 l 1292 632 l 1438 632 m 1111 479 l 319 479 l 319 250 q 347 172 319 197 q 438 146 374 146 l 993 146 q 1084 172 1057 146 q 1111 250 1111 197 l 1111 479 z "},"Ŭ":{"ha":1403,"x_min":125,"x_max":1278,"o":"m 389 -14 q 192 46 258 -14 q 125 208 125 106 l 125 972 l 306 972 l 306 250 q 333 172 306 197 q 424 146 360 146 l 979 146 q 1070 172 1043 146 q 1097 250 1097 197 l 1097 972 l 1278 972 l 1278 208 q 1211 46 1278 106 q 1014 -14 1144 -14 l 389 -14 m 558 1069 q 439 1103 482 1069 q 396 1194 396 1138 l 396 1278 l 556 1278 l 556 1242 q 569 1205 556 1215 q 617 1194 583 1194 l 786 1194 q 833 1205 819 1194 q 847 1242 847 1215 l 847 1278 l 1007 1278 l 1007 1194 q 964 1103 1007 1138 q 844 1069 921 1069 l 558 1069 z "},"Û":{"ha":1403,"x_min":125,"x_max":1278,"o":"m 389 -14 q 192 46 258 -14 q 125 208 125 106 l 125 972 l 306 972 l 306 250 q 333 172 306 197 q 424 146 360 146 l 979 146 q 1070 172 1043 146 q 1097 250 1097 197 l 1097 972 l 1278 972 l 1278 208 q 1211 46 1278 106 q 1014 -14 1144 -14 l 389 -14 m 563 1069 l 388 1069 l 611 1278 l 792 1278 l 1015 1069 l 840 1069 l 704 1192 l 697 1192 l 563 1069 z "},"Ü":{"ha":1403,"x_min":125,"x_max":1278,"o":"m 389 -14 q 192 46 258 -14 q 125 208 125 106 l 125 972 l 306 972 l 306 250 q 333 172 306 197 q 424 146 360 146 l 979 146 q 1070 172 1043 146 q 1097 250 1097 197 l 1097 972 l 1278 972 l 1278 208 q 1211 46 1278 106 q 1014 -14 1144 -14 l 389 -14 m 611 1083 l 444 1083 l 444 1257 l 611 1257 l 611 1083 m 958 1083 l 792 1083 l 792 1257 l 958 1257 l 958 1083 z "},"Ù":{"ha":1403,"x_min":125,"x_max":1278,"o":"m 389 -14 q 192 46 258 -14 q 125 208 125 106 l 125 972 l 306 972 l 306 250 q 333 172 306 197 q 424 146 360 146 l 979 146 q 1070 172 1043 146 q 1097 250 1097 197 l 1097 972 l 1278 972 l 1278 208 q 1211 46 1278 106 q 1014 -14 1144 -14 l 389 -14 m 813 1069 l 646 1069 l 486 1278 l 701 1278 l 813 1069 z "},"Ű":{"ha":1403,"x_min":125,"x_max":1278,"o":"m 389 -14 q 192 46 258 -14 q 125 208 125 106 l 125 972 l 306 972 l 306 250 q 333 172 306 197 q 424 146 360 146 l 979 146 q 1070 172 1043 146 q 1097 250 1097 197 l 1097 972 l 1278 972 l 1278 208 q 1211 46 1278 106 q 1014 -14 1144 -14 l 389 -14 m 594 1069 l 456 1069 l 603 1278 l 776 1278 l 594 1069 m 914 1069 l 775 1069 l 922 1278 l 1096 1278 l 914 1069 z "},"Ū":{"ha":1403,"x_min":125,"x_max":1278,"o":"m 389 -14 q 192 46 258 -14 q 125 208 125 106 l 125 972 l 306 972 l 306 250 q 333 172 306 197 q 424 146 360 146 l 979 146 q 1070 172 1043 146 q 1097 250 1097 197 l 1097 972 l 1278 972 l 1278 208 q 1211 46 1278 106 q 1014 -14 1144 -14 l 389 -14 m 1014 1111 l 389 1111 l 389 1243 l 1014 1243 l 1014 1111 z "},"Ų":{"ha":1403,"x_min":125,"x_max":1278,"o":"m 1097 972 l 1278 972 l 1278 208 q 1231 74 1278 124 q 1089 -14 1183 25 q 942 -92 1001 -50 q 883 -165 883 -133 q 894 -193 883 -185 q 935 -201 906 -201 l 1083 -201 l 1083 -312 l 914 -312 q 793 -282 836 -312 q 750 -194 750 -251 q 788 -99 750 -142 q 906 -14 826 -56 l 389 -14 q 192 46 258 -14 q 125 208 125 106 l 125 972 l 306 972 l 306 250 q 333 172 306 197 q 424 146 360 146 l 979 146 q 1070 172 1043 146 q 1097 250 1097 197 l 1097 972 z "},"Ů":{"ha":1403,"x_min":125,"x_max":1278,"o":"m 389 -14 q 192 46 258 -14 q 125 208 125 106 l 125 972 l 306 972 l 306 250 q 333 172 306 197 q 424 146 360 146 l 979 146 q 1070 172 1043 146 q 1097 250 1097 197 l 1097 972 l 1278 972 l 1278 208 q 1211 46 1278 106 q 1014 -14 1144 -14 l 389 -14 m 647 1028 q 528 1061 569 1028 q 486 1151 486 1094 l 486 1189 q 528 1279 486 1246 q 647 1313 569 1313 l 756 1313 q 875 1279 833 1313 q 917 1189 917 1246 l 917 1151 q 875 1061 917 1094 q 756 1028 833 1028 l 647 1028 m 746 1132 q 781 1140 771 1132 q 792 1165 792 1149 l 792 1175 q 781 1200 792 1192 q 746 1208 771 1208 l 657 1208 q 622 1200 632 1208 q 611 1175 611 1192 l 611 1165 q 622 1140 611 1149 q 657 1132 632 1132 l 746 1132 z "},"Ũ":{"ha":1403,"x_min":125,"x_max":1278,"o":"m 389 -14 q 192 46 258 -14 q 125 208 125 106 l 125 972 l 306 972 l 306 250 q 333 172 306 197 q 424 146 360 146 l 979 146 q 1070 172 1043 146 q 1097 250 1097 197 l 1097 972 l 1278 972 l 1278 208 q 1211 46 1278 106 q 1014 -14 1144 -14 l 389 -14 m 878 1063 q 772 1078 818 1063 q 669 1119 725 1093 q 611 1144 633 1136 q 568 1153 589 1153 q 538 1126 538 1153 l 538 1069 l 406 1069 l 406 1168 q 437 1249 406 1221 q 525 1278 468 1278 q 631 1263 585 1278 q 733 1221 678 1247 q 792 1196 769 1204 q 835 1188 814 1188 q 865 1214 865 1188 l 865 1271 l 997 1271 l 997 1172 q 966 1091 997 1119 q 878 1063 935 1063 z "},"Ǔ":{"ha":1403,"x_min":125,"x_max":1278,"o":"m 389 -14 q 192 46 258 -14 q 125 208 125 106 l 125 972 l 306 972 l 306 250 q 333 172 306 197 q 424 146 360 146 l 979 146 q 1070 172 1043 146 q 1097 250 1097 197 l 1097 972 l 1278 972 l 1278 208 q 1211 46 1278 106 q 1014 -14 1144 -14 l 389 -14 m 792 1069 l 611 1069 l 388 1278 l 568 1278 l 697 1156 l 706 1156 l 835 1278 l 1015 1278 l 792 1069 z "},"Ẃ":{"ha":1854,"x_min":49,"x_max":1806,"o":"m 593 0 l 389 0 l 49 875 l 49 972 l 229 972 l 490 222 l 501 222 l 822 972 l 1032 972 l 1353 222 l 1364 222 l 1625 972 l 1806 972 l 1806 875 l 1465 0 l 1261 0 l 933 764 l 921 764 l 593 0 m 985 1069 l 818 1069 l 929 1278 l 1144 1278 l 985 1069 z "},"Ŵ":{"ha":1854,"x_min":49,"x_max":1806,"o":"m 593 0 l 389 0 l 49 875 l 49 972 l 229 972 l 490 222 l 501 222 l 822 972 l 1032 972 l 1353 222 l 1364 222 l 1625 972 l 1806 972 l 1806 875 l 1465 0 l 1261 0 l 933 764 l 921 764 l 593 0 m 790 1069 l 615 1069 l 839 1278 l 1019 1278 l 1243 1069 l 1068 1069 l 932 1192 l 925 1192 l 790 1069 z "},"Ẅ":{"ha":1854,"x_min":49,"x_max":1806,"o":"m 593 0 l 389 0 l 49 875 l 49 972 l 229 972 l 490 222 l 501 222 l 822 972 l 1032 972 l 1353 222 l 1364 222 l 1625 972 l 1806 972 l 1806 875 l 1465 0 l 1261 0 l 933 764 l 921 764 l 593 0 m 839 1083 l 672 1083 l 672 1257 l 839 1257 l 839 1083 m 1186 1083 l 1019 1083 l 1019 1257 l 1186 1257 l 1186 1083 z "},"Ẁ":{"ha":1854,"x_min":49,"x_max":1806,"o":"m 593 0 l 389 0 l 49 875 l 49 972 l 229 972 l 490 222 l 501 222 l 822 972 l 1032 972 l 1353 222 l 1364 222 l 1625 972 l 1806 972 l 1806 875 l 1465 0 l 1261 0 l 933 764 l 921 764 l 593 0 m 1040 1069 l 874 1069 l 714 1278 l 929 1278 l 1040 1069 z "},"Ẍ":{"ha":1292,"x_min":56,"x_max":1236,"o":"m 222 0 l 56 0 l 56 97 l 511 488 l 90 875 l 90 972 l 257 972 l 639 604 l 653 604 l 1035 972 l 1201 972 l 1201 875 l 781 497 l 1236 97 l 1236 0 l 1069 0 l 653 376 l 639 376 l 222 0 m 556 1083 l 389 1083 l 389 1257 l 556 1257 l 556 1083 m 903 1083 l 736 1083 l 736 1257 l 903 1257 l 903 1083 z "},"Ý":{"ha":1264,"x_min":42,"x_max":1222,"o":"m 722 0 l 542 0 l 542 317 l 42 875 l 42 972 l 201 972 l 625 490 l 639 490 l 1063 972 l 1222 972 l 1222 875 l 722 317 l 722 0 m 688 1069 l 521 1069 l 632 1278 l 847 1278 l 688 1069 z "},"Ŷ":{"ha":1264,"x_min":42,"x_max":1222,"o":"m 722 0 l 542 0 l 542 317 l 42 875 l 42 972 l 201 972 l 625 490 l 639 490 l 1063 972 l 1222 972 l 1222 875 l 722 317 l 722 0 m 493 1069 l 318 1069 l 542 1278 l 722 1278 l 946 1069 l 771 1069 l 635 1192 l 628 1192 l 493 1069 z "},"Ÿ":{"ha":1264,"x_min":42,"x_max":1222,"o":"m 722 0 l 542 0 l 542 317 l 42 875 l 42 972 l 201 972 l 625 490 l 639 490 l 1063 972 l 1222 972 l 1222 875 l 722 317 l 722 0 m 542 1083 l 375 1083 l 375 1257 l 542 1257 l 542 1083 m 889 1083 l 722 1083 l 722 1257 l 889 1257 l 889 1083 z "},"Ỳ":{"ha":1264,"x_min":42,"x_max":1222,"o":"m 722 0 l 542 0 l 542 317 l 42 875 l 42 972 l 201 972 l 625 490 l 639 490 l 1063 972 l 1222 972 l 1222 875 l 722 317 l 722 0 m 743 1069 l 576 1069 l 417 1278 l 632 1278 l 743 1069 z "},"Ȳ":{"ha":1264,"x_min":42,"x_max":1222,"o":"m 722 0 l 542 0 l 542 317 l 42 875 l 42 972 l 201 972 l 625 490 l 639 490 l 1063 972 l 1222 972 l 1222 875 l 722 317 l 722 0 m 944 1111 l 319 1111 l 319 1243 l 944 1243 l 944 1111 z "},"Ỹ":{"ha":1264,"x_min":42,"x_max":1222,"o":"m 722 0 l 542 0 l 542 317 l 42 875 l 42 972 l 201 972 l 625 490 l 639 490 l 1063 972 l 1222 972 l 1222 875 l 722 317 l 722 0 m 808 1063 q 702 1078 749 1063 q 600 1119 656 1093 q 542 1144 564 1136 q 499 1153 519 1153 q 468 1126 468 1153 l 468 1069 l 336 1069 l 336 1168 q 367 1249 336 1221 q 456 1278 399 1278 q 562 1263 515 1278 q 664 1221 608 1247 q 722 1196 700 1204 q 765 1188 744 1188 q 796 1214 796 1188 l 796 1271 l 928 1271 l 928 1172 q 897 1091 928 1119 q 808 1063 865 1063 z "},"Ź":{"ha":1222,"x_min":63,"x_max":1160,"o":"m 1160 0 l 63 0 l 63 153 l 876 806 l 876 813 l 140 813 l 83 869 l 83 972 l 1160 972 l 1160 819 l 346 167 l 346 160 l 1160 160 l 1160 0 m 678 1069 l 511 1069 l 622 1278 l 838 1278 l 678 1069 z "},"Ž":{"ha":1222,"x_min":63,"x_max":1160,"o":"m 1160 0 l 63 0 l 63 153 l 876 806 l 876 813 l 140 813 l 83 869 l 83 972 l 1160 972 l 1160 819 l 346 167 l 346 160 l 1160 160 l 1160 0 m 713 1069 l 532 1069 l 308 1278 l 489 1278 l 618 1156 l 626 1156 l 756 1278 l 936 1278 l 713 1069 z "},"Ż":{"ha":1222,"x_min":63,"x_max":1160,"o":"m 1160 0 l 63 0 l 63 153 l 876 806 l 876 813 l 140 813 l 83 869 l 83 972 l 1160 972 l 1160 819 l 346 167 l 346 160 l 1160 160 l 1160 0 m 706 1083 l 539 1083 l 539 1257 l 706 1257 l 706 1083 z "},"á":{"ha":1014,"x_min":76,"x_max":917,"o":"m 310 -14 q 186 13 239 -14 q 105 86 133 40 q 76 188 76 132 l 76 222 q 105 324 76 278 q 186 397 133 369 q 310 424 239 424 l 750 424 l 750 456 q 639 549 750 549 l 160 549 l 160 701 l 683 701 q 807 674 754 701 q 888 601 860 647 q 917 500 917 556 l 917 0 l 799 0 l 771 76 l 763 76 q 549 -14 690 -14 l 310 -14 m 575 139 q 705 172 660 139 q 750 267 750 204 l 750 285 l 333 285 q 267 269 290 285 q 243 222 243 253 l 243 201 q 267 155 243 171 q 333 139 290 139 l 575 139 m 572 819 l 406 819 l 517 1028 l 732 1028 l 572 819 z "},"ă":{"ha":1014,"x_min":76,"x_max":917,"o":"m 310 -14 q 186 13 239 -14 q 105 86 133 40 q 76 188 76 132 l 76 222 q 105 324 76 278 q 186 397 133 369 q 310 424 239 424 l 750 424 l 750 456 q 639 549 750 549 l 160 549 l 160 701 l 683 701 q 807 674 754 701 q 888 601 860 647 q 917 500 917 556 l 917 0 l 799 0 l 771 76 l 763 76 q 549 -14 690 -14 l 310 -14 m 575 139 q 705 172 660 139 q 750 267 750 204 l 750 285 l 333 285 q 267 269 290 285 q 243 222 243 253 l 243 201 q 267 155 243 171 q 333 139 290 139 l 575 139 m 374 819 q 254 853 297 819 q 211 944 211 888 l 211 1028 l 371 1028 l 371 992 q 385 955 371 965 q 432 944 399 944 l 601 944 q 649 955 635 944 q 663 992 663 965 l 663 1028 l 822 1028 l 822 944 q 779 853 822 888 q 660 819 736 819 l 374 819 z "},"â":{"ha":1014,"x_min":76,"x_max":917,"o":"m 310 -14 q 186 13 239 -14 q 105 86 133 40 q 76 188 76 132 l 76 222 q 105 324 76 278 q 186 397 133 369 q 310 424 239 424 l 750 424 l 750 456 q 639 549 750 549 l 160 549 l 160 701 l 683 701 q 807 674 754 701 q 888 601 860 647 q 917 500 917 556 l 917 0 l 799 0 l 771 76 l 763 76 q 549 -14 690 -14 l 310 -14 m 575 139 q 705 172 660 139 q 750 267 750 204 l 750 285 l 333 285 q 267 269 290 285 q 243 222 243 253 l 243 201 q 267 155 243 171 q 333 139 290 139 l 575 139 m 378 819 l 203 819 l 426 1028 l 607 1028 l 831 819 l 656 819 l 519 942 l 513 942 l 378 819 z "},"ä":{"ha":1014,"x_min":76,"x_max":917,"o":"m 310 -14 q 186 13 239 -14 q 105 86 133 40 q 76 188 76 132 l 76 222 q 105 324 76 278 q 186 397 133 369 q 310 424 239 424 l 750 424 l 750 456 q 639 549 750 549 l 160 549 l 160 701 l 683 701 q 807 674 754 701 q 888 601 860 647 q 917 500 917 556 l 917 0 l 799 0 l 771 76 l 763 76 q 549 -14 690 -14 l 310 -14 m 575 139 q 705 172 660 139 q 750 267 750 204 l 750 285 l 333 285 q 267 269 290 285 q 243 222 243 253 l 243 201 q 267 155 243 171 q 333 139 290 139 l 575 139 m 426 833 l 260 833 l 260 1007 l 426 1007 l 426 833 m 774 833 l 607 833 l 607 1007 l 774 1007 l 774 833 z "},"à":{"ha":1014,"x_min":76,"x_max":917,"o":"m 310 -14 q 186 13 239 -14 q 105 86 133 40 q 76 188 76 132 l 76 222 q 105 324 76 278 q 186 397 133 369 q 310 424 239 424 l 750 424 l 750 456 q 639 549 750 549 l 160 549 l 160 701 l 683 701 q 807 674 754 701 q 888 601 860 647 q 917 500 917 556 l 917 0 l 799 0 l 771 76 l 763 76 q 549 -14 690 -14 l 310 -14 m 575 139 q 705 172 660 139 q 750 267 750 204 l 750 285 l 333 285 q 267 269 290 285 q 243 222 243 253 l 243 201 q 267 155 243 171 q 333 139 290 139 l 575 139 m 628 819 l 461 819 l 301 1028 l 517 1028 l 628 819 z "},"ā":{"ha":1014,"x_min":76,"x_max":917,"o":"m 310 -14 q 186 13 239 -14 q 105 86 133 40 q 76 188 76 132 l 76 222 q 105 324 76 278 q 186 397 133 369 q 310 424 239 424 l 750 424 l 750 456 q 639 549 750 549 l 160 549 l 160 701 l 683 701 q 807 674 754 701 q 888 601 860 647 q 917 500 917 556 l 917 0 l 799 0 l 771 76 l 763 76 q 549 -14 690 -14 l 310 -14 m 575 139 q 705 172 660 139 q 750 267 750 204 l 750 285 l 333 285 q 267 269 290 285 q 243 222 243 253 l 243 201 q 267 155 243 171 q 333 139 290 139 l 575 139 m 829 861 l 204 861 l 204 993 l 829 993 l 829 861 z "},"ą":{"ha":1014,"x_min":76,"x_max":917,"o":"m 917 0 q 772 -94 826 -53 q 717 -165 717 -135 q 728 -193 717 -185 q 768 -201 739 -201 l 917 -201 l 917 -312 l 747 -312 q 626 -282 669 -312 q 583 -194 583 -251 q 634 -84 583 -133 q 794 13 685 -35 l 771 76 l 763 76 q 549 -14 690 -14 l 310 -14 q 186 13 239 -14 q 105 86 133 40 q 76 188 76 132 l 76 222 q 105 324 76 278 q 186 397 133 369 q 310 424 239 424 l 750 424 l 750 456 q 639 549 750 549 l 160 549 l 160 701 l 683 701 q 807 674 754 701 q 888 601 860 647 q 917 500 917 556 l 917 0 m 750 285 l 333 285 q 267 269 290 285 q 243 222 243 253 l 243 201 q 267 155 243 171 q 333 139 290 139 l 575 139 q 705 172 660 139 q 750 267 750 204 l 750 285 z "},"ǎ":{"ha":1014,"x_min":76,"x_max":917,"o":"m 310 -14 q 186 13 239 -14 q 105 86 133 40 q 76 188 76 132 l 76 222 q 105 324 76 278 q 186 397 133 369 q 310 424 239 424 l 750 424 l 750 456 q 639 549 750 549 l 160 549 l 160 701 l 683 701 q 807 674 754 701 q 888 601 860 647 q 917 500 917 556 l 917 0 l 799 0 l 771 76 l 763 76 q 549 -14 690 -14 l 310 -14 m 575 139 q 705 172 660 139 q 750 267 750 204 l 750 285 l 333 285 q 267 269 290 285 q 243 222 243 253 l 243 201 q 267 155 243 171 q 333 139 290 139 l 575 139 m 607 819 l 426 819 l 203 1028 l 383 1028 l 513 906 l 521 906 l 650 1028 l 831 1028 l 607 819 z "},"ã":{"ha":1014,"x_min":76,"x_max":917,"o":"m 310 -14 q 186 13 239 -14 q 105 86 133 40 q 76 188 76 132 l 76 222 q 105 324 76 278 q 186 397 133 369 q 310 424 239 424 l 750 424 l 750 456 q 639 549 750 549 l 160 549 l 160 701 l 683 701 q 807 674 754 701 q 888 601 860 647 q 917 500 917 556 l 917 0 l 799 0 l 771 76 l 763 76 q 549 -14 690 -14 l 310 -14 m 575 139 q 705 172 660 139 q 750 267 750 204 l 750 285 l 333 285 q 267 269 290 285 q 243 222 243 253 l 243 201 q 267 155 243 171 q 333 139 290 139 l 575 139 m 693 813 q 587 828 633 813 q 485 869 540 843 q 426 894 449 886 q 383 903 404 903 q 353 876 353 903 l 353 819 l 221 819 l 221 918 q 252 999 221 971 q 340 1028 283 1028 q 447 1013 400 1028 q 549 971 493 997 q 607 946 585 954 q 650 938 629 938 q 681 964 681 938 l 681 1021 l 813 1021 l 813 922 q 781 841 813 869 q 693 813 750 813 z "},"å":{"ha":1014,"x_min":76,"x_max":917,"o":"m 310 -14 q 186 13 239 -14 q 105 86 133 40 q 76 188 76 132 l 76 222 q 105 324 76 278 q 186 397 133 369 q 310 424 239 424 l 750 424 l 750 456 q 639 549 750 549 l 160 549 l 160 701 l 683 701 q 807 674 754 701 q 888 601 860 647 q 917 500 917 556 l 917 0 l 799 0 l 771 76 l 763 76 q 549 -14 690 -14 l 310 -14 m 575 139 q 705 172 660 139 q 750 267 750 204 l 750 285 l 333 285 q 267 269 290 285 q 243 222 243 253 l 243 201 q 267 155 243 171 q 333 139 290 139 l 575 139 m 463 778 q 343 811 385 778 q 301 901 301 844 l 301 939 q 343 1029 301 996 q 463 1063 385 1063 l 571 1063 q 690 1029 649 1063 q 732 939 732 996 l 732 901 q 690 811 732 844 q 571 778 649 778 l 463 778 m 561 882 q 597 890 586 882 q 607 915 607 899 l 607 925 q 597 950 607 942 q 561 958 586 958 l 472 958 q 437 950 447 958 q 426 925 426 942 l 426 915 q 437 890 426 899 q 472 882 447 882 l 561 882 z "},"ǻ":{"ha":1014,"x_min":76,"x_max":917,"o":"m 310 -14 q 186 13 239 -14 q 105 86 133 40 q 76 188 76 132 l 76 222 q 105 324 76 278 q 186 397 133 369 q 310 424 239 424 l 750 424 l 750 456 q 639 549 750 549 l 160 549 l 160 701 l 683 701 q 807 674 754 701 q 888 601 860 647 q 917 500 917 556 l 917 0 l 799 0 l 771 76 l 763 76 q 549 -14 690 -14 l 310 -14 m 575 139 q 705 172 660 139 q 750 267 750 204 l 750 285 l 333 285 q 267 269 290 285 q 243 222 243 253 l 243 201 q 267 155 243 171 q 333 139 290 139 l 575 139 m 608 1060 q 701 1021 669 1053 q 733 939 733 989 l 733 901 q 692 811 733 844 q 572 778 650 778 l 464 778 q 344 811 386 778 q 303 901 303 844 l 303 939 q 338 1023 303 990 q 438 1061 372 1056 l 496 1188 l 711 1188 l 608 1060 m 608 925 q 598 950 608 942 q 563 958 588 958 l 474 958 q 438 950 449 958 q 428 925 428 942 l 428 915 q 438 890 428 899 q 474 882 449 882 l 563 882 q 598 890 588 882 q 608 915 608 899 l 608 925 z "},"æ":{"ha":1660,"x_min":76,"x_max":1569,"o":"m 310 -14 q 186 13 239 -14 q 105 86 133 40 q 76 188 76 132 l 76 229 q 105 331 76 285 q 186 403 133 376 q 310 431 239 431 l 722 431 l 722 456 q 611 549 722 549 l 149 549 l 149 701 l 603 701 q 725 680 674 701 q 797 625 776 658 l 808 625 q 886 689 832 663 q 1013 715 940 715 l 1336 715 q 1460 688 1407 715 q 1541 615 1513 661 q 1569 514 1569 569 l 1569 285 l 889 285 l 889 246 q 1000 153 889 153 l 1535 153 l 1535 0 l 1004 0 q 884 22 935 0 q 810 76 833 44 l 797 76 q 717 13 774 40 q 588 -14 661 -14 l 310 -14 m 889 431 l 1403 431 l 1403 469 q 1292 563 1403 563 l 1000 563 q 889 469 889 563 l 889 431 m 547 139 q 677 172 632 139 q 722 267 722 204 l 722 285 l 333 285 q 267 269 290 285 q 243 222 243 253 l 243 201 q 267 155 243 171 q 333 139 290 139 l 547 139 z "},"ǽ":{"ha":1660,"x_min":76,"x_max":1569,"o":"m 310 -14 q 186 13 239 -14 q 105 86 133 40 q 76 188 76 132 l 76 229 q 105 331 76 285 q 186 403 133 376 q 310 431 239 431 l 722 431 l 722 456 q 611 549 722 549 l 149 549 l 149 701 l 603 701 q 725 680 674 701 q 797 625 776 658 l 808 625 q 886 689 832 663 q 1013 715 940 715 l 1336 715 q 1460 688 1407 715 q 1541 615 1513 661 q 1569 514 1569 569 l 1569 285 l 889 285 l 889 246 q 1000 153 889 153 l 1535 153 l 1535 0 l 1004 0 q 884 22 935 0 q 810 76 833 44 l 797 76 q 717 13 774 40 q 588 -14 661 -14 l 310 -14 m 889 431 l 1403 431 l 1403 469 q 1292 563 1403 563 l 1000 563 q 889 469 889 563 l 889 431 m 547 139 q 677 172 632 139 q 722 267 722 204 l 722 285 l 333 285 q 267 269 290 285 q 243 222 243 253 l 243 201 q 267 155 243 171 q 333 139 290 139 l 547 139 m 885 819 l 718 819 l 829 1028 l 1044 1028 l 885 819 z "},"ć":{"ha":924,"x_min":90,"x_max":854,"o":"m 324 0 q 200 27 253 0 q 119 100 147 54 q 90 201 90 146 l 90 500 q 119 601 90 556 q 200 674 147 647 q 324 701 253 701 l 854 701 l 854 604 l 799 549 l 368 549 q 257 456 257 549 l 257 246 q 368 153 257 153 l 854 153 l 854 0 l 324 0 m 565 819 l 399 819 l 510 1028 l 725 1028 l 565 819 z "},"č":{"ha":924,"x_min":90,"x_max":854,"o":"m 324 0 q 200 27 253 0 q 119 100 147 54 q 90 201 90 146 l 90 500 q 119 601 90 556 q 200 674 147 647 q 324 701 253 701 l 854 701 l 854 604 l 799 549 l 368 549 q 257 456 257 549 l 257 246 q 368 153 257 153 l 854 153 l 854 0 l 324 0 m 600 819 l 419 819 l 196 1028 l 376 1028 l 506 906 l 514 906 l 643 1028 l 824 1028 l 600 819 z "},"ç":{"ha":924,"x_min":90,"x_max":854,"o":"m 368 549 q 257 456 257 549 l 257 246 q 368 153 257 153 l 854 153 l 854 0 l 560 0 l 542 -62 l 594 -62 q 707 -93 667 -62 q 747 -181 747 -124 l 747 -208 q 707 -296 747 -265 q 594 -326 667 -326 l 379 -326 l 379 -229 l 583 -229 q 622 -201 622 -229 l 622 -187 q 583 -160 622 -160 l 439 -160 l 397 -125 l 435 0 l 324 0 q 200 27 253 0 q 119 100 147 54 q 90 201 90 146 l 90 500 q 119 601 90 556 q 200 674 147 647 q 324 701 253 701 l 854 701 l 854 604 l 799 549 l 368 549 z "},"ĉ":{"ha":924,"x_min":90,"x_max":854,"o":"m 324 0 q 200 27 253 0 q 119 100 147 54 q 90 201 90 146 l 90 500 q 119 601 90 556 q 200 674 147 647 q 324 701 253 701 l 854 701 l 854 604 l 799 549 l 368 549 q 257 456 257 549 l 257 246 q 368 153 257 153 l 854 153 l 854 0 l 324 0 m 371 819 l 196 819 l 419 1028 l 600 1028 l 824 819 l 649 819 l 513 942 l 506 942 l 371 819 z "},"ċ":{"ha":924,"x_min":90,"x_max":854,"o":"m 324 0 q 200 27 253 0 q 119 100 147 54 q 90 201 90 146 l 90 500 q 119 601 90 556 q 200 674 147 647 q 324 701 253 701 l 854 701 l 854 604 l 799 549 l 368 549 q 257 456 257 549 l 257 246 q 368 153 257 153 l 854 153 l 854 0 l 324 0 m 592 833 l 425 833 l 425 1007 l 592 1007 l 592 833 z "},"ð":{"ha":1069,"x_min":90,"x_max":965,"o":"m 693 911 q 895 836 825 894 q 965 661 965 778 l 965 188 q 937 86 965 132 q 856 13 908 40 q 732 -14 803 -14 l 324 -14 q 200 13 253 -14 q 119 86 147 40 q 90 188 90 132 l 90 417 q 119 518 90 472 q 200 591 147 564 q 324 618 253 618 l 597 618 q 790 535 725 618 l 799 535 l 799 653 q 769 722 799 697 q 650 758 739 747 l 472 781 l 451 681 l 314 701 l 335 799 l 128 825 l 158 981 l 368 953 l 390 1056 l 526 1033 l 506 936 l 693 911 m 799 338 q 753 433 799 400 q 624 465 708 465 l 368 465 q 257 372 257 465 l 257 232 q 368 139 257 139 l 688 139 q 799 232 799 139 l 799 338 z "},"ď":{"ha":1076,"x_min":90,"x_max":1271,"o":"m 324 -14 q 200 13 253 -14 q 119 86 147 40 q 90 188 90 132 l 90 500 q 119 601 90 556 q 200 674 147 647 q 324 701 253 701 l 799 701 l 799 951 l 965 951 l 965 0 l 847 0 l 819 76 l 811 76 q 597 -14 739 -14 l 324 -14 m 624 139 q 753 172 708 139 q 799 267 799 204 l 799 549 l 368 549 q 257 456 257 549 l 257 232 q 368 139 257 139 l 624 139 m 1196 729 l 1104 729 l 1104 993 l 1271 993 l 1271 900 l 1196 729 z "},"đ":{"ha":1076,"x_min":83,"x_max":1139,"o":"m 1139 815 l 1139 671 l 958 671 l 958 0 l 840 0 l 813 76 l 804 76 q 590 -14 732 -14 l 317 -14 q 193 13 246 -14 q 112 86 140 40 q 83 188 83 132 l 83 375 q 112 476 83 431 q 193 549 140 522 q 317 576 246 576 l 792 576 l 792 671 l 486 671 l 486 815 l 792 815 l 792 951 l 958 951 l 958 815 l 1139 815 m 792 424 l 361 424 q 250 331 250 424 l 250 232 q 361 139 250 139 l 617 139 q 747 172 701 139 q 792 267 792 204 l 792 424 z "},"ǳ":{"ha":2007,"x_min":90,"x_max":1944,"o":"m 324 -14 q 200 13 253 -14 q 119 86 147 40 q 90 188 90 132 l 90 500 q 119 601 90 556 q 200 674 147 647 q 324 701 253 701 l 799 701 l 799 951 l 965 951 l 965 0 l 847 0 l 819 76 l 811 76 q 597 -14 739 -14 l 324 -14 m 624 139 q 753 172 708 139 q 799 267 799 204 l 799 549 l 368 549 q 257 456 257 549 l 257 232 q 368 139 257 139 l 624 139 m 1944 0 l 1132 0 l 1132 136 l 1657 542 l 1657 549 l 1201 549 l 1144 604 l 1144 701 l 1944 701 l 1944 567 l 1418 160 l 1418 153 l 1944 153 l 1944 0 z "},"ǆ":{"ha":2007,"x_min":90,"x_max":1944,"o":"m 324 -14 q 200 13 253 -14 q 119 86 147 40 q 90 188 90 132 l 90 500 q 119 601 90 556 q 200 674 147 647 q 324 701 253 701 l 799 701 l 799 951 l 965 951 l 965 0 l 847 0 l 819 76 l 811 76 q 597 -14 739 -14 l 324 -14 m 624 139 q 753 172 708 139 q 799 267 799 204 l 799 549 l 368 549 q 257 456 257 549 l 257 232 q 368 139 257 139 l 624 139 z "},"é":{"ha":1056,"x_min":90,"x_max":965,"o":"m 324 0 q 200 27 253 0 q 119 100 147 54 q 90 201 90 146 l 90 514 q 119 615 90 569 q 200 688 147 661 q 324 715 253 715 l 732 715 q 856 688 803 715 q 937 615 908 661 q 965 514 965 569 l 965 278 l 257 278 l 257 246 q 368 153 257 153 l 931 153 l 931 0 l 324 0 m 257 424 l 799 424 l 799 469 q 688 563 799 563 l 368 563 q 257 469 257 563 l 257 424 m 583 819 l 417 819 l 528 1028 l 743 1028 l 583 819 z "},"ĕ":{"ha":1056,"x_min":90,"x_max":965,"o":"m 324 0 q 200 27 253 0 q 119 100 147 54 q 90 201 90 146 l 90 514 q 119 615 90 569 q 200 688 147 661 q 324 715 253 715 l 732 715 q 856 688 803 715 q 937 615 908 661 q 965 514 965 569 l 965 278 l 257 278 l 257 246 q 368 153 257 153 l 931 153 l 931 0 l 324 0 m 257 424 l 799 424 l 799 469 q 688 563 799 563 l 368 563 q 257 469 257 563 l 257 424 m 385 819 q 265 853 308 819 q 222 944 222 888 l 222 1028 l 382 1028 l 382 992 q 396 955 382 965 q 443 944 410 944 l 613 944 q 660 955 646 944 q 674 992 674 965 l 674 1028 l 833 1028 l 833 944 q 790 853 833 888 q 671 819 747 819 l 385 819 z "},"ě":{"ha":1056,"x_min":90,"x_max":965,"o":"m 324 0 q 200 27 253 0 q 119 100 147 54 q 90 201 90 146 l 90 514 q 119 615 90 569 q 200 688 147 661 q 324 715 253 715 l 732 715 q 856 688 803 715 q 937 615 908 661 q 965 514 965 569 l 965 278 l 257 278 l 257 246 q 368 153 257 153 l 931 153 l 931 0 l 324 0 m 257 424 l 799 424 l 799 469 q 688 563 799 563 l 368 563 q 257 469 257 563 l 257 424 m 618 819 l 438 819 l 214 1028 l 394 1028 l 524 906 l 532 906 l 661 1028 l 842 1028 l 618 819 z "},"ê":{"ha":1056,"x_min":90,"x_max":965,"o":"m 324 0 q 200 27 253 0 q 119 100 147 54 q 90 201 90 146 l 90 514 q 119 615 90 569 q 200 688 147 661 q 324 715 253 715 l 732 715 q 856 688 803 715 q 937 615 908 661 q 965 514 965 569 l 965 278 l 257 278 l 257 246 q 368 153 257 153 l 931 153 l 931 0 l 324 0 m 257 424 l 799 424 l 799 469 q 688 563 799 563 l 368 563 q 257 469 257 563 l 257 424 m 389 819 l 214 819 l 438 1028 l 618 1028 l 842 819 l 667 819 l 531 942 l 524 942 l 389 819 z "},"ë":{"ha":1056,"x_min":90,"x_max":965,"o":"m 324 0 q 200 27 253 0 q 119 100 147 54 q 90 201 90 146 l 90 514 q 119 615 90 569 q 200 688 147 661 q 324 715 253 715 l 732 715 q 856 688 803 715 q 937 615 908 661 q 965 514 965 569 l 965 278 l 257 278 l 257 246 q 368 153 257 153 l 931 153 l 931 0 l 324 0 m 257 424 l 799 424 l 799 469 q 688 563 799 563 l 368 563 q 257 469 257 563 l 257 424 m 438 833 l 271 833 l 271 1007 l 438 1007 l 438 833 m 785 833 l 618 833 l 618 1007 l 785 1007 l 785 833 z "},"ė":{"ha":1056,"x_min":90,"x_max":965,"o":"m 324 0 q 200 27 253 0 q 119 100 147 54 q 90 201 90 146 l 90 514 q 119 615 90 569 q 200 688 147 661 q 324 715 253 715 l 732 715 q 856 688 803 715 q 937 615 908 661 q 965 514 965 569 l 965 278 l 257 278 l 257 246 q 368 153 257 153 l 931 153 l 931 0 l 324 0 m 257 424 l 799 424 l 799 469 q 688 563 799 563 l 368 563 q 257 469 257 563 l 257 424 m 610 833 l 443 833 l 443 1007 l 610 1007 l 610 833 z "},"è":{"ha":1056,"x_min":90,"x_max":965,"o":"m 324 0 q 200 27 253 0 q 119 100 147 54 q 90 201 90 146 l 90 514 q 119 615 90 569 q 200 688 147 661 q 324 715 253 715 l 732 715 q 856 688 803 715 q 937 615 908 661 q 965 514 965 569 l 965 278 l 257 278 l 257 246 q 368 153 257 153 l 931 153 l 931 0 l 324 0 m 257 424 l 799 424 l 799 469 q 688 563 799 563 l 368 563 q 257 469 257 563 l 257 424 m 639 819 l 472 819 l 313 1028 l 528 1028 l 639 819 z "},"ē":{"ha":1056,"x_min":90,"x_max":965,"o":"m 324 0 q 200 27 253 0 q 119 100 147 54 q 90 201 90 146 l 90 514 q 119 615 90 569 q 200 688 147 661 q 324 715 253 715 l 732 715 q 856 688 803 715 q 937 615 908 661 q 965 514 965 569 l 965 278 l 257 278 l 257 246 q 368 153 257 153 l 931 153 l 931 0 l 324 0 m 257 424 l 799 424 l 799 469 q 688 563 799 563 l 368 563 q 257 469 257 563 l 257 424 m 840 861 l 215 861 l 215 993 l 840 993 l 840 861 z "},"ę":{"ha":1056,"x_min":90,"x_max":965,"o":"m 965 278 l 257 278 l 257 246 q 368 153 257 153 l 931 153 l 931 0 q 785 -94 840 -53 q 731 -165 731 -135 q 742 -193 731 -185 q 782 -201 753 -201 l 931 -201 l 931 -312 l 761 -312 q 640 -282 683 -312 q 597 -194 597 -251 q 642 -91 597 -137 q 782 0 686 -44 l 324 0 q 200 27 253 0 q 119 100 147 54 q 90 201 90 146 l 90 514 q 119 615 90 569 q 200 688 147 661 q 324 715 253 715 l 732 715 q 856 688 803 715 q 937 615 908 661 q 965 514 965 569 l 965 278 m 257 424 l 799 424 l 799 469 q 688 563 799 563 l 368 563 q 257 469 257 563 l 257 424 z "},"ẽ":{"ha":1056,"x_min":90,"x_max":965,"o":"m 324 0 q 200 27 253 0 q 119 100 147 54 q 90 201 90 146 l 90 514 q 119 615 90 569 q 200 688 147 661 q 324 715 253 715 l 732 715 q 856 688 803 715 q 937 615 908 661 q 965 514 965 569 l 965 278 l 257 278 l 257 246 q 368 153 257 153 l 931 153 l 931 0 l 324 0 m 257 424 l 799 424 l 799 469 q 688 563 799 563 l 368 563 q 257 469 257 563 l 257 424 m 704 813 q 598 828 644 813 q 496 869 551 843 q 438 894 460 886 q 394 903 415 903 q 364 876 364 903 l 364 819 l 232 819 l 232 918 q 263 999 232 971 q 351 1028 294 1028 q 458 1013 411 1028 q 560 971 504 997 q 618 946 596 954 q 661 938 640 938 q 692 964 692 938 l 692 1021 l 824 1021 l 824 922 q 792 841 824 869 q 704 813 761 813 z "},"ə":{"ha":1049,"x_min":83,"x_max":958,"o":"m 317 -14 q 193 13 246 -14 q 112 86 140 40 q 83 188 83 132 l 83 424 l 792 424 l 792 456 q 681 549 792 549 l 174 549 l 118 604 l 118 701 l 725 701 q 849 674 796 701 q 930 601 901 647 q 958 500 958 556 l 958 188 q 930 86 958 132 q 849 13 901 40 q 725 -14 796 -14 l 317 -14 m 681 139 q 792 232 792 139 l 792 278 l 250 278 l 250 232 q 361 139 250 139 l 681 139 z "},"ǵ":{"ha":1056,"x_min":56,"x_max":1000,"o":"m 289 -250 q 160 -224 213 -250 q 82 -155 108 -197 q 56 -62 56 -112 l 56 -7 q 101 97 56 58 q 206 142 147 136 l 206 149 q 166 171 186 150 q 146 222 146 192 q 166 274 146 253 q 206 296 186 294 l 206 303 q 139 351 168 317 q 110 443 110 386 l 110 528 q 136 620 110 578 q 215 689 163 663 q 343 715 267 715 l 650 715 l 756 806 l 908 806 l 908 743 l 800 694 l 800 688 q 899 635 854 676 q 944 529 944 593 l 944 451 q 918 359 944 401 q 840 290 892 317 q 711 264 788 264 l 369 264 q 306 222 306 264 q 322 190 306 199 q 369 181 339 181 l 767 181 q 895 154 843 181 q 974 85 947 128 q 1000 -7 1000 43 l 1000 -62 q 974 -155 1000 -112 q 895 -224 947 -197 q 767 -250 843 -250 l 289 -250 m 689 417 q 756 430 733 417 q 778 468 778 443 l 778 511 q 756 549 778 536 q 689 563 733 563 l 365 563 q 299 549 321 563 q 276 511 276 536 l 276 468 q 299 430 276 443 q 365 417 321 417 l 689 417 m 744 -97 q 811 -84 789 -97 q 833 -46 833 -71 l 833 -24 q 811 15 833 1 q 744 28 789 28 l 311 28 q 244 15 267 28 q 222 -24 222 1 l 222 -46 q 244 -84 222 -71 q 311 -97 267 -97 l 744 -97 m 582 819 l 415 819 l 526 1028 l 742 1028 l 582 819 z "},"ğ":{"ha":1056,"x_min":56,"x_max":1000,"o":"m 289 -250 q 160 -224 213 -250 q 82 -155 108 -197 q 56 -62 56 -112 l 56 -7 q 101 97 56 58 q 206 142 147 136 l 206 149 q 166 171 186 150 q 146 222 146 192 q 166 274 146 253 q 206 296 186 294 l 206 303 q 139 351 168 317 q 110 443 110 386 l 110 528 q 136 620 110 578 q 215 689 163 663 q 343 715 267 715 l 650 715 l 756 806 l 908 806 l 908 743 l 800 694 l 800 688 q 899 635 854 676 q 944 529 944 593 l 944 451 q 918 359 944 401 q 840 290 892 317 q 711 264 788 264 l 369 264 q 306 222 306 264 q 322 190 306 199 q 369 181 339 181 l 767 181 q 895 154 843 181 q 974 85 947 128 q 1000 -7 1000 43 l 1000 -62 q 974 -155 1000 -112 q 895 -224 947 -197 q 767 -250 843 -250 l 289 -250 m 689 417 q 756 430 733 417 q 778 468 778 443 l 778 511 q 756 549 778 536 q 689 563 733 563 l 365 563 q 299 549 321 563 q 276 511 276 536 l 276 468 q 299 430 276 443 q 365 417 321 417 l 689 417 m 744 -97 q 811 -84 789 -97 q 833 -46 833 -71 l 833 -24 q 811 15 833 1 q 744 28 789 28 l 311 28 q 244 15 267 28 q 222 -24 222 1 l 222 -46 q 244 -84 222 -71 q 311 -97 267 -97 l 744 -97 m 383 819 q 264 853 307 819 q 221 944 221 888 l 221 1028 l 381 1028 l 381 992 q 394 955 381 965 q 442 944 408 944 l 611 944 q 658 955 644 944 q 672 992 672 965 l 672 1028 l 832 1028 l 832 944 q 789 853 832 888 q 669 819 746 819 l 383 819 z "},"ĝ":{"ha":1056,"x_min":56,"x_max":1000,"o":"m 289 -250 q 160 -224 213 -250 q 82 -155 108 -197 q 56 -62 56 -112 l 56 -7 q 101 97 56 58 q 206 142 147 136 l 206 149 q 166 171 186 150 q 146 222 146 192 q 166 274 146 253 q 206 296 186 294 l 206 303 q 139 351 168 317 q 110 443 110 386 l 110 528 q 136 620 110 578 q 215 689 163 663 q 343 715 267 715 l 650 715 l 756 806 l 908 806 l 908 743 l 800 694 l 800 688 q 899 635 854 676 q 944 529 944 593 l 944 451 q 918 359 944 401 q 840 290 892 317 q 711 264 788 264 l 369 264 q 306 222 306 264 q 322 190 306 199 q 369 181 339 181 l 767 181 q 895 154 843 181 q 974 85 947 128 q 1000 -7 1000 43 l 1000 -62 q 974 -155 1000 -112 q 895 -224 947 -197 q 767 -250 843 -250 l 289 -250 m 689 417 q 756 430 733 417 q 778 468 778 443 l 778 511 q 756 549 778 536 q 689 563 733 563 l 365 563 q 299 549 321 563 q 276 511 276 536 l 276 468 q 299 430 276 443 q 365 417 321 417 l 689 417 m 744 -97 q 811 -84 789 -97 q 833 -46 833 -71 l 833 -24 q 811 15 833 1 q 744 28 789 28 l 311 28 q 244 15 267 28 q 222 -24 222 1 l 222 -46 q 244 -84 222 -71 q 311 -97 267 -97 l 744 -97 m 388 819 l 213 819 l 436 1028 l 617 1028 l 840 819 l 665 819 l 529 942 l 522 942 l 388 819 z "},"ģ":{"ha":1056,"x_min":56,"x_max":1000,"o":"m 289 -250 q 160 -224 213 -250 q 82 -155 108 -197 q 56 -62 56 -112 l 56 -7 q 101 97 56 58 q 206 142 147 136 l 206 149 q 166 171 186 150 q 146 222 146 192 q 166 274 146 253 q 206 296 186 294 l 206 303 q 139 351 168 317 q 110 443 110 386 l 110 528 q 136 620 110 578 q 215 689 163 663 q 343 715 267 715 l 650 715 l 756 806 l 908 806 l 908 743 l 800 694 l 800 688 q 899 635 854 676 q 944 529 944 593 l 944 451 q 918 359 944 401 q 840 290 892 317 q 711 264 788 264 l 369 264 q 306 222 306 264 q 322 190 306 199 q 369 181 339 181 l 767 181 q 895 154 843 181 q 974 85 947 128 q 1000 -7 1000 43 l 1000 -62 q 974 -155 1000 -112 q 895 -224 947 -197 q 767 -250 843 -250 l 289 -250 m 689 417 q 756 430 733 417 q 778 468 778 443 l 778 511 q 756 549 778 536 q 689 563 733 563 l 365 563 q 299 549 321 563 q 276 511 276 536 l 276 468 q 299 430 276 443 q 365 417 321 417 l 689 417 m 744 -97 q 811 -84 789 -97 q 833 -46 833 -71 l 833 -24 q 811 15 833 1 q 744 28 789 28 l 311 28 q 244 15 267 28 q 222 -24 222 1 l 222 -46 q 244 -84 222 -71 q 311 -97 267 -97 l 744 -97 m 610 819 l 443 819 l 443 958 l 519 1125 l 610 1125 l 610 819 z "},"ġ":{"ha":1056,"x_min":56,"x_max":1000,"o":"m 289 -250 q 160 -224 213 -250 q 82 -155 108 -197 q 56 -62 56 -112 l 56 -7 q 101 97 56 58 q 206 142 147 136 l 206 149 q 166 171 186 150 q 146 222 146 192 q 166 274 146 253 q 206 296 186 294 l 206 303 q 139 351 168 317 q 110 443 110 386 l 110 528 q 136 620 110 578 q 215 689 163 663 q 343 715 267 715 l 650 715 l 756 806 l 908 806 l 908 743 l 800 694 l 800 688 q 899 635 854 676 q 944 529 944 593 l 944 451 q 918 359 944 401 q 840 290 892 317 q 711 264 788 264 l 369 264 q 306 222 306 264 q 322 190 306 199 q 369 181 339 181 l 767 181 q 895 154 843 181 q 974 85 947 128 q 1000 -7 1000 43 l 1000 -62 q 974 -155 1000 -112 q 895 -224 947 -197 q 767 -250 843 -250 l 289 -250 m 689 417 q 756 430 733 417 q 778 468 778 443 l 778 511 q 756 549 778 536 q 689 563 733 563 l 365 563 q 299 549 321 563 q 276 511 276 536 l 276 468 q 299 430 276 443 q 365 417 321 417 l 689 417 m 744 -97 q 811 -84 789 -97 q 833 -46 833 -71 l 833 -24 q 811 15 833 1 q 744 28 789 28 l 311 28 q 244 15 267 28 q 222 -24 222 1 l 222 -46 q 244 -84 222 -71 q 311 -97 267 -97 l 744 -97 m 608 833 l 442 833 l 442 1007 l 608 1007 l 608 833 z "},"ǧ":{"ha":1056,"x_min":56,"x_max":1000,"o":"m 617 819 l 436 819 l 213 1028 l 393 1028 l 522 906 l 531 906 l 660 1028 l 840 1028 l 617 819 m 289 -250 q 160 -224 213 -250 q 82 -155 108 -197 q 56 -62 56 -112 l 56 -7 q 98 94 56 51 q 206 142 140 136 l 206 149 q 164 173 182 151 q 146 222 146 194 q 164 272 146 250 q 206 296 182 293 l 206 303 q 135 357 161 319 q 110 443 110 394 l 110 528 q 136 620 110 578 q 215 689 163 663 q 343 715 267 715 l 650 715 l 756 833 l 908 833 l 908 743 l 800 694 l 800 688 q 903 630 863 675 q 944 529 944 585 l 944 451 q 918 359 944 401 q 840 290 892 317 q 711 264 788 264 l 369 264 q 306 222 306 264 q 369 181 306 181 l 767 181 q 895 154 843 181 q 974 85 947 128 q 1000 -7 1000 43 l 1000 -62 q 974 -155 1000 -112 q 895 -224 947 -197 q 767 -250 843 -250 l 289 -250 m 689 417 q 756 430 733 417 q 778 468 778 443 l 778 511 q 756 549 778 536 q 689 563 733 563 l 365 563 q 299 549 321 563 q 276 511 276 536 l 276 468 q 299 430 276 443 q 365 417 321 417 l 689 417 m 744 -97 q 811 -84 789 -97 q 833 -46 833 -71 l 833 -24 q 811 15 833 1 q 744 28 789 28 l 311 28 q 244 15 267 28 q 222 -24 222 1 l 222 -46 q 244 -84 222 -71 q 311 -97 267 -97 l 744 -97 z "},"ħ":{"ha":1076,"x_min":-62,"x_max":993,"o":"m 760 590 q 883 563 831 590 q 965 490 936 536 q 993 389 993 444 l 993 0 l 826 0 l 826 344 q 715 438 826 438 l 460 438 q 330 405 375 438 q 285 310 285 372 l 285 0 l 118 0 l 118 669 l -62 669 l -62 815 l 118 815 l 118 951 l 285 951 l 285 815 l 590 815 l 590 669 l 285 669 l 285 507 l 293 507 q 486 590 358 590 l 760 590 z "},"ĥ":{"ha":1083,"x_min":111,"x_max":986,"o":"m 111 0 l 111 951 l 278 951 l 278 632 l 286 632 q 479 715 351 715 l 753 715 q 876 688 824 715 q 958 615 929 661 q 986 514 986 569 l 986 0 l 819 0 l 819 469 q 708 563 819 563 l 453 563 q 323 530 368 563 q 278 435 278 497 l 278 0 l 111 0 m 410 1069 l 235 1069 l 458 1278 l 639 1278 l 863 1069 l 688 1069 l 551 1192 l 544 1192 l 410 1069 z "},"ȟ":{"ha":1083,"x_min":111,"x_max":986,"o":"m 111 0 l 111 951 l 278 951 l 278 632 l 286 632 q 479 715 351 715 l 753 715 q 876 688 824 715 q 958 615 929 661 q 986 514 986 569 l 986 0 l 819 0 l 819 469 q 708 563 819 563 l 453 563 q 323 530 368 563 q 278 435 278 497 l 278 0 l 111 0 m 639 1049 l 458 1049 l 235 1257 l 415 1257 l 544 1135 l 553 1135 l 682 1257 l 863 1257 l 639 1049 z "},"ḧ":{"ha":1083,"x_min":111,"x_max":986,"o":"m 111 0 l 111 951 l 278 951 l 278 632 l 286 632 q 479 715 351 715 l 753 715 q 876 688 824 715 q 958 615 929 661 q 986 514 986 569 l 986 0 l 819 0 l 819 469 q 708 563 819 563 l 453 563 q 323 530 368 563 q 278 435 278 497 l 278 0 l 111 0 m 458 1063 l 292 1063 l 292 1236 l 458 1236 l 458 1063 m 806 1063 l 639 1063 l 639 1236 l 806 1236 l 806 1063 z "},"ḥ":{"ha":1083,"x_min":111,"x_max":986,"o":"m 111 0 l 111 951 l 278 951 l 278 632 l 286 632 q 479 715 351 715 l 753 715 q 876 688 824 715 q 958 615 929 661 q 986 514 986 569 l 986 0 l 819 0 l 819 469 q 708 563 819 563 l 453 563 q 323 530 368 563 q 278 435 278 497 l 278 0 l 111 0 m 639 -285 l 458 -285 l 458 -104 l 639 -104 l 639 -285 z "},"ı":{"ha":389,"x_min":111,"x_max":278,"o":"m 278 0 l 111 0 l 111 701 l 278 701 l 278 0 z "},"í":{"ha":389,"x_min":83,"x_max":410,"o":"m 278 0 l 111 0 l 111 701 l 278 701 l 278 0 m 250 819 l 83 819 l 194 1028 l 410 1028 l 250 819 z "},"ĭ":{"ha":389,"x_min":-111,"x_max":500,"o":"m 278 0 l 111 0 l 111 701 l 278 701 l 278 0 m 51 819 q -68 853 -25 819 q -111 944 -111 888 l -111 1028 l 49 1028 l 49 992 q 63 955 49 965 q 110 944 76 944 l 279 944 q 326 955 313 944 q 340 992 340 965 l 340 1028 l 500 1028 l 500 944 q 457 853 500 888 q 338 819 414 819 l 51 819 z "},"î":{"ha":389,"x_min":-119,"x_max":508,"o":"m 278 0 l 111 0 l 111 701 l 278 701 l 278 0 m 56 819 l -119 819 l 104 1028 l 285 1028 l 508 819 l 333 819 l 197 942 l 190 942 l 56 819 z "},"ï":{"ha":389,"x_min":-62,"x_max":451,"o":"m 278 0 l 111 0 l 111 701 l 278 701 l 278 0 m 104 833 l -62 833 l -62 1007 l 104 1007 l 104 833 m 451 833 l 285 833 l 285 1007 l 451 1007 l 451 833 z "},"ì":{"ha":389,"x_min":-21,"x_max":306,"o":"m 278 0 l 111 0 l 111 701 l 278 701 l 278 0 m 306 819 l 139 819 l -21 1028 l 194 1028 l 306 819 z "},"ī":{"ha":389,"x_min":-118,"x_max":507,"o":"m 278 0 l 111 0 l 111 701 l 278 701 l 278 0 m 507 861 l -118 861 l -118 993 l 507 993 l 507 861 z "},"į":{"ha":389,"x_min":-35,"x_max":278,"o":"m 110 1007 l 276 1007 l 276 833 l 110 833 l 110 1007 m 278 0 q 151 -90 203 -46 q 99 -165 99 -135 q 110 -193 99 -185 q 150 -201 121 -201 l 278 -201 l 278 -312 l 129 -312 q 8 -282 51 -312 q -35 -194 -35 -251 q 5 -90 -35 -135 q 136 0 44 -44 l 111 0 l 111 701 l 278 701 l 278 0 z "},"ĩ":{"ha":389,"x_min":-101,"x_max":490,"o":"m 278 0 l 111 0 l 111 701 l 278 701 l 278 0 m 371 813 q 265 828 311 813 q 163 869 218 843 q 104 894 126 886 q 61 903 82 903 q 31 876 31 903 l 31 819 l -101 819 l -101 918 q -70 999 -101 971 q 18 1028 -39 1028 q 124 1013 78 1028 q 226 971 171 997 q 285 946 263 954 q 328 938 307 938 q 358 964 358 938 l 358 1021 l 490 1021 l 490 922 q 459 841 490 869 q 371 813 428 813 z "},"ĳ":{"ha":778,"x_min":110,"x_max":674,"o":"m 278 0 l 111 0 l 111 701 l 278 701 l 278 0 m 276 833 l 110 833 l 110 1007 l 276 1007 l 276 833 m 285 -236 l 285 -83 l 396 -83 q 507 10 507 -83 l 507 701 l 674 701 l 674 -35 q 645 -136 674 -90 q 564 -209 617 -182 q 440 -236 511 -236 l 285 -236 m 672 833 l 506 833 l 506 1007 l 672 1007 l 672 833 z "},"":{"ha":778,"x_min":83,"x_max":806,"o":"m 278 0 l 111 0 l 111 701 l 278 701 l 278 0 m 250 819 l 83 819 l 194 1028 l 410 1028 l 250 819 m 285 -236 l 285 -83 l 396 -83 q 507 10 507 -83 l 507 701 l 674 701 l 674 -35 q 645 -136 674 -90 q 564 -209 617 -182 q 440 -236 511 -236 l 285 -236 m 646 819 l 479 819 l 590 1028 l 806 1028 l 646 819 z "},"ȷ":{"ha":389,"x_min":-104,"x_max":285,"o":"m -104 -236 l -104 -83 l 7 -83 q 118 10 118 -83 l 118 701 l 285 701 l 285 -35 q 256 -136 285 -90 q 175 -209 228 -182 q 51 -236 122 -236 l -104 -236 z "},"ĵ":{"ha":389,"x_min":-112,"x_max":515,"o":"m -104 -236 l -104 -83 l 7 -83 q 118 10 118 -83 l 118 701 l 285 701 l 285 -35 q 256 -136 285 -90 q 175 -209 228 -182 q 51 -236 122 -236 l -104 -236 m 63 819 l -112 819 l 111 1028 l 292 1028 l 515 819 l 340 819 l 204 942 l 197 942 l 63 819 z "},"ķ":{"ha":1007,"x_min":111,"x_max":958,"o":"m 278 0 l 111 0 l 111 951 l 278 951 l 278 431 l 538 431 l 794 701 l 940 701 l 940 611 l 683 361 l 958 90 l 958 0 l 806 0 l 542 278 l 278 278 l 278 0 m 528 -389 l 438 -389 l 438 -90 l 604 -90 l 604 -231 l 528 -389 z "},"ḱ":{"ha":1007,"x_min":111,"x_max":958,"o":"m 278 0 l 111 0 l 111 951 l 278 951 l 278 431 l 538 431 l 794 701 l 940 701 l 940 611 l 683 361 l 958 90 l 958 0 l 806 0 l 542 278 l 278 278 l 278 0 m 597 1049 l 431 1049 l 542 1257 l 757 1257 l 597 1049 z "},"ĺ":{"ha":389,"x_min":83,"x_max":410,"o":"m 278 0 l 111 0 l 111 951 l 278 951 l 278 0 m 250 1069 l 83 1069 l 194 1278 l 410 1278 l 250 1069 z "},"ľ":{"ha":389,"x_min":111,"x_max":583,"o":"m 278 0 l 111 0 l 111 951 l 278 951 l 278 0 m 508 729 l 417 729 l 417 993 l 583 993 l 583 900 l 508 729 z "},"ļ":{"ha":389,"x_min":111,"x_max":278,"o":"m 278 0 l 111 0 l 111 951 l 278 951 l 278 0 m 201 -389 l 111 -389 l 111 -90 l 278 -90 l 278 -231 l 201 -389 z "},"ŀ":{"ha":569,"x_min":111,"x_max":569,"o":"m 278 0 l 111 0 l 111 951 l 278 951 l 278 0 m 569 389 l 389 389 l 389 569 l 569 569 l 569 389 z "},"ł":{"ha":417,"x_min":-17,"x_max":433,"o":"m 292 613 l 433 703 l 433 546 l 292 456 l 292 0 l 125 0 l 125 347 l -17 257 l -17 414 l 125 504 l 125 951 l 292 951 l 292 613 z "},"ḷ":{"ha":389,"x_min":104,"x_max":285,"o":"m 278 0 l 111 0 l 111 951 l 278 951 l 278 0 m 285 -285 l 104 -285 l 104 -104 l 285 -104 l 285 -285 z "},"ǉ":{"ha":778,"x_min":111,"x_max":674,"o":"m 278 0 l 111 0 l 111 951 l 278 951 l 278 0 m 285 -236 l 285 -83 l 396 -83 q 507 10 507 -83 l 507 701 l 674 701 l 674 -35 q 645 -136 674 -90 q 564 -209 617 -182 q 440 -236 511 -236 l 285 -236 m 672 833 l 506 833 l 506 1007 l 672 1007 l 672 833 z "},"ḿ":{"ha":1646,"x_min":104,"x_max":1549,"o":"m 104 0 l 104 701 l 222 701 l 250 625 l 258 625 q 472 715 331 715 l 639 715 q 853 625 781 715 l 861 625 q 1075 715 933 715 l 1315 715 q 1439 688 1386 715 q 1520 615 1492 661 q 1549 514 1549 569 l 1549 0 l 1382 0 l 1382 469 q 1271 563 1382 563 l 1021 563 q 910 469 910 563 l 910 0 l 743 0 l 743 469 q 632 563 743 563 l 446 563 q 316 530 361 563 q 271 435 271 497 l 271 0 l 104 0 m 919 819 l 753 819 l 864 1028 l 1079 1028 l 919 819 z "},"ń":{"ha":1076,"x_min":104,"x_max":979,"o":"m 104 0 l 104 701 l 222 701 l 250 625 l 258 625 q 472 715 331 715 l 746 715 q 869 688 817 715 q 951 615 922 661 q 979 514 979 569 l 979 0 l 813 0 l 813 469 q 701 563 813 563 l 446 563 q 316 530 361 563 q 271 435 271 497 l 271 0 l 104 0 m 594 819 l 428 819 l 539 1028 l 754 1028 l 594 819 z "},"ň":{"ha":1076,"x_min":104,"x_max":979,"o":"m 104 0 l 104 701 l 222 701 l 250 625 l 258 625 q 472 715 331 715 l 746 715 q 869 688 817 715 q 951 615 922 661 q 979 514 979 569 l 979 0 l 813 0 l 813 469 q 701 563 813 563 l 446 563 q 316 530 361 563 q 271 435 271 497 l 271 0 l 104 0 m 629 819 l 449 819 l 225 1028 l 406 1028 l 535 906 l 543 906 l 672 1028 l 853 1028 l 629 819 z "},"ņ":{"ha":1076,"x_min":104,"x_max":979,"o":"m 104 0 l 104 701 l 222 701 l 250 625 l 258 625 q 472 715 331 715 l 746 715 q 869 688 817 715 q 951 615 922 661 q 979 514 979 569 l 979 0 l 813 0 l 813 469 q 701 563 813 563 l 446 563 q 316 530 361 563 q 271 435 271 497 l 271 0 l 104 0 m 546 -389 l 456 -389 l 456 -90 l 622 -90 l 622 -231 l 546 -389 z "},"ŋ":{"ha":1076,"x_min":104,"x_max":979,"o":"m 590 -236 l 590 -83 l 701 -83 q 813 10 813 -83 l 813 469 q 701 563 813 563 l 446 563 q 316 530 361 563 q 271 435 271 497 l 271 0 l 104 0 l 104 701 l 222 701 l 250 625 l 258 625 q 472 715 331 715 l 746 715 q 869 688 817 715 q 951 615 922 661 q 979 514 979 569 l 979 -35 q 951 -136 979 -90 q 869 -209 922 -182 q 746 -236 817 -236 l 590 -236 z "},"ñ":{"ha":1076,"x_min":104,"x_max":979,"o":"m 104 0 l 104 701 l 222 701 l 250 625 l 258 625 q 472 715 331 715 l 746 715 q 869 688 817 715 q 951 615 922 661 q 979 514 979 569 l 979 0 l 813 0 l 813 469 q 701 563 813 563 l 446 563 q 316 530 361 563 q 271 435 271 497 l 271 0 l 104 0 m 715 813 q 609 828 656 813 q 507 869 563 843 q 449 894 471 886 q 406 903 426 903 q 375 876 375 903 l 375 819 l 243 819 l 243 918 q 274 999 243 971 q 363 1028 306 1028 q 469 1013 422 1028 q 571 971 515 997 q 629 946 607 954 q 672 938 651 938 q 703 964 703 938 l 703 1021 l 835 1021 l 835 922 q 803 841 835 869 q 715 813 772 813 z "},"ǌ":{"ha":1465,"x_min":104,"x_max":1361,"o":"m 104 0 l 104 701 l 222 701 l 250 625 l 258 625 q 472 715 331 715 l 746 715 q 869 688 817 715 q 951 615 922 661 q 979 514 979 569 l 979 0 l 813 0 l 813 469 q 701 563 813 563 l 446 563 q 316 530 361 563 q 271 435 271 497 l 271 0 l 104 0 m 972 -236 l 972 -83 l 1083 -83 q 1194 10 1194 -83 l 1194 701 l 1361 701 l 1361 -35 q 1333 -136 1361 -90 q 1251 -209 1304 -182 q 1128 -236 1199 -236 l 972 -236 m 1360 833 l 1193 833 l 1193 1007 l 1360 1007 l 1360 833 z "},"ó":{"ha":1069,"x_min":90,"x_max":979,"o":"m 324 -14 q 200 13 253 -14 q 119 86 147 40 q 90 188 90 132 l 90 514 q 119 615 90 569 q 200 688 147 661 q 324 715 253 715 l 746 715 q 869 688 817 715 q 951 615 922 661 q 979 514 979 569 l 979 188 q 951 86 979 132 q 869 13 922 40 q 746 -14 817 -14 l 324 -14 m 701 139 q 813 232 813 139 l 813 469 q 701 563 813 563 l 368 563 q 257 469 257 563 l 257 232 q 368 139 257 139 l 701 139 m 590 819 l 424 819 l 535 1028 l 750 1028 l 590 819 z "},"ŏ":{"ha":1069,"x_min":90,"x_max":979,"o":"m 324 -14 q 200 13 253 -14 q 119 86 147 40 q 90 188 90 132 l 90 514 q 119 615 90 569 q 200 688 147 661 q 324 715 253 715 l 746 715 q 869 688 817 715 q 951 615 922 661 q 979 514 979 569 l 979 188 q 951 86 979 132 q 869 13 922 40 q 746 -14 817 -14 l 324 -14 m 701 139 q 813 232 813 139 l 813 469 q 701 563 813 563 l 368 563 q 257 469 257 563 l 257 232 q 368 139 257 139 l 701 139 m 392 819 q 272 853 315 819 q 229 944 229 888 l 229 1028 l 389 1028 l 389 992 q 403 955 389 965 q 450 944 417 944 l 619 944 q 667 955 653 944 q 681 992 681 965 l 681 1028 l 840 1028 l 840 944 q 797 853 840 888 q 678 819 754 819 l 392 819 z "},"ô":{"ha":1069,"x_min":90,"x_max":979,"o":"m 324 -14 q 200 13 253 -14 q 119 86 147 40 q 90 188 90 132 l 90 514 q 119 615 90 569 q 200 688 147 661 q 324 715 253 715 l 746 715 q 869 688 817 715 q 951 615 922 661 q 979 514 979 569 l 979 188 q 951 86 979 132 q 869 13 922 40 q 746 -14 817 -14 l 324 -14 m 701 139 q 813 232 813 139 l 813 469 q 701 563 813 563 l 368 563 q 257 469 257 563 l 257 232 q 368 139 257 139 l 701 139 m 396 819 l 221 819 l 444 1028 l 625 1028 l 849 819 l 674 819 l 538 942 l 531 942 l 396 819 z "},"ö":{"ha":1069,"x_min":90,"x_max":979,"o":"m 324 -14 q 200 13 253 -14 q 119 86 147 40 q 90 188 90 132 l 90 514 q 119 615 90 569 q 200 688 147 661 q 324 715 253 715 l 746 715 q 869 688 817 715 q 951 615 922 661 q 979 514 979 569 l 979 188 q 951 86 979 132 q 869 13 922 40 q 746 -14 817 -14 l 324 -14 m 701 139 q 813 232 813 139 l 813 469 q 701 563 813 563 l 368 563 q 257 469 257 563 l 257 232 q 368 139 257 139 l 701 139 m 444 833 l 278 833 l 278 1007 l 444 1007 l 444 833 m 792 833 l 625 833 l 625 1007 l 792 1007 l 792 833 z "},"ò":{"ha":1069,"x_min":90,"x_max":979,"o":"m 324 -14 q 200 13 253 -14 q 119 86 147 40 q 90 188 90 132 l 90 514 q 119 615 90 569 q 200 688 147 661 q 324 715 253 715 l 746 715 q 869 688 817 715 q 951 615 922 661 q 979 514 979 569 l 979 188 q 951 86 979 132 q 869 13 922 40 q 746 -14 817 -14 l 324 -14 m 701 139 q 813 232 813 139 l 813 469 q 701 563 813 563 l 368 563 q 257 469 257 563 l 257 232 q 368 139 257 139 l 701 139 m 646 819 l 479 819 l 319 1028 l 535 1028 l 646 819 z "},"ő":{"ha":1069,"x_min":90,"x_max":979,"o":"m 324 -14 q 200 13 253 -14 q 119 86 147 40 q 90 188 90 132 l 90 514 q 119 615 90 569 q 200 688 147 661 q 324 715 253 715 l 746 715 q 869 688 817 715 q 951 615 922 661 q 979 514 979 569 l 979 188 q 951 86 979 132 q 869 13 922 40 q 746 -14 817 -14 l 324 -14 m 701 139 q 813 232 813 139 l 813 469 q 701 563 813 563 l 368 563 q 257 469 257 563 l 257 232 q 368 139 257 139 l 701 139 m 428 819 l 289 819 l 436 1028 l 610 1028 l 428 819 m 747 819 l 608 819 l 756 1028 l 929 1028 l 747 819 z "},"ō":{"ha":1069,"x_min":90,"x_max":979,"o":"m 324 -14 q 200 13 253 -14 q 119 86 147 40 q 90 188 90 132 l 90 514 q 119 615 90 569 q 200 688 147 661 q 324 715 253 715 l 746 715 q 869 688 817 715 q 951 615 922 661 q 979 514 979 569 l 979 188 q 951 86 979 132 q 869 13 922 40 q 746 -14 817 -14 l 324 -14 m 701 139 q 813 232 813 139 l 813 469 q 701 563 813 563 l 368 563 q 257 469 257 563 l 257 232 q 368 139 257 139 l 701 139 m 847 861 l 222 861 l 222 993 l 847 993 l 847 861 z "},"ø":{"ha":1069,"x_min":90,"x_max":979,"o":"m 746 715 q 869 688 817 715 q 951 615 922 661 q 979 514 979 569 l 979 188 q 951 86 979 132 q 869 13 922 40 q 746 -14 817 -14 l 324 -14 q 200 13 253 -14 q 119 86 147 40 q 90 188 90 132 l 90 514 q 119 615 90 569 q 200 688 147 661 q 324 715 253 715 l 746 715 m 257 232 q 264 193 257 211 l 736 560 q 701 563 714 563 l 368 563 q 257 469 257 563 l 257 232 m 813 469 q 806 510 813 489 l 332 142 q 368 139 354 139 l 701 139 q 813 232 813 139 l 813 469 z "},"ǿ":{"ha":1069,"x_min":90,"x_max":979,"o":"m 746 715 q 869 688 817 715 q 951 615 922 661 q 979 514 979 569 l 979 188 q 951 86 979 132 q 869 13 922 40 q 746 -14 817 -14 l 324 -14 q 200 13 253 -14 q 119 86 147 40 q 90 188 90 132 l 90 514 q 119 615 90 569 q 200 688 147 661 q 324 715 253 715 l 746 715 m 257 232 q 264 193 257 211 l 736 560 q 701 563 714 563 l 368 563 q 257 469 257 563 l 257 232 m 813 469 q 806 510 813 489 l 332 142 q 368 139 354 139 l 701 139 q 813 232 813 139 l 813 469 m 590 819 l 424 819 l 535 1028 l 750 1028 l 590 819 z "},"õ":{"ha":1069,"x_min":90,"x_max":979,"o":"m 324 -14 q 200 13 253 -14 q 119 86 147 40 q 90 188 90 132 l 90 514 q 119 615 90 569 q 200 688 147 661 q 324 715 253 715 l 746 715 q 869 688 817 715 q 951 615 922 661 q 979 514 979 569 l 979 188 q 951 86 979 132 q 869 13 922 40 q 746 -14 817 -14 l 324 -14 m 701 139 q 813 232 813 139 l 813 469 q 701 563 813 563 l 368 563 q 257 469 257 563 l 257 232 q 368 139 257 139 l 701 139 m 711 813 q 605 828 651 813 q 503 869 558 843 q 444 894 467 886 q 401 903 422 903 q 371 876 371 903 l 371 819 l 239 819 l 239 918 q 270 999 239 971 q 358 1028 301 1028 q 465 1013 418 1028 q 567 971 511 997 q 625 946 603 954 q 668 938 647 938 q 699 964 699 938 l 699 1021 l 831 1021 l 831 922 q 799 841 831 869 q 711 813 768 813 z "},"œ":{"ha":1722,"x_min":90,"x_max":1632,"o":"m 324 -14 q 200 13 253 -14 q 119 86 147 40 q 90 188 90 132 l 90 514 q 119 615 90 569 q 200 688 147 661 q 324 715 253 715 l 660 715 q 789 692 735 715 q 864 639 843 669 l 872 639 q 949 692 893 669 q 1076 715 1004 715 l 1399 715 q 1522 688 1469 715 q 1603 615 1575 661 q 1632 514 1632 569 l 1632 278 l 951 278 l 951 246 q 1063 153 951 153 l 1597 153 l 1597 0 l 1075 0 q 953 24 1006 0 q 878 76 900 47 l 869 76 q 792 14 847 42 q 661 -14 738 -14 l 324 -14 m 674 139 q 785 232 785 139 l 785 469 q 674 563 785 563 l 368 563 q 257 469 257 563 l 257 232 q 368 139 257 139 l 674 139 m 951 424 l 1465 424 l 1465 469 q 1354 563 1465 563 l 1063 563 q 951 469 951 563 l 951 424 z "},"ṕ":{"ha":1069,"x_min":104,"x_max":979,"o":"m 104 -236 l 104 701 l 222 701 l 250 625 l 258 625 q 472 715 331 715 l 746 715 q 869 688 817 715 q 951 615 922 661 q 979 514 979 569 l 979 201 q 951 100 979 146 q 869 27 922 54 q 746 0 817 0 l 271 0 l 271 -236 l 104 -236 m 701 153 q 813 246 813 153 l 813 469 q 701 563 813 563 l 446 563 q 316 530 361 563 q 271 435 271 497 l 271 153 l 701 153 m 604 819 l 438 819 l 549 1028 l 764 1028 l 604 819 z "},"þ":{"ha":1076,"x_min":111,"x_max":986,"o":"m 111 -236 l 111 951 l 278 951 l 278 701 l 753 701 q 876 674 824 701 q 958 601 929 647 q 986 500 986 556 l 986 201 q 958 100 986 146 q 876 27 929 54 q 753 0 824 0 l 278 0 l 278 -236 l 111 -236 m 708 153 q 819 246 819 153 l 819 456 q 708 549 819 549 l 278 549 l 278 153 l 708 153 z "},"ŕ":{"ha":743,"x_min":104,"x_max":708,"o":"m 104 0 l 104 701 l 222 701 l 250 625 l 258 625 q 472 715 331 715 l 708 715 l 708 556 l 446 556 q 316 523 361 556 q 271 428 271 490 l 271 0 l 104 0 m 467 819 l 300 819 l 411 1028 l 626 1028 l 467 819 z "},"ř":{"ha":743,"x_min":97,"x_max":725,"o":"m 104 0 l 104 701 l 222 701 l 250 625 l 258 625 q 472 715 331 715 l 708 715 l 708 556 l 446 556 q 316 523 361 556 q 271 428 271 490 l 271 0 l 104 0 m 501 819 l 321 819 l 97 1028 l 278 1028 l 407 906 l 415 906 l 544 1028 l 725 1028 l 501 819 z "},"ŗ":{"ha":743,"x_min":104,"x_max":708,"o":"m 104 0 l 104 701 l 222 701 l 250 625 l 258 625 q 472 715 331 715 l 708 715 l 708 556 l 446 556 q 316 523 361 556 q 271 428 271 490 l 271 0 l 104 0 m 194 -389 l 104 -389 l 104 -90 l 271 -90 l 271 -231 l 194 -389 z "},"ś":{"ha":951,"x_min":76,"x_max":889,"o":"m 76 0 l 76 153 l 640 153 q 704 163 686 153 q 722 193 722 172 l 722 207 q 702 235 722 226 q 624 254 682 244 l 288 308 q 130 369 183 325 q 76 483 76 414 l 76 518 q 103 608 76 565 q 182 676 129 650 q 310 701 235 701 l 853 701 l 853 600 l 801 549 l 325 549 q 261 539 279 549 q 243 508 243 529 l 243 494 q 263 466 243 475 q 342 447 283 457 l 678 393 q 835 332 782 376 q 889 218 889 288 l 889 183 q 863 94 889 136 q 783 26 836 51 q 656 0 731 0 l 76 0 m 539 819 l 372 819 l 483 1028 l 699 1028 l 539 819 z "},"š":{"ha":951,"x_min":76,"x_max":889,"o":"m 76 0 l 76 153 l 640 153 q 704 163 686 153 q 722 193 722 172 l 722 207 q 702 235 722 226 q 624 254 682 244 l 288 308 q 130 369 183 325 q 76 483 76 414 l 76 518 q 103 608 76 565 q 182 676 129 650 q 310 701 235 701 l 853 701 l 853 600 l 801 549 l 325 549 q 261 539 279 549 q 243 508 243 529 l 243 494 q 263 466 243 475 q 342 447 283 457 l 678 393 q 835 332 782 376 q 889 218 889 288 l 889 183 q 863 94 889 136 q 783 26 836 51 q 656 0 731 0 l 76 0 m 574 819 l 393 819 l 169 1028 l 350 1028 l 479 906 l 488 906 l 617 1028 l 797 1028 l 574 819 z "},"ş":{"ha":951,"x_min":76,"x_max":889,"o":"m 678 393 q 835 332 782 376 q 889 218 889 288 l 889 183 q 863 94 889 136 q 783 26 836 51 q 656 0 731 0 l 499 0 l 481 -62 l 533 -62 q 646 -93 606 -62 q 686 -181 686 -124 l 686 -208 q 646 -296 686 -265 q 533 -326 606 -326 l 318 -326 l 318 -229 l 522 -229 q 561 -201 561 -229 l 561 -187 q 522 -160 561 -160 l 378 -160 l 336 -125 l 374 0 l 76 0 l 76 153 l 640 153 q 704 163 686 153 q 722 193 722 172 l 722 207 q 702 235 722 226 q 624 254 682 244 l 288 308 q 130 369 183 325 q 76 483 76 414 l 76 518 q 103 608 76 565 q 182 676 129 650 q 310 701 235 701 l 853 701 l 853 600 l 801 549 l 325 549 q 261 539 279 549 q 243 508 243 529 l 243 494 q 263 466 243 475 q 342 447 283 457 l 678 393 z "},"ŝ":{"ha":951,"x_min":76,"x_max":889,"o":"m 76 0 l 76 153 l 640 153 q 704 163 686 153 q 722 193 722 172 l 722 207 q 702 235 722 226 q 624 254 682 244 l 288 308 q 130 369 183 325 q 76 483 76 414 l 76 518 q 103 608 76 565 q 182 676 129 650 q 310 701 235 701 l 853 701 l 853 600 l 801 549 l 325 549 q 261 539 279 549 q 243 508 243 529 l 243 494 q 263 466 243 475 q 342 447 283 457 l 678 393 q 835 332 782 376 q 889 218 889 288 l 889 183 q 863 94 889 136 q 783 26 836 51 q 656 0 731 0 l 76 0 m 344 819 l 169 819 l 393 1028 l 574 1028 l 797 819 l 622 819 l 486 942 l 479 942 l 344 819 z "},"ș":{"ha":951,"x_min":76,"x_max":889,"o":"m 76 0 l 76 153 l 640 153 q 704 163 686 153 q 722 193 722 172 l 722 207 q 702 235 722 226 q 624 254 682 244 l 288 308 q 130 369 183 325 q 76 483 76 414 l 76 518 q 103 608 76 565 q 182 676 129 650 q 310 701 235 701 l 853 701 l 853 600 l 801 549 l 325 549 q 261 539 279 549 q 243 508 243 529 l 243 494 q 263 466 243 475 q 342 447 283 457 l 678 393 q 835 332 782 376 q 889 218 889 288 l 889 183 q 863 94 889 136 q 783 26 836 51 q 656 0 731 0 l 76 0 m 456 -389 l 365 -389 l 365 -90 l 532 -90 l 532 -231 l 456 -389 z "},"ß":{"ha":1132,"x_min":111,"x_max":1069,"o":"m 111 764 q 140 865 111 819 q 221 938 168 911 q 344 965 274 965 l 669 965 q 797 940 744 965 q 876 872 850 914 q 903 782 903 829 l 903 742 q 875 651 903 689 q 797 574 847 614 q 756 535 768 549 q 743 506 743 521 q 767 474 743 488 q 847 435 790 460 q 960 382 915 407 q 1037 318 1004 357 q 1069 225 1069 279 l 1069 175 q 1043 91 1069 131 q 964 26 1017 51 q 836 0 911 0 l 472 0 l 472 153 l 821 153 q 884 163 865 153 q 903 193 903 172 l 903 213 q 875 251 903 235 q 789 289 847 267 q 681 338 724 315 q 608 396 639 360 q 576 483 576 432 l 576 521 q 603 597 576 563 q 679 676 631 632 q 722 721 708 704 q 736 750 736 738 l 736 765 q 718 801 736 790 q 654 813 700 813 l 389 813 q 278 719 278 813 l 278 0 l 111 0 l 111 764 z "},"ŧ":{"ha":785,"x_min":42,"x_max":715,"o":"m 715 153 l 715 0 l 442 0 q 318 27 371 0 q 237 100 265 54 q 208 201 208 146 l 208 317 l 42 317 l 42 463 l 208 463 l 208 549 l 42 549 l 42 701 l 215 701 l 271 903 l 375 903 l 375 701 l 688 701 l 688 599 l 638 549 l 375 549 l 375 463 l 638 463 l 638 317 l 375 317 l 375 246 q 486 153 375 153 l 715 153 z "},"ť":{"ha":785,"x_min":42,"x_max":715,"o":"m 442 0 q 318 27 371 0 q 237 100 265 54 q 208 201 208 146 l 208 549 l 42 549 l 42 701 l 215 701 l 271 903 l 375 903 l 375 701 l 688 701 l 688 599 l 638 549 l 375 549 l 375 246 q 486 153 375 153 l 715 153 l 715 0 l 442 0 m 606 750 l 514 750 l 514 1014 l 681 1014 l 681 921 l 606 750 z "},"ţ":{"ha":785,"x_min":42,"x_max":715,"o":"m 715 0 l 510 0 l 492 -62 l 544 -62 q 657 -93 617 -62 q 697 -181 697 -124 l 697 -208 q 657 -296 697 -265 q 544 -326 617 -326 l 329 -326 l 329 -229 l 533 -229 q 572 -201 572 -229 l 572 -187 q 533 -160 572 -160 l 389 -160 l 347 -125 l 386 6 q 256 74 304 19 q 208 201 208 129 l 208 549 l 42 549 l 42 701 l 215 701 l 271 903 l 375 903 l 375 701 l 688 701 l 688 599 l 638 549 l 375 549 l 375 246 q 486 153 375 153 l 715 153 l 715 0 z "},"ț":{"ha":785,"x_min":42,"x_max":715,"o":"m 442 0 q 318 27 371 0 q 237 100 265 54 q 208 201 208 146 l 208 549 l 42 549 l 42 701 l 215 701 l 271 903 l 375 903 l 375 701 l 688 701 l 688 599 l 638 549 l 375 549 l 375 246 q 486 153 375 153 l 715 153 l 715 0 l 442 0 m 467 -389 l 376 -389 l 376 -90 l 543 -90 l 543 -231 l 467 -389 z "},"ú":{"ha":1076,"x_min":97,"x_max":972,"o":"m 331 -14 q 207 13 260 -14 q 126 86 154 40 q 97 188 97 132 l 97 701 l 264 701 l 264 232 q 375 139 264 139 l 631 139 q 760 172 715 139 q 806 267 806 204 l 806 701 l 972 701 l 972 0 l 854 0 l 826 76 l 818 76 q 604 -14 746 -14 l 331 -14 m 590 819 l 424 819 l 535 1028 l 750 1028 l 590 819 z "},"ʉ":{"ha":1104,"x_min":7,"x_max":1090,"o":"m 1090 496 l 1090 344 l 986 344 l 986 0 l 868 0 l 840 76 l 832 76 q 618 -14 760 -14 l 344 -14 q 221 13 274 -14 q 140 86 168 40 q 111 188 111 132 l 111 344 l 7 344 l 7 496 l 111 496 l 111 701 l 278 701 l 278 496 l 819 496 l 819 701 l 986 701 l 986 496 l 1090 496 m 819 344 l 278 344 l 278 232 q 389 139 278 139 l 644 139 q 774 172 729 139 q 819 267 819 204 l 819 344 z "},"ŭ":{"ha":1076,"x_min":97,"x_max":972,"o":"m 331 -14 q 207 13 260 -14 q 126 86 154 40 q 97 188 97 132 l 97 701 l 264 701 l 264 232 q 375 139 264 139 l 631 139 q 760 172 715 139 q 806 267 806 204 l 806 701 l 972 701 l 972 0 l 854 0 l 826 76 l 818 76 q 604 -14 746 -14 l 331 -14 m 392 819 q 272 853 315 819 q 229 944 229 888 l 229 1028 l 389 1028 l 389 992 q 403 955 389 965 q 450 944 417 944 l 619 944 q 667 955 653 944 q 681 992 681 965 l 681 1028 l 840 1028 l 840 944 q 797 853 840 888 q 678 819 754 819 l 392 819 z "},"û":{"ha":1076,"x_min":97,"x_max":972,"o":"m 331 -14 q 207 13 260 -14 q 126 86 154 40 q 97 188 97 132 l 97 701 l 264 701 l 264 232 q 375 139 264 139 l 631 139 q 760 172 715 139 q 806 267 806 204 l 806 701 l 972 701 l 972 0 l 854 0 l 826 76 l 818 76 q 604 -14 746 -14 l 331 -14 m 396 819 l 221 819 l 444 1028 l 625 1028 l 849 819 l 674 819 l 538 942 l 531 942 l 396 819 z "},"ü":{"ha":1076,"x_min":97,"x_max":972,"o":"m 331 -14 q 207 13 260 -14 q 126 86 154 40 q 97 188 97 132 l 97 701 l 264 701 l 264 232 q 375 139 264 139 l 631 139 q 760 172 715 139 q 806 267 806 204 l 806 701 l 972 701 l 972 0 l 854 0 l 826 76 l 818 76 q 604 -14 746 -14 l 331 -14 m 444 833 l 278 833 l 278 1007 l 444 1007 l 444 833 m 792 833 l 625 833 l 625 1007 l 792 1007 l 792 833 z "},"ù":{"ha":1076,"x_min":97,"x_max":972,"o":"m 331 -14 q 207 13 260 -14 q 126 86 154 40 q 97 188 97 132 l 97 701 l 264 701 l 264 232 q 375 139 264 139 l 631 139 q 760 172 715 139 q 806 267 806 204 l 806 701 l 972 701 l 972 0 l 854 0 l 826 76 l 818 76 q 604 -14 746 -14 l 331 -14 m 646 819 l 479 819 l 319 1028 l 535 1028 l 646 819 z "},"ű":{"ha":1076,"x_min":97,"x_max":972,"o":"m 331 -14 q 207 13 260 -14 q 126 86 154 40 q 97 188 97 132 l 97 701 l 264 701 l 264 232 q 375 139 264 139 l 631 139 q 760 172 715 139 q 806 267 806 204 l 806 701 l 972 701 l 972 0 l 854 0 l 826 76 l 818 76 q 604 -14 746 -14 l 331 -14 m 428 819 l 289 819 l 436 1028 l 610 1028 l 428 819 m 747 819 l 608 819 l 756 1028 l 929 1028 l 747 819 z "},"ū":{"ha":1076,"x_min":97,"x_max":972,"o":"m 331 -14 q 207 13 260 -14 q 126 86 154 40 q 97 188 97 132 l 97 701 l 264 701 l 264 232 q 375 139 264 139 l 631 139 q 760 172 715 139 q 806 267 806 204 l 806 701 l 972 701 l 972 0 l 854 0 l 826 76 l 818 76 q 604 -14 746 -14 l 331 -14 m 847 861 l 222 861 l 222 993 l 847 993 l 847 861 z "},"ų":{"ha":1076,"x_min":97,"x_max":972,"o":"m 972 0 q 827 -94 882 -53 q 772 -165 772 -135 q 783 -193 772 -185 q 824 -201 794 -201 l 972 -201 l 972 -312 l 803 -312 q 682 -282 725 -312 q 639 -194 639 -251 q 690 -84 639 -133 q 850 13 740 -35 l 826 76 l 818 76 q 604 -14 746 -14 l 331 -14 q 207 13 260 -14 q 126 86 154 40 q 97 188 97 132 l 97 701 l 264 701 l 264 232 q 375 139 264 139 l 631 139 q 760 172 715 139 q 806 267 806 204 l 806 701 l 972 701 l 972 0 z "},"ů":{"ha":1076,"x_min":97,"x_max":972,"o":"m 331 -14 q 207 13 260 -14 q 126 86 154 40 q 97 188 97 132 l 97 701 l 264 701 l 264 232 q 375 139 264 139 l 631 139 q 760 172 715 139 q 806 267 806 204 l 806 701 l 972 701 l 972 0 l 854 0 l 826 76 l 818 76 q 604 -14 746 -14 l 331 -14 m 481 778 q 361 811 403 778 q 319 901 319 844 l 319 939 q 361 1029 319 996 q 481 1063 403 1063 l 589 1063 q 708 1029 667 1063 q 750 939 750 996 l 750 901 q 708 811 750 844 q 589 778 667 778 l 481 778 m 579 882 q 615 890 604 882 q 625 915 625 899 l 625 925 q 615 950 625 942 q 579 958 604 958 l 490 958 q 455 950 465 958 q 444 925 444 942 l 444 915 q 455 890 444 899 q 490 882 465 882 l 579 882 z "},"ũ":{"ha":1076,"x_min":97,"x_max":972,"o":"m 331 -14 q 207 13 260 -14 q 126 86 154 40 q 97 188 97 132 l 97 701 l 264 701 l 264 232 q 375 139 264 139 l 631 139 q 760 172 715 139 q 806 267 806 204 l 806 701 l 972 701 l 972 0 l 854 0 l 826 76 l 818 76 q 604 -14 746 -14 l 331 -14 m 711 813 q 605 828 651 813 q 503 869 558 843 q 444 894 467 886 q 401 903 422 903 q 371 876 371 903 l 371 819 l 239 819 l 239 918 q 270 999 239 971 q 358 1028 301 1028 q 465 1013 418 1028 q 567 971 511 997 q 625 946 603 954 q 668 938 647 938 q 699 964 699 938 l 699 1021 l 831 1021 l 831 922 q 799 841 831 869 q 711 813 768 813 z "},"ǔ":{"ha":1076,"x_min":97,"x_max":972,"o":"m 331 -14 q 207 13 260 -14 q 126 86 154 40 q 97 188 97 132 l 97 701 l 264 701 l 264 232 q 375 139 264 139 l 631 139 q 760 172 715 139 q 806 267 806 204 l 806 701 l 972 701 l 972 0 l 854 0 l 826 76 l 818 76 q 604 -14 746 -14 l 331 -14 m 625 819 l 444 819 l 221 1028 l 401 1028 l 531 906 l 539 906 l 668 1028 l 849 1028 l 625 819 z "},"ẃ":{"ha":1451,"x_min":49,"x_max":1403,"o":"m 489 0 l 306 0 l 49 618 l 49 701 l 201 701 l 401 188 l 411 188 l 642 701 l 810 701 l 1040 188 l 1050 188 l 1250 701 l 1403 701 l 1403 618 l 1146 0 l 963 0 l 731 514 l 721 514 l 489 0 m 782 819 l 615 819 l 726 1028 l 942 1028 l 782 819 z "},"ŵ":{"ha":1451,"x_min":49,"x_max":1403,"o":"m 489 0 l 306 0 l 49 618 l 49 701 l 201 701 l 401 188 l 411 188 l 642 701 l 810 701 l 1040 188 l 1050 188 l 1250 701 l 1403 701 l 1403 618 l 1146 0 l 963 0 l 731 514 l 721 514 l 489 0 m 588 819 l 413 819 l 636 1028 l 817 1028 l 1040 819 l 865 819 l 729 942 l 722 942 l 588 819 z "},"ẅ":{"ha":1451,"x_min":49,"x_max":1403,"o":"m 489 0 l 306 0 l 49 618 l 49 701 l 201 701 l 401 188 l 411 188 l 642 701 l 810 701 l 1040 188 l 1050 188 l 1250 701 l 1403 701 l 1403 618 l 1146 0 l 963 0 l 731 514 l 721 514 l 489 0 m 636 833 l 469 833 l 469 1007 l 636 1007 l 636 833 m 983 833 l 817 833 l 817 1007 l 983 1007 l 983 833 z "},"ẁ":{"ha":1451,"x_min":49,"x_max":1403,"o":"m 489 0 l 306 0 l 49 618 l 49 701 l 201 701 l 401 188 l 411 188 l 642 701 l 810 701 l 1040 188 l 1050 188 l 1250 701 l 1403 701 l 1403 618 l 1146 0 l 963 0 l 731 514 l 721 514 l 489 0 m 838 819 l 671 819 l 511 1028 l 726 1028 l 838 819 z "},"ẍ":{"ha":979,"x_min":49,"x_max":931,"o":"m 206 0 l 49 0 l 49 83 l 360 354 l 69 618 l 69 701 l 226 701 l 485 451 l 494 451 l 753 701 l 910 701 l 910 618 l 618 361 l 931 83 l 931 0 l 774 0 l 494 257 l 485 257 l 206 0 m 399 833 l 232 833 l 232 1007 l 399 1007 l 399 833 m 746 833 l 579 833 l 579 1007 l 746 1007 l 746 833 z "},"ý":{"ha":986,"x_min":42,"x_max":944,"o":"m 793 701 l 944 701 l 944 611 l 583 -19 q 502 -139 542 -93 q 406 -210 463 -185 q 267 -236 350 -236 l 131 -236 l 131 -83 l 242 -83 q 335 -60 294 -83 q 408 14 375 -37 l 411 18 l 42 611 l 42 701 l 196 701 l 503 188 l 513 188 l 793 701 m 553 819 l 386 819 l 497 1028 l 713 1028 l 553 819 z "},"ŷ":{"ha":986,"x_min":42,"x_max":944,"o":"m 793 701 l 944 701 l 944 611 l 583 -19 q 502 -139 542 -93 q 406 -210 463 -185 q 267 -236 350 -236 l 131 -236 l 131 -83 l 242 -83 q 335 -60 294 -83 q 408 14 375 -37 l 411 18 l 42 611 l 42 701 l 196 701 l 503 188 l 513 188 l 793 701 m 358 819 l 183 819 l 407 1028 l 588 1028 l 811 819 l 636 819 l 500 942 l 493 942 l 358 819 z "},"ÿ":{"ha":986,"x_min":42,"x_max":944,"o":"m 793 701 l 944 701 l 944 611 l 583 -19 q 502 -139 542 -93 q 406 -210 463 -185 q 267 -236 350 -236 l 131 -236 l 131 -83 l 242 -83 q 335 -60 294 -83 q 408 14 375 -37 l 411 18 l 42 611 l 42 701 l 196 701 l 503 188 l 513 188 l 793 701 m 407 833 l 240 833 l 240 1007 l 407 1007 l 407 833 m 754 833 l 588 833 l 588 1007 l 754 1007 l 754 833 z "},"ỳ":{"ha":986,"x_min":42,"x_max":944,"o":"m 793 701 l 944 701 l 944 611 l 583 -19 q 502 -139 542 -93 q 406 -210 463 -185 q 267 -236 350 -236 l 131 -236 l 131 -83 l 242 -83 q 335 -60 294 -83 q 408 14 375 -37 l 411 18 l 42 611 l 42 701 l 196 701 l 503 188 l 513 188 l 793 701 m 608 819 l 442 819 l 282 1028 l 497 1028 l 608 819 z "},"ȳ":{"ha":986,"x_min":42,"x_max":944,"o":"m 793 701 l 944 701 l 944 611 l 583 -19 q 502 -139 542 -93 q 406 -210 463 -185 q 267 -236 350 -236 l 131 -236 l 131 -83 l 242 -83 q 335 -60 294 -83 q 408 14 375 -37 l 411 18 l 42 611 l 42 701 l 196 701 l 503 188 l 513 188 l 793 701 m 810 861 l 185 861 l 185 993 l 810 993 l 810 861 z "},"ỹ":{"ha":986,"x_min":42,"x_max":944,"o":"m 793 701 l 944 701 l 944 611 l 583 -19 q 502 -139 542 -93 q 406 -210 463 -185 q 267 -236 350 -236 l 131 -236 l 131 -83 l 242 -83 q 335 -60 294 -83 q 408 14 375 -37 l 411 18 l 42 611 l 42 701 l 196 701 l 503 188 l 513 188 l 793 701 m 674 813 q 567 828 614 813 q 465 869 521 843 q 407 894 429 886 q 364 903 385 903 q 333 876 333 903 l 333 819 l 201 819 l 201 918 q 233 999 201 971 q 321 1028 264 1028 q 427 1013 381 1028 q 529 971 474 997 q 588 946 565 954 q 631 938 610 938 q 661 964 661 938 l 661 1021 l 793 1021 l 793 922 q 762 841 793 869 q 674 813 731 813 z "},"ź":{"ha":931,"x_min":56,"x_max":868,"o":"m 868 0 l 56 0 l 56 136 l 581 542 l 581 549 l 125 549 l 68 604 l 68 701 l 868 701 l 868 567 l 342 160 l 342 153 l 868 153 l 868 0 m 525 819 l 358 819 l 469 1028 l 685 1028 l 525 819 z "},"ž":{"ha":931,"x_min":56,"x_max":868,"o":"m 868 0 l 56 0 l 56 136 l 581 542 l 581 549 l 125 549 l 68 604 l 68 701 l 868 701 l 868 567 l 342 160 l 342 153 l 868 153 l 868 0 m 560 819 l 379 819 l 156 1028 l 336 1028 l 465 906 l 474 906 l 603 1028 l 783 1028 l 560 819 z "},"ż":{"ha":931,"x_min":56,"x_max":868,"o":"m 868 0 l 56 0 l 56 136 l 581 542 l 581 549 l 125 549 l 68 604 l 68 701 l 868 701 l 868 567 l 342 160 l 342 153 l 868 153 l 868 0 m 551 833 l 385 833 l 385 1007 l 551 1007 l 551 833 z "},"ﬁ":{"ha":1097,"x_min":111,"x_max":986,"o":"m 111 764 q 140 865 111 819 q 221 938 168 911 q 344 965 274 965 l 965 965 l 965 813 l 389 813 q 278 719 278 813 l 278 632 l 986 632 l 986 0 l 819 0 l 819 479 l 278 479 l 278 0 l 111 0 l 111 764 z "},"ﬂ":{"ha":1097,"x_min":111,"x_max":986,"o":"m 111 764 q 140 865 111 819 q 221 938 168 911 q 344 965 274 965 l 986 965 l 986 0 l 819 0 l 819 813 l 389 813 q 278 719 278 813 l 278 632 l 611 632 l 611 544 l 576 479 l 278 479 l 278 0 l 111 0 l 111 764 z "},"А":{"ha":1333,"x_min":35,"x_max":1299,"o":"m 551 972 l 782 972 l 1299 97 l 1299 0 l 1139 0 l 1021 204 l 313 204 l 194 0 l 35 0 l 35 97 l 551 972 m 661 810 l 404 364 l 929 364 l 672 810 l 661 810 z "},"Б":{"ha":1326,"x_min":132,"x_max":1243,"o":"m 132 0 l 132 972 l 1160 972 l 1160 869 l 1103 813 l 313 813 l 313 590 l 979 590 q 1176 531 1110 590 q 1243 368 1243 471 l 1243 222 q 1176 60 1243 119 q 979 0 1110 0 l 132 0 m 944 160 q 1035 185 1008 160 q 1063 264 1063 211 l 1063 326 q 1035 405 1063 379 q 944 431 1008 431 l 313 431 l 313 160 l 944 160 z "},"В":{"ha":1333,"x_min":132,"x_max":1243,"o":"m 132 0 l 132 972 l 951 972 q 1149 913 1082 972 q 1215 750 1215 853 l 1215 694 q 1196 601 1215 640 q 1148 540 1176 561 q 1092 514 1119 518 l 1092 507 q 1160 478 1125 501 q 1219 413 1196 456 q 1243 313 1243 371 l 1243 222 q 1176 60 1243 119 q 979 0 1110 0 l 132 0 m 917 579 q 1008 605 981 579 q 1035 682 1035 631 l 1035 710 q 1008 787 1035 761 q 917 813 981 813 l 313 813 l 313 579 l 917 579 m 944 160 q 1035 185 1008 160 q 1063 264 1063 211 l 1063 315 q 1035 394 1063 368 q 944 419 1008 419 l 313 419 l 313 160 l 944 160 z "},"Г":{"ha":1125,"x_min":132,"x_max":1090,"o":"m 313 0 l 132 0 l 132 972 l 1090 972 l 1090 869 l 1033 813 l 313 813 l 313 0 z "},"Д":{"ha":1465,"x_min":7,"x_max":1424,"o":"m 7 -187 l 7 158 l 90 158 q 181 213 142 174 q 231 317 219 251 l 340 972 l 1271 972 l 1271 158 l 1424 158 l 1424 -187 l 1243 -187 l 1243 0 l 188 0 l 188 -187 l 7 -187 m 319 160 l 1090 160 l 1090 813 l 494 813 l 410 311 q 375 219 400 256 q 319 168 350 182 l 319 160 z "},"Е":{"ha":1201,"x_min":132,"x_max":1132,"o":"m 1132 0 l 132 0 l 132 972 l 1132 972 l 1132 869 l 1075 813 l 313 813 l 313 572 l 946 572 l 946 413 l 313 413 l 313 160 l 1132 160 l 1132 0 z "},"Ё":{"ha":1201,"x_min":132,"x_max":1132,"o":"m 1132 0 l 132 0 l 132 972 l 1132 972 l 1132 869 l 1075 813 l 313 813 l 313 572 l 946 572 l 946 413 l 313 413 l 313 160 l 1132 160 l 1132 0 m 542 1083 l 375 1083 l 375 1257 l 542 1257 l 542 1083 m 889 1083 l 722 1083 l 722 1257 l 889 1257 l 889 1083 z "},"Ж":{"ha":2083,"x_min":56,"x_max":2028,"o":"m 217 0 l 56 0 l 56 97 l 485 501 l 69 875 l 69 972 l 229 972 l 651 579 l 951 579 l 951 972 l 1132 972 l 1132 579 l 1432 579 l 1854 972 l 2014 972 l 2014 875 l 1599 501 l 2028 97 l 2028 0 l 1867 0 l 1431 413 l 1132 413 l 1132 0 l 951 0 l 951 413 l 653 413 l 217 0 z "},"З":{"ha":1215,"x_min":63,"x_max":1125,"o":"m 63 0 l 63 160 l 826 160 q 917 185 890 160 q 944 264 944 211 l 944 313 q 917 391 944 365 q 826 417 890 417 l 333 417 l 333 576 l 811 576 q 902 602 875 576 q 929 679 929 628 l 929 710 q 902 787 929 761 q 811 813 875 813 l 129 813 l 72 869 l 72 972 l 844 972 q 1043 913 976 972 q 1110 750 1110 853 l 1110 694 q 1090 600 1110 640 q 1042 538 1071 560 q 986 511 1014 515 l 986 504 q 1083 447 1040 496 q 1125 313 1125 399 l 1125 222 q 1058 60 1125 119 q 861 0 992 0 l 63 0 z "},"И":{"ha":1424,"x_min":132,"x_max":1292,"o":"m 319 0 l 132 0 l 132 972 l 313 972 l 313 415 l 296 226 l 304 226 l 1104 972 l 1292 972 l 1292 0 l 1111 0 l 1111 557 l 1128 746 l 1119 746 l 319 0 z "},"Й":{"ha":1424,"x_min":132,"x_max":1292,"o":"m 319 0 l 132 0 l 132 972 l 313 972 l 313 415 l 296 226 l 304 226 l 1104 972 l 1292 972 l 1292 0 l 1111 0 l 1111 557 l 1128 746 l 1119 746 l 319 0 m 542 1069 q 422 1103 465 1069 q 379 1194 379 1138 l 379 1292 l 539 1292 l 539 1242 q 553 1205 539 1215 q 600 1194 567 1194 l 825 1194 q 872 1205 858 1194 q 886 1242 886 1215 l 886 1292 l 1046 1292 l 1046 1194 q 1003 1103 1046 1138 q 883 1069 960 1069 l 542 1069 z "},"К":{"ha":1326,"x_min":132,"x_max":1271,"o":"m 313 0 l 132 0 l 132 972 l 313 972 l 313 576 l 675 576 l 1097 972 l 1257 972 l 1257 875 l 842 500 l 1271 97 l 1271 0 l 1110 0 l 674 410 l 313 410 l 313 0 z "},"Л":{"ha":1444,"x_min":14,"x_max":1313,"o":"m 14 -14 l 14 144 l 108 144 q 208 169 171 144 q 254 251 246 193 l 368 972 l 1313 972 l 1313 0 l 1132 0 l 1132 813 l 525 813 l 431 214 q 346 45 414 104 q 156 -14 278 -14 l 14 -14 z "},"М":{"ha":1714,"x_min":76,"x_max":1638,"o":"m 257 0 l 76 0 l 76 97 l 231 972 l 425 972 l 853 340 l 861 340 l 1289 972 l 1483 972 l 1638 97 l 1638 0 l 1457 0 l 1342 725 l 1333 725 l 936 139 l 778 139 l 381 725 l 372 725 l 257 0 z "},"Н":{"ha":1403,"x_min":132,"x_max":1271,"o":"m 313 0 l 132 0 l 132 972 l 313 972 l 313 581 l 1090 581 l 1090 972 l 1271 972 l 1271 0 l 1090 0 l 1090 414 l 313 414 l 313 0 z "},"О":{"ha":1389,"x_min":111,"x_max":1278,"o":"m 375 -14 q 178 46 244 -14 q 111 208 111 106 l 111 764 q 178 926 111 867 q 375 986 244 986 l 1014 986 q 1211 926 1144 986 q 1278 764 1278 867 l 1278 208 q 1211 46 1278 106 q 1014 -14 1144 -14 l 375 -14 m 979 146 q 1070 172 1043 146 q 1097 250 1097 197 l 1097 722 q 1070 801 1097 775 q 979 826 1043 826 l 410 826 q 319 801 346 826 q 292 722 292 775 l 292 250 q 319 172 292 197 q 410 146 346 146 l 979 146 z "},"П":{"ha":1382,"x_min":132,"x_max":1250,"o":"m 313 0 l 132 0 l 132 972 l 1250 972 l 1250 0 l 1069 0 l 1069 813 l 313 813 l 313 0 z "},"Р":{"ha":1333,"x_min":132,"x_max":1236,"o":"m 132 0 l 132 972 l 972 972 q 1169 913 1103 972 q 1236 750 1236 853 l 1236 528 q 1169 365 1236 425 q 972 306 1103 306 l 313 306 l 313 0 l 132 0 m 938 465 q 1028 491 1001 465 q 1056 569 1056 517 l 1056 708 q 1028 787 1056 761 q 938 813 1001 813 l 313 813 l 313 465 l 938 465 z "},"С":{"ha":1236,"x_min":111,"x_max":1167,"o":"m 375 0 q 178 60 244 0 q 111 222 111 119 l 111 750 q 178 913 111 853 q 375 972 244 972 l 1167 972 l 1167 869 l 1110 813 l 410 813 q 319 787 346 813 q 292 708 292 761 l 292 264 q 319 185 292 211 q 410 160 346 160 l 1167 160 l 1167 0 l 375 0 z "},"Т":{"ha":1208,"x_min":35,"x_max":1174,"o":"m 694 0 l 514 0 l 514 813 l 35 813 l 35 972 l 1174 972 l 1174 869 l 1117 813 l 694 813 l 694 0 z "},"У":{"ha":1292,"x_min":49,"x_max":1257,"o":"m 1097 972 l 1257 972 l 1257 875 l 781 225 q 663 83 711 131 q 549 10 614 35 q 382 -14 483 -14 l 225 -14 l 225 146 l 361 146 q 469 163 426 146 q 538 217 511 181 l 568 256 l 49 875 l 49 972 l 208 972 l 674 414 l 689 414 l 1097 972 z "},"Ф":{"ha":1778,"x_min":97,"x_max":1681,"o":"m 799 -35 l 799 69 l 361 69 q 164 129 231 69 q 97 292 97 189 l 97 694 q 164 857 97 797 q 361 917 231 917 l 799 917 l 799 1021 l 979 1021 l 979 917 l 1417 917 q 1614 857 1547 917 q 1681 694 1681 797 l 1681 292 q 1614 129 1681 189 q 1417 69 1547 69 l 979 69 l 979 -35 l 799 -35 m 799 229 l 799 757 l 396 757 q 305 731 332 757 q 278 653 278 706 l 278 333 q 305 255 278 281 q 396 229 332 229 l 799 229 m 1382 229 q 1473 255 1446 229 q 1500 333 1500 281 l 1500 653 q 1473 731 1500 706 q 1382 757 1446 757 l 979 757 l 979 229 l 1382 229 z "},"Х":{"ha":1292,"x_min":56,"x_max":1236,"o":"m 222 0 l 56 0 l 56 97 l 511 488 l 90 875 l 90 972 l 257 972 l 639 604 l 653 604 l 1035 972 l 1201 972 l 1201 875 l 781 497 l 1236 97 l 1236 0 l 1069 0 l 653 376 l 639 376 l 222 0 z "},"Ц":{"ha":1438,"x_min":132,"x_max":1396,"o":"m 1396 -187 l 1215 -187 l 1215 0 l 132 0 l 132 972 l 313 972 l 313 160 l 1063 160 l 1063 972 l 1243 972 l 1243 160 l 1396 160 l 1396 -187 z "},"Ч":{"ha":1333,"x_min":97,"x_max":1201,"o":"m 1021 0 l 1021 331 l 361 331 q 164 390 231 331 q 97 553 97 450 l 97 972 l 278 972 l 278 594 q 305 516 278 542 q 396 490 332 490 l 1021 490 l 1021 972 l 1201 972 l 1201 0 l 1021 0 z "},"Ш":{"ha":1986,"x_min":132,"x_max":1854,"o":"m 1854 0 l 132 0 l 132 972 l 313 972 l 313 160 l 903 160 l 903 972 l 1083 972 l 1083 160 l 1674 160 l 1674 972 l 1854 972 l 1854 0 z "},"Щ":{"ha":2049,"x_min":132,"x_max":2007,"o":"m 2007 -187 l 1826 -187 l 1826 0 l 132 0 l 132 972 l 313 972 l 313 160 l 903 160 l 903 972 l 1083 972 l 1083 160 l 1674 160 l 1674 972 l 1854 972 l 1854 160 l 2007 160 l 2007 -187 z "},"Ъ":{"ha":1521,"x_min":21,"x_max":1431,"o":"m 340 0 l 340 813 l 21 813 l 21 972 l 521 972 l 521 639 l 1167 639 q 1364 579 1297 639 q 1431 417 1431 519 l 1431 222 q 1364 60 1431 119 q 1167 0 1297 0 l 340 0 m 1132 160 q 1223 185 1196 160 q 1250 264 1250 211 l 1250 375 q 1223 453 1250 428 q 1132 479 1196 479 l 521 479 l 521 160 l 1132 160 z "},"Ы":{"ha":1757,"x_min":132,"x_max":1625,"o":"m 132 0 l 132 972 l 313 972 l 313 639 l 958 639 q 1156 579 1089 639 q 1222 417 1222 519 l 1222 222 q 1156 60 1222 119 q 958 0 1089 0 l 132 0 m 1625 0 l 1444 0 l 1444 972 l 1625 972 l 1625 0 m 924 160 q 1015 185 988 160 q 1042 264 1042 211 l 1042 375 q 1015 453 1042 428 q 924 479 988 479 l 313 479 l 313 160 l 924 160 z "},"Ь":{"ha":1326,"x_min":132,"x_max":1236,"o":"m 132 0 l 132 972 l 313 972 l 313 639 l 972 639 q 1169 579 1103 639 q 1236 417 1236 519 l 1236 222 q 1169 60 1236 119 q 972 0 1103 0 l 132 0 m 938 160 q 1028 185 1001 160 q 1056 264 1056 211 l 1056 375 q 1028 453 1056 428 q 938 479 1001 479 l 313 479 l 313 160 l 938 160 z "},"Э":{"ha":1229,"x_min":63,"x_max":1118,"o":"m 63 0 l 63 160 l 819 160 q 910 185 883 160 q 938 264 938 211 l 938 410 l 308 410 l 308 569 l 938 569 l 938 708 q 910 787 938 761 q 819 813 883 813 l 119 813 l 63 869 l 63 972 l 854 972 q 1051 913 985 972 q 1118 750 1118 853 l 1118 222 q 1051 60 1118 119 q 854 0 985 0 l 63 0 z "},"Ю":{"ha":1875,"x_min":132,"x_max":1764,"o":"m 903 -14 q 706 46 772 -14 q 639 208 639 106 l 639 403 l 313 403 l 313 0 l 132 0 l 132 972 l 313 972 l 313 569 l 639 569 l 639 764 q 706 926 639 867 q 903 986 772 986 l 1500 986 q 1697 926 1631 986 q 1764 764 1764 867 l 1764 208 q 1697 46 1764 106 q 1500 -14 1631 -14 l 903 -14 m 1465 146 q 1556 172 1529 146 q 1583 250 1583 197 l 1583 722 q 1556 801 1583 775 q 1465 826 1529 826 l 938 826 q 847 801 874 826 q 819 722 819 775 l 819 250 q 847 172 819 197 q 938 146 874 146 l 1465 146 z "},"Я":{"ha":1326,"x_min":83,"x_max":1194,"o":"m 83 0 l 83 97 l 358 361 q 175 422 239 361 q 111 583 111 482 l 111 750 q 178 913 111 853 q 375 972 244 972 l 1194 972 l 1194 0 l 1014 0 l 1014 361 l 597 361 l 249 0 l 83 0 m 1014 521 l 1014 813 l 410 813 q 319 787 346 813 q 292 708 292 761 l 292 625 q 319 547 292 572 q 410 521 346 521 l 1014 521 z "},"Ѓ":{"ha":1125,"x_min":132,"x_max":1090,"o":"m 313 0 l 132 0 l 132 972 l 1090 972 l 1090 869 l 1033 813 l 313 813 l 313 0 m 663 1069 l 496 1069 l 607 1278 l 822 1278 l 663 1069 z "},"Ґ":{"ha":1125,"x_min":132,"x_max":1090,"o":"m 313 0 l 132 0 l 132 972 l 914 972 l 938 1097 l 1090 1097 l 1090 813 l 313 813 l 313 0 z "},"Ќ":{"ha":1326,"x_min":132,"x_max":1271,"o":"m 313 0 l 132 0 l 132 972 l 313 972 l 313 576 l 675 576 l 1097 972 l 1257 972 l 1257 875 l 842 500 l 1271 97 l 1271 0 l 1110 0 l 674 410 l 313 410 l 313 0 m 732 1069 l 565 1069 l 676 1278 l 892 1278 l 732 1069 z "},"Є":{"ha":1236,"x_min":111,"x_max":1167,"o":"m 375 0 q 178 60 244 0 q 111 222 111 119 l 111 750 q 178 913 111 853 q 375 972 244 972 l 1167 972 l 1167 869 l 1110 813 l 410 813 q 319 787 346 813 q 292 708 292 761 l 292 569 l 921 569 l 921 410 l 292 410 l 292 264 q 319 185 292 211 q 410 160 346 160 l 1167 160 l 1167 0 l 375 0 z "},"Ѕ":{"ha":1271,"x_min":90,"x_max":1194,"o":"m 92 0 l 92 160 l 896 160 q 987 185 960 160 q 1014 264 1014 211 l 1014 279 q 871 383 1014 367 l 353 443 q 158 510 225 458 q 90 653 90 563 l 90 750 q 157 913 90 853 q 354 972 224 972 l 1156 972 l 1156 869 l 1099 813 l 389 813 q 298 788 325 813 q 271 713 271 763 l 271 697 q 306 631 271 654 q 414 600 342 608 l 935 540 q 1128 470 1061 526 q 1194 324 1194 414 l 1194 222 q 1128 60 1194 119 q 931 0 1061 0 l 92 0 z "},"І":{"ha":444,"x_min":132,"x_max":313,"o":"m 313 0 l 132 0 l 132 972 l 313 972 l 313 0 z "},"Ї":{"ha":444,"x_min":-35,"x_max":479,"o":"m 313 0 l 132 0 l 132 972 l 313 972 l 313 0 m 132 1083 l -35 1083 l -35 1257 l 132 1257 l 132 1083 m 479 1083 l 313 1083 l 313 1257 l 479 1257 l 479 1083 z "},"Ј":{"ha":972,"x_min":42,"x_max":847,"o":"m 42 -14 l 42 146 l 549 146 q 640 172 613 146 q 667 250 667 197 l 667 972 l 847 972 l 847 208 q 781 46 847 106 q 583 -14 714 -14 l 42 -14 z "},"Љ":{"ha":2215,"x_min":14,"x_max":2125,"o":"m 14 -14 l 14 144 l 108 144 q 208 169 171 144 q 254 251 246 193 l 368 972 l 1257 972 l 1257 611 l 1861 611 q 2058 551 1992 611 q 2125 389 2125 492 l 2125 222 q 2058 60 2125 119 q 1861 0 1992 0 l 1076 0 l 1076 813 l 525 813 l 431 214 q 346 45 414 104 q 156 -14 278 -14 l 14 -14 m 1826 160 q 1917 185 1890 160 q 1944 264 1944 211 l 1944 347 q 1917 426 1944 400 q 1826 451 1890 451 l 1257 451 l 1257 160 l 1826 160 z "},"Њ":{"ha":2167,"x_min":132,"x_max":2076,"o":"m 132 0 l 132 972 l 313 972 l 313 611 l 1028 611 l 1028 972 l 1208 972 l 1208 611 l 1813 611 q 2010 551 1943 611 q 2076 389 2076 492 l 2076 222 q 2010 60 2076 119 q 1813 0 1943 0 l 1028 0 l 1028 451 l 313 451 l 313 0 l 132 0 m 1778 160 q 1869 185 1842 160 q 1896 264 1896 211 l 1896 347 q 1869 426 1896 400 q 1778 451 1842 451 l 1208 451 l 1208 160 l 1778 160 z "},"Ћ":{"ha":1590,"x_min":21,"x_max":1486,"o":"m 389 0 l 389 813 l 21 813 l 21 972 l 1050 972 l 1050 869 l 993 813 l 569 813 l 569 606 l 1222 606 q 1419 546 1353 606 q 1486 383 1486 486 l 1486 0 l 1306 0 l 1306 342 q 1278 420 1306 394 q 1188 446 1251 446 l 569 446 l 569 0 l 389 0 z "},"Ђ":{"ha":1590,"x_min":21,"x_max":1486,"o":"m 986 -28 l 986 132 l 1188 132 q 1278 158 1251 132 q 1306 236 1306 183 l 1306 342 q 1278 420 1306 394 q 1188 446 1251 446 l 569 446 l 569 0 l 389 0 l 389 813 l 21 813 l 21 972 l 1050 972 l 1050 869 l 993 813 l 569 813 l 569 606 l 1222 606 q 1419 546 1353 606 q 1486 383 1486 486 l 1486 194 q 1419 32 1486 92 q 1222 -28 1353 -28 l 986 -28 z "},"Ў":{"ha":1292,"x_min":49,"x_max":1257,"o":"m 1097 972 l 1257 972 l 1257 875 l 781 225 q 663 83 711 131 q 549 10 614 35 q 382 -14 483 -14 l 225 -14 l 225 146 l 361 146 q 469 163 426 146 q 538 217 511 181 l 568 256 l 49 875 l 49 972 l 208 972 l 674 414 l 689 414 l 1097 972 m 489 1069 q 369 1103 413 1069 q 326 1194 326 1138 l 326 1292 l 486 1292 l 486 1242 q 500 1205 486 1215 q 547 1194 514 1194 l 772 1194 q 819 1205 806 1194 q 833 1242 833 1215 l 833 1292 l 993 1292 l 993 1194 q 950 1103 993 1138 q 831 1069 907 1069 l 489 1069 z "},"Џ":{"ha":1375,"x_min":132,"x_max":1243,"o":"m 778 -187 l 597 -187 l 597 0 l 132 0 l 132 972 l 313 972 l 313 160 l 1063 160 l 1063 972 l 1243 972 l 1243 0 l 778 0 l 778 -187 z "},"а":{"ha":1014,"x_min":76,"x_max":917,"o":"m 310 -14 q 186 13 239 -14 q 105 86 133 40 q 76 188 76 132 l 76 222 q 105 324 76 278 q 186 397 133 369 q 310 424 239 424 l 750 424 l 750 456 q 639 549 750 549 l 160 549 l 160 701 l 683 701 q 807 674 754 701 q 888 601 860 647 q 917 500 917 556 l 917 0 l 799 0 l 771 76 l 763 76 q 549 -14 690 -14 l 310 -14 m 575 139 q 705 172 660 139 q 750 267 750 204 l 750 285 l 333 285 q 267 269 290 285 q 243 222 243 253 l 243 201 q 267 155 243 171 q 333 139 290 139 l 575 139 z "},"б":{"ha":1083,"x_min":104,"x_max":993,"o":"m 338 -14 q 214 13 267 -14 q 133 86 161 40 q 104 188 104 132 l 104 660 q 178 836 104 768 q 376 918 251 904 l 932 979 l 953 828 l 417 769 q 310 731 349 763 q 271 646 271 699 l 271 542 l 279 542 q 472 625 344 625 l 760 625 q 883 598 831 625 q 965 525 936 571 q 993 424 993 479 l 993 188 q 965 86 993 132 q 883 13 936 40 q 760 -14 831 -14 l 338 -14 m 715 139 q 826 232 826 139 l 826 379 q 715 472 826 472 l 446 472 q 316 440 361 472 q 271 344 271 407 l 271 232 q 382 139 271 139 l 715 139 z "},"в":{"ha":1014,"x_min":104,"x_max":944,"o":"m 104 0 l 104 701 l 699 701 q 869 651 807 701 q 931 514 931 600 l 931 486 q 902 406 931 439 q 831 361 874 372 l 831 354 q 910 306 876 346 q 944 217 944 267 l 944 188 q 883 51 944 101 q 714 0 822 0 l 104 0 m 669 421 q 738 438 713 421 q 764 483 764 454 l 764 500 q 738 546 764 529 q 669 563 713 563 l 271 563 l 271 421 l 669 421 m 683 139 q 752 156 726 139 q 778 201 778 172 l 778 219 q 752 265 778 249 q 683 282 726 282 l 271 282 l 271 139 l 683 139 z "},"г":{"ha":835,"x_min":104,"x_max":807,"o":"m 271 0 l 104 0 l 104 701 l 807 701 l 807 597 l 758 549 l 271 549 l 271 0 z "},"д":{"ha":1125,"x_min":7,"x_max":1090,"o":"m 7 -160 l 7 153 l 69 153 q 147 197 110 161 q 192 289 183 233 l 257 701 l 972 701 l 972 153 l 1090 153 l 1090 -160 l 924 -160 l 924 0 l 174 0 l 174 -160 l 7 -160 m 282 153 l 806 153 l 806 549 l 404 549 l 364 290 q 333 205 357 239 q 283 160 308 171 l 282 153 z "},"е":{"ha":1056,"x_min":90,"x_max":965,"o":"m 324 0 q 200 27 253 0 q 119 100 147 54 q 90 201 90 146 l 90 514 q 119 615 90 569 q 200 688 147 661 q 324 715 253 715 l 732 715 q 856 688 803 715 q 937 615 908 661 q 965 514 965 569 l 965 278 l 257 278 l 257 246 q 368 153 257 153 l 931 153 l 931 0 l 324 0 m 257 424 l 799 424 l 799 469 q 688 563 799 563 l 368 563 q 257 469 257 563 l 257 424 z "},"ё":{"ha":1056,"x_min":90,"x_max":965,"o":"m 324 0 q 200 27 253 0 q 119 100 147 54 q 90 201 90 146 l 90 514 q 119 615 90 569 q 200 688 147 661 q 324 715 253 715 l 732 715 q 856 688 803 715 q 937 615 908 661 q 965 514 965 569 l 965 278 l 257 278 l 257 246 q 368 153 257 153 l 931 153 l 931 0 l 324 0 m 257 424 l 799 424 l 799 469 q 688 563 799 563 l 368 563 q 257 469 257 563 l 257 424 m 438 833 l 271 833 l 271 1007 l 438 1007 l 438 833 m 785 833 l 618 833 l 618 1007 l 785 1007 l 785 833 z "},"ж":{"ha":1542,"x_min":49,"x_max":1493,"o":"m 201 0 l 49 0 l 49 90 l 324 361 l 67 611 l 67 701 l 213 701 l 469 431 l 688 431 l 688 701 l 854 701 l 854 431 l 1072 431 l 1329 701 l 1475 701 l 1475 611 l 1218 361 l 1493 90 l 1493 0 l 1340 0 l 1076 278 l 854 278 l 854 0 l 688 0 l 688 278 l 465 278 l 201 0 z "},"з":{"ha":938,"x_min":56,"x_max":868,"o":"m 56 0 l 56 153 l 607 153 q 676 168 651 153 q 701 213 701 183 l 701 225 q 676 269 701 254 q 607 285 651 285 l 267 285 l 267 424 l 593 424 q 688 481 688 424 l 688 492 q 593 549 688 549 l 125 549 l 69 604 l 69 701 l 622 701 q 792 651 731 701 q 854 514 854 600 l 854 486 q 826 406 854 439 q 754 361 797 372 l 754 354 q 834 306 800 346 q 868 217 868 267 l 868 188 q 807 51 868 101 q 638 0 746 0 l 56 0 z "},"и":{"ha":1097,"x_min":104,"x_max":993,"o":"m 271 0 l 104 0 l 104 701 l 271 701 l 271 350 l 257 201 l 265 201 l 826 701 l 993 701 l 993 0 l 826 0 l 826 351 l 842 500 l 832 500 l 271 0 z "},"й":{"ha":1097,"x_min":104,"x_max":993,"o":"m 271 0 l 104 0 l 104 701 l 271 701 l 271 350 l 257 201 l 265 201 l 826 701 l 993 701 l 993 0 l 826 0 l 826 351 l 842 500 l 832 500 l 271 0 m 406 819 q 286 853 329 819 q 243 944 243 888 l 243 1028 l 403 1028 l 403 992 q 417 955 403 965 q 464 944 431 944 l 633 944 q 681 955 667 944 q 694 992 694 965 l 694 1028 l 854 1028 l 854 944 q 811 853 854 888 q 692 819 768 819 l 406 819 z "},"к":{"ha":1000,"x_min":104,"x_max":951,"o":"m 271 0 l 104 0 l 104 701 l 271 701 l 271 431 l 531 431 l 788 701 l 933 701 l 933 611 l 676 361 l 951 90 l 951 0 l 799 0 l 535 278 l 271 278 l 271 0 z "},"л":{"ha":1111,"x_min":14,"x_max":1007,"o":"m 14 -14 l 14 139 l 90 139 q 182 162 150 139 q 221 239 214 185 l 281 701 l 1007 701 l 1007 0 l 840 0 l 840 549 l 431 549 l 383 188 q 305 39 371 92 q 139 -14 239 -14 l 14 -14 z "},"м":{"ha":1326,"x_min":69,"x_max":1257,"o":"m 236 0 l 69 0 l 69 90 l 181 701 l 368 701 l 658 278 l 668 278 l 958 701 l 1146 701 l 1257 90 l 1257 0 l 1090 0 l 1014 486 l 1006 486 l 739 97 l 588 97 l 321 486 l 313 486 l 236 0 z "},"н":{"ha":1069,"x_min":104,"x_max":965,"o":"m 271 0 l 104 0 l 104 701 l 271 701 l 271 431 l 799 431 l 799 701 l 965 701 l 965 0 l 799 0 l 799 278 l 271 278 l 271 0 z "},"о":{"ha":1069,"x_min":90,"x_max":979,"o":"m 324 -14 q 200 13 253 -14 q 119 86 147 40 q 90 188 90 132 l 90 514 q 119 615 90 569 q 200 688 147 661 q 324 715 253 715 l 746 715 q 869 688 817 715 q 951 615 922 661 q 979 514 979 569 l 979 188 q 951 86 979 132 q 869 13 922 40 q 746 -14 817 -14 l 324 -14 m 701 139 q 813 232 813 139 l 813 469 q 701 563 813 563 l 368 563 q 257 469 257 563 l 257 232 q 368 139 257 139 l 701 139 z "},"п":{"ha":1069,"x_min":104,"x_max":965,"o":"m 271 0 l 104 0 l 104 701 l 965 701 l 965 0 l 799 0 l 799 549 l 271 549 l 271 0 z "},"р":{"ha":1069,"x_min":104,"x_max":979,"o":"m 104 -236 l 104 701 l 222 701 l 250 625 l 258 625 q 472 715 331 715 l 746 715 q 869 688 817 715 q 951 615 922 661 q 979 514 979 569 l 979 201 q 951 100 979 146 q 869 27 922 54 q 746 0 817 0 l 271 0 l 271 -236 l 104 -236 m 701 153 q 813 246 813 153 l 813 469 q 701 563 813 563 l 446 563 q 316 530 361 563 q 271 435 271 497 l 271 153 l 701 153 z "},"с":{"ha":924,"x_min":90,"x_max":854,"o":"m 324 0 q 200 27 253 0 q 119 100 147 54 q 90 201 90 146 l 90 500 q 119 601 90 556 q 200 674 147 647 q 324 701 253 701 l 854 701 l 854 604 l 799 549 l 368 549 q 257 456 257 549 l 257 246 q 368 153 257 153 l 854 153 l 854 0 l 324 0 z "},"т":{"ha":917,"x_min":35,"x_max":882,"o":"m 542 0 l 375 0 l 375 549 l 35 549 l 35 701 l 882 701 l 882 604 l 826 549 l 542 549 l 542 0 z "},"у":{"ha":986,"x_min":42,"x_max":944,"o":"m 793 701 l 944 701 l 944 611 l 583 -19 q 502 -139 542 -93 q 406 -210 463 -185 q 267 -236 350 -236 l 131 -236 l 131 -83 l 242 -83 q 335 -60 294 -83 q 408 14 375 -37 l 411 18 l 42 611 l 42 701 l 196 701 l 503 188 l 513 188 l 793 701 z "},"ф":{"ha":1403,"x_min":90,"x_max":1313,"o":"m 618 -236 l 618 0 l 324 0 q 200 27 253 0 q 119 100 147 54 q 90 201 90 146 l 90 500 q 119 601 90 556 q 200 674 147 647 q 324 701 253 701 l 618 701 l 618 951 l 785 951 l 785 701 l 1079 701 q 1203 674 1150 701 q 1284 601 1256 647 q 1313 500 1313 556 l 1313 201 q 1284 100 1313 146 q 1203 27 1256 54 q 1079 0 1150 0 l 785 0 l 785 -236 l 618 -236 m 618 153 l 618 549 l 368 549 q 257 456 257 549 l 257 246 q 368 153 257 153 l 618 153 m 1035 153 q 1146 246 1146 153 l 1146 456 q 1035 549 1146 549 l 785 549 l 785 153 l 1035 153 z "},"х":{"ha":979,"x_min":49,"x_max":931,"o":"m 206 0 l 49 0 l 49 83 l 360 354 l 69 618 l 69 701 l 226 701 l 485 451 l 494 451 l 753 701 l 910 701 l 910 618 l 618 361 l 931 83 l 931 0 l 774 0 l 494 257 l 485 257 l 206 0 z "},"ц":{"ha":1104,"x_min":104,"x_max":1069,"o":"m 1069 -160 l 903 -160 l 903 0 l 104 0 l 104 701 l 271 701 l 271 153 l 785 153 l 785 701 l 951 701 l 951 153 l 1069 153 l 1069 -160 z "},"ч":{"ha":1007,"x_min":76,"x_max":903,"o":"m 736 0 l 736 236 l 310 236 q 186 263 239 236 q 105 336 133 290 q 76 438 76 382 l 76 701 l 243 701 l 243 482 q 354 389 243 389 l 736 389 l 736 701 l 903 701 l 903 0 l 736 0 z "},"ш":{"ha":1500,"x_min":104,"x_max":1396,"o":"m 1396 0 l 104 0 l 104 701 l 271 701 l 271 153 l 667 153 l 667 701 l 833 701 l 833 153 l 1229 153 l 1229 701 l 1396 701 l 1396 0 z "},"щ":{"ha":1549,"x_min":104,"x_max":1514,"o":"m 1514 -160 l 1347 -160 l 1347 0 l 104 0 l 104 701 l 271 701 l 271 153 l 667 153 l 667 701 l 833 701 l 833 153 l 1229 153 l 1229 701 l 1396 701 l 1396 153 l 1514 153 l 1514 -160 z "},"ъ":{"ha":1146,"x_min":21,"x_max":1076,"o":"m 285 0 l 285 549 l 21 549 l 21 701 l 451 701 l 451 493 l 851 493 q 968 467 917 493 q 1048 397 1019 442 q 1076 296 1076 351 l 1076 197 q 1048 97 1076 142 q 968 26 1019 51 q 851 0 917 0 l 285 0 m 813 153 q 910 218 910 153 l 910 275 q 813 340 910 340 l 451 340 l 451 153 l 813 153 z "},"ы":{"ha":1319,"x_min":104,"x_max":1215,"o":"m 104 0 l 104 701 l 271 701 l 271 493 l 671 493 q 788 467 736 493 q 867 397 839 442 q 896 296 896 351 l 896 197 q 867 97 896 142 q 788 26 839 51 q 671 0 736 0 l 104 0 m 1215 0 l 1049 0 l 1049 701 l 1215 701 l 1215 0 m 632 153 q 729 218 729 153 l 729 275 q 632 340 729 340 l 271 340 l 271 153 l 632 153 z "},"ь":{"ha":979,"x_min":104,"x_max":910,"o":"m 104 0 l 104 701 l 271 701 l 271 493 l 685 493 q 801 467 750 493 q 881 397 853 442 q 910 296 910 351 l 910 197 q 881 97 910 142 q 801 26 853 51 q 685 0 750 0 l 104 0 m 646 153 q 743 218 743 153 l 743 275 q 646 340 743 340 l 271 340 l 271 153 l 646 153 z "},"э":{"ha":917,"x_min":63,"x_max":826,"o":"m 63 0 l 63 153 l 549 153 q 660 246 660 153 l 660 281 l 264 281 l 264 433 l 660 433 l 660 456 q 549 549 660 549 l 118 549 l 63 604 l 63 701 l 593 701 q 717 674 664 701 q 798 601 769 647 q 826 500 826 556 l 826 201 q 798 100 826 146 q 717 27 769 54 q 593 0 664 0 l 63 0 z "},"ю":{"ha":1465,"x_min":104,"x_max":1375,"o":"m 747 -14 q 624 13 676 -14 q 542 86 571 40 q 514 188 514 132 l 514 282 l 271 282 l 271 0 l 104 0 l 104 701 l 271 701 l 271 433 l 514 433 l 514 514 q 542 615 514 569 q 624 688 571 661 q 747 715 676 715 l 1142 715 q 1265 688 1213 715 q 1347 615 1318 661 q 1375 514 1375 569 l 1375 188 q 1347 86 1375 132 q 1265 13 1318 40 q 1142 -14 1213 -14 l 747 -14 m 1097 139 q 1208 232 1208 139 l 1208 469 q 1097 563 1208 563 l 792 563 q 681 469 681 563 l 681 232 q 792 139 681 139 l 1097 139 z "},"я":{"ha":1042,"x_min":76,"x_max":938,"o":"m 938 701 l 938 0 l 771 0 l 771 222 l 435 222 l 229 0 l 76 0 l 76 90 l 232 238 q 139 307 174 260 q 104 410 104 354 l 104 514 q 131 606 104 563 q 207 675 158 649 q 317 701 256 701 l 938 701 m 771 368 l 771 556 l 368 556 q 297 534 324 556 q 271 476 271 513 l 271 447 q 297 390 271 411 q 368 368 324 368 l 771 368 z "},"ѓ":{"ha":835,"x_min":104,"x_max":807,"o":"m 271 0 l 104 0 l 104 701 l 807 701 l 807 597 l 758 549 l 271 549 l 271 0 m 508 819 l 342 819 l 453 1028 l 668 1028 l 508 819 z "},"ґ":{"ha":826,"x_min":104,"x_max":806,"o":"m 271 0 l 104 0 l 104 701 l 640 701 l 667 806 l 806 806 l 806 549 l 271 549 l 271 0 z "},"ќ":{"ha":1000,"x_min":104,"x_max":951,"o":"m 271 0 l 104 0 l 104 701 l 271 701 l 271 431 l 531 431 l 788 701 l 933 701 l 933 611 l 676 361 l 951 90 l 951 0 l 799 0 l 535 278 l 271 278 l 271 0 m 585 819 l 418 819 l 529 1028 l 744 1028 l 585 819 z "},"є":{"ha":924,"x_min":90,"x_max":854,"o":"m 324 0 q 200 27 253 0 q 119 100 147 54 q 90 201 90 146 l 90 500 q 119 601 90 556 q 200 674 147 647 q 324 701 253 701 l 854 701 l 854 604 l 799 549 l 368 549 q 257 456 257 549 l 257 433 l 653 433 l 653 281 l 257 281 l 257 246 q 368 153 257 153 l 854 153 l 854 0 l 324 0 z "},"ѕ":{"ha":951,"x_min":76,"x_max":889,"o":"m 76 0 l 76 153 l 640 153 q 704 163 686 153 q 722 193 722 172 l 722 207 q 702 235 722 226 q 624 254 682 244 l 288 308 q 130 369 183 325 q 76 483 76 414 l 76 518 q 103 608 76 565 q 182 676 129 650 q 310 701 235 701 l 853 701 l 853 600 l 801 549 l 325 549 q 261 539 279 549 q 243 508 243 529 l 243 494 q 263 466 243 475 q 342 447 283 457 l 678 393 q 835 332 782 376 q 889 218 889 288 l 889 183 q 863 94 889 136 q 783 26 836 51 q 656 0 731 0 l 76 0 z "},"і":{"ha":389,"x_min":110,"x_max":278,"o":"m 278 0 l 111 0 l 111 701 l 278 701 l 278 0 m 276 833 l 110 833 l 110 1007 l 276 1007 l 276 833 z "},"ї":{"ha":389,"x_min":-62,"x_max":451,"o":"m 278 0 l 111 0 l 111 701 l 278 701 l 278 0 m 104 833 l -62 833 l -62 1007 l 104 1007 l 104 833 m 451 833 l 285 833 l 285 1007 l 451 1007 l 451 833 z "},"ј":{"ha":389,"x_min":-104,"x_max":285,"o":"m -104 -236 l -104 -83 l 7 -83 q 118 10 118 -83 l 118 701 l 285 701 l 285 -35 q 256 -136 285 -90 q 175 -209 228 -182 q 51 -236 122 -236 l -104 -236 m 283 833 l 117 833 l 117 1007 l 283 1007 l 283 833 z "},"љ":{"ha":1646,"x_min":14,"x_max":1590,"o":"m 14 -14 l 14 139 l 90 139 q 182 162 150 139 q 221 239 214 185 l 281 701 l 979 701 l 979 458 l 1365 458 q 1482 433 1431 458 q 1562 362 1533 407 q 1590 261 1590 317 l 1590 197 q 1562 97 1590 142 q 1482 26 1533 51 q 1365 0 1431 0 l 813 0 l 813 549 l 431 549 l 383 188 q 305 39 371 92 q 139 -14 239 -14 l 14 -14 m 1326 153 q 1424 218 1424 153 l 1424 240 q 1326 306 1424 306 l 979 306 l 979 153 l 1326 153 z "},"њ":{"ha":1597,"x_min":104,"x_max":1542,"o":"m 104 0 l 104 701 l 271 701 l 271 458 l 764 458 l 764 701 l 931 701 l 931 458 l 1317 458 q 1433 433 1382 458 q 1513 362 1485 407 q 1542 261 1542 317 l 1542 197 q 1513 97 1542 142 q 1433 26 1485 51 q 1317 0 1382 0 l 764 0 l 764 306 l 271 306 l 271 0 l 104 0 m 1278 153 q 1375 218 1375 153 l 1375 240 q 1278 306 1375 306 l 931 306 l 931 153 l 1278 153 z "},"ћ":{"ha":1076,"x_min":-62,"x_max":993,"o":"m 760 590 q 883 563 831 590 q 965 490 936 536 q 993 389 993 444 l 993 0 l 826 0 l 826 344 q 715 438 826 438 l 460 438 q 330 405 375 438 q 285 310 285 372 l 285 0 l 118 0 l 118 669 l -62 669 l -62 815 l 118 815 l 118 951 l 285 951 l 285 815 l 590 815 l 590 669 l 285 669 l 285 507 l 293 507 q 486 590 358 590 l 760 590 z "},"ђ":{"ha":1076,"x_min":-62,"x_max":993,"o":"m 760 590 q 883 563 831 590 q 965 490 936 536 q 993 389 993 444 l 993 104 q 965 3 993 49 q 883 -70 936 -43 q 760 -97 831 -97 l 590 -97 l 590 56 l 715 56 q 826 149 826 56 l 826 344 q 715 438 826 438 l 460 438 q 330 405 375 438 q 285 310 285 372 l 285 0 l 118 0 l 118 669 l -62 669 l -62 815 l 118 815 l 118 951 l 285 951 l 285 815 l 590 815 l 590 669 l 285 669 l 285 507 l 293 507 q 486 590 358 590 l 760 590 z "},"ў":{"ha":986,"x_min":42,"x_max":944,"o":"m 793 701 l 944 701 l 944 611 l 583 -19 q 502 -139 542 -93 q 406 -210 463 -185 q 267 -236 350 -236 l 131 -236 l 131 -83 l 242 -83 q 335 -60 294 -83 q 408 14 375 -37 l 411 18 l 42 611 l 42 701 l 196 701 l 503 188 l 513 188 l 793 701 m 354 819 q 235 853 278 819 q 192 944 192 888 l 192 1028 l 351 1028 l 351 992 q 365 955 351 965 q 413 944 379 944 l 582 944 q 629 955 615 944 q 643 992 643 965 l 643 1028 l 803 1028 l 803 944 q 760 853 803 888 q 640 819 717 819 l 354 819 z "},"џ":{"ha":1056,"x_min":104,"x_max":951,"o":"m 611 -160 l 444 -160 l 444 0 l 104 0 l 104 701 l 271 701 l 271 153 l 785 153 l 785 701 l 951 701 l 951 0 l 611 0 l 611 -160 z "},"Ӑ":{"ha":1333,"x_min":35,"x_max":1299,"o":"m 551 972 l 782 972 l 1299 97 l 1299 0 l 1139 0 l 1021 204 l 313 204 l 194 0 l 35 0 l 35 97 l 551 972 m 661 810 l 404 364 l 929 364 l 672 810 l 661 810 m 497 1069 q 378 1103 421 1069 q 335 1194 335 1138 l 335 1292 l 494 1292 l 494 1242 q 508 1205 494 1215 q 556 1194 522 1194 l 781 1194 q 828 1205 814 1194 q 842 1242 842 1215 l 842 1292 l 1001 1292 l 1001 1194 q 958 1103 1001 1138 q 839 1069 915 1069 l 497 1069 z "},"Ғ":{"ha":1139,"x_min":0,"x_max":1104,"o":"m 146 528 l 146 972 l 1104 972 l 1104 869 l 1047 813 l 326 813 l 326 528 l 856 528 l 856 375 l 326 375 l 326 0 l 146 0 l 146 375 l 0 375 l 0 528 l 146 528 z "},"":{"ha":1160,"x_min":132,"x_max":1125,"o":"m 313 0 l 132 0 l 132 972 l 1125 972 l 1125 869 l 1068 813 l 313 813 l 313 528 l 924 528 l 924 368 l 313 368 l 313 0 z "},"Ѐ":{"ha":1201,"x_min":132,"x_max":1132,"o":"m 1132 0 l 132 0 l 132 972 l 1132 972 l 1132 869 l 1075 813 l 313 813 l 313 572 l 946 572 l 946 413 l 313 413 l 313 160 l 1132 160 l 1132 0 m 743 1069 l 576 1069 l 417 1278 l 632 1278 l 743 1069 z "},"Ӗ":{"ha":1201,"x_min":132,"x_max":1132,"o":"m 1132 0 l 132 0 l 132 972 l 1132 972 l 1132 869 l 1075 813 l 313 813 l 313 572 l 946 572 l 946 413 l 313 413 l 313 160 l 1132 160 l 1132 0 m 461 1069 q 342 1103 385 1069 q 299 1194 299 1138 l 299 1292 l 458 1292 l 458 1242 q 472 1205 458 1215 q 519 1194 486 1194 l 744 1194 q 792 1205 778 1194 q 806 1242 806 1215 l 806 1292 l 965 1292 l 965 1194 q 922 1103 965 1138 q 803 1069 879 1069 l 461 1069 z "},"Җ":{"ha":2118,"x_min":56,"x_max":2117,"o":"m 2117 -187 l 1936 -187 l 1936 0 l 1867 0 l 1431 413 l 1132 413 l 1132 0 l 951 0 l 951 413 l 653 413 l 217 0 l 56 0 l 56 97 l 485 501 l 69 875 l 69 972 l 229 972 l 651 579 l 951 579 l 951 972 l 1132 972 l 1132 579 l 1432 579 l 1854 972 l 2014 972 l 2014 875 l 1599 501 l 1961 160 l 2117 160 l 2117 -187 z "},"Ҙ":{"ha":1215,"x_min":63,"x_max":1125,"o":"m 986 504 q 1083 447 1040 496 q 1125 313 1125 399 l 1125 222 q 1058 60 1125 119 q 861 0 992 0 l 658 0 l 658 -215 l 478 -215 l 478 0 l 63 0 l 63 160 l 826 160 q 917 185 890 160 q 944 264 944 211 l 944 313 q 917 391 944 365 q 826 417 890 417 l 333 417 l 333 576 l 811 576 q 902 602 875 576 q 929 679 929 628 l 929 710 q 902 787 929 761 q 811 813 875 813 l 129 813 l 72 869 l 72 972 l 844 972 q 1043 913 976 972 q 1110 750 1110 853 l 1110 694 q 1090 600 1110 640 q 1042 538 1071 560 q 986 511 1014 515 l 986 504 z "},"":{"ha":1215,"x_min":63,"x_max":1125,"o":"m 986 504 q 1083 447 1040 496 q 1125 313 1125 399 l 1125 222 q 1058 60 1125 119 q 861 0 992 0 l 632 0 l 632 -278 l 458 -278 l 458 -160 l 542 0 l 63 0 l 63 160 l 826 160 q 917 185 890 160 q 944 264 944 211 l 944 313 q 917 391 944 365 q 826 417 890 417 l 333 417 l 333 576 l 811 576 q 902 602 875 576 q 929 679 929 628 l 929 710 q 902 787 929 761 q 811 813 875 813 l 129 813 l 72 869 l 72 972 l 844 972 q 1043 913 976 972 q 1110 750 1110 853 l 1110 694 q 1090 600 1110 640 q 1042 538 1071 560 q 986 511 1014 515 l 986 504 z "},"Ѝ":{"ha":1424,"x_min":132,"x_max":1292,"o":"m 319 0 l 132 0 l 132 972 l 313 972 l 313 415 l 296 226 l 304 226 l 1104 972 l 1292 972 l 1292 0 l 1111 0 l 1111 557 l 1128 746 l 1119 746 l 319 0 m 824 1069 l 657 1069 l 497 1278 l 713 1278 l 824 1069 z "},"Ӣ":{"ha":1424,"x_min":132,"x_max":1292,"o":"m 319 0 l 132 0 l 132 972 l 313 972 l 313 415 l 296 226 l 304 226 l 1104 972 l 1292 972 l 1292 0 l 1111 0 l 1111 557 l 1128 746 l 1119 746 l 319 0 m 1025 1111 l 400 1111 l 400 1243 l 1025 1243 l 1025 1111 z "},"Ӏ":{"ha":444,"x_min":132,"x_max":313,"o":"m 313 0 l 132 0 l 132 972 l 313 972 l 313 0 z "},"Қ":{"ha":1354,"x_min":132,"x_max":1360,"o":"m 1360 -187 l 1179 -187 l 1179 0 l 1110 0 l 674 410 l 313 410 l 313 0 l 132 0 l 132 972 l 313 972 l 313 576 l 675 576 l 1097 972 l 1257 972 l 1257 875 l 842 500 l 1204 160 l 1360 160 l 1360 -187 z "},"Ҡ":{"ha":1535,"x_min":21,"x_max":1479,"o":"m 521 0 l 340 0 l 340 813 l 21 813 l 21 972 l 521 972 l 521 576 l 883 576 l 1306 972 l 1465 972 l 1465 875 l 1050 500 l 1479 97 l 1479 0 l 1318 0 l 882 410 l 521 410 l 521 0 z "},"Ң":{"ha":1465,"x_min":132,"x_max":1424,"o":"m 1424 -187 l 1243 -187 l 1243 0 l 1090 0 l 1090 414 l 313 414 l 313 0 l 132 0 l 132 972 l 313 972 l 313 581 l 1090 581 l 1090 972 l 1271 972 l 1271 160 l 1424 160 l 1424 -187 z "},"":{"ha":1389,"x_min":111,"x_max":1278,"o":"m 375 -14 q 178 46 244 -14 q 111 208 111 106 l 111 764 q 178 926 111 867 q 375 986 244 986 l 1014 986 q 1211 926 1144 986 q 1278 764 1278 867 l 1278 208 q 1211 46 1278 106 q 1014 -14 1144 -14 l 375 -14 m 979 146 q 1070 172 1043 146 q 1097 250 1097 197 l 1097 722 q 1070 801 1097 775 q 979 826 1043 826 l 410 826 q 319 801 346 826 q 292 722 292 775 l 292 250 q 319 172 292 197 q 410 146 346 146 l 979 146 m 524 1069 q 404 1103 447 1069 q 361 1194 361 1138 l 361 1292 l 521 1292 l 521 1242 q 535 1205 521 1215 q 582 1194 549 1194 l 807 1194 q 854 1205 840 1194 q 868 1242 868 1215 l 868 1292 l 1028 1292 l 1028 1194 q 985 1103 1028 1138 q 865 1069 942 1069 l 524 1069 z "},"Ө":{"ha":1389,"x_min":111,"x_max":1278,"o":"m 1014 986 q 1211 926 1144 986 q 1278 764 1278 867 l 1278 208 q 1211 46 1278 106 q 1014 -14 1144 -14 l 375 -14 q 178 46 244 -14 q 111 208 111 106 l 111 764 q 178 926 111 867 q 375 986 244 986 l 1014 986 m 410 826 q 319 801 346 826 q 292 722 292 775 l 292 564 l 1097 564 l 1097 722 q 1070 801 1097 775 q 979 826 1043 826 l 410 826 m 979 146 q 1070 172 1043 146 q 1097 250 1097 197 l 1097 411 l 292 411 l 292 250 q 319 172 292 197 q 410 146 346 146 l 979 146 z "},"Ә":{"ha":1389,"x_min":111,"x_max":1278,"o":"m 375 -14 q 178 46 244 -14 q 111 208 111 106 l 111 569 l 1097 569 l 1097 708 q 1070 787 1097 761 q 979 813 1043 813 l 279 813 l 222 869 l 222 972 l 1014 972 q 1211 913 1144 972 q 1278 750 1278 853 l 1278 208 q 1211 46 1278 106 q 1014 -14 1144 -14 l 375 -14 m 979 146 q 1070 172 1043 146 q 1097 250 1097 197 l 1097 410 l 292 410 l 292 250 q 319 172 292 197 q 410 146 346 146 l 979 146 z "},"Ҫ":{"ha":1236,"x_min":111,"x_max":1167,"o":"m 410 813 q 319 787 346 813 q 292 708 292 761 l 292 264 q 319 185 292 211 q 410 160 346 160 l 1167 160 l 1167 0 l 785 0 l 785 -215 l 604 -215 l 604 0 l 375 0 q 178 60 244 0 q 111 222 111 119 l 111 750 q 178 913 111 853 q 375 972 244 972 l 1167 972 l 1167 869 l 1110 813 l 410 813 z "},"":{"ha":1236,"x_min":111,"x_max":1167,"o":"m 410 813 q 319 787 346 813 q 292 708 292 761 l 292 264 q 319 185 292 211 q 410 160 346 160 l 1167 160 l 1167 0 l 758 0 l 758 -278 l 585 -278 l 585 -160 l 668 0 l 375 0 q 178 60 244 0 q 111 222 111 119 l 111 750 q 178 913 111 853 q 375 972 244 972 l 1167 972 l 1167 869 l 1110 813 l 410 813 z "},"":{"ha":1236,"x_min":111,"x_max":1167,"o":"m 410 813 q 319 787 346 813 q 292 708 292 761 l 292 264 q 319 185 292 211 q 410 160 346 160 l 1167 160 l 1167 0 l 744 0 l 726 -62 l 779 -62 q 892 -93 851 -62 q 932 -181 932 -124 l 932 -208 q 892 -296 932 -265 q 779 -326 851 -326 l 564 -326 l 564 -229 l 768 -229 q 807 -201 807 -229 l 807 -187 q 768 -160 807 -160 l 624 -160 l 582 -125 l 619 0 l 375 0 q 178 60 244 0 q 111 222 111 119 l 111 750 q 178 913 111 853 q 375 972 244 972 l 1167 972 l 1167 869 l 1110 813 l 410 813 z "},"Ӯ":{"ha":1292,"x_min":49,"x_max":1257,"o":"m 1097 972 l 1257 972 l 1257 875 l 781 225 q 663 83 711 131 q 549 10 614 35 q 382 -14 483 -14 l 225 -14 l 225 146 l 361 146 q 469 163 426 146 q 538 217 511 181 l 568 256 l 49 875 l 49 972 l 208 972 l 674 414 l 689 414 l 1097 972 m 972 1111 l 347 1111 l 347 1243 l 972 1243 l 972 1111 z "},"Ӳ":{"ha":1292,"x_min":49,"x_max":1257,"o":"m 1097 972 l 1257 972 l 1257 875 l 781 225 q 663 83 711 131 q 549 10 614 35 q 382 -14 483 -14 l 225 -14 l 225 146 l 361 146 q 469 163 426 146 q 538 217 511 181 l 568 256 l 49 875 l 49 972 l 208 972 l 674 414 l 689 414 l 1097 972 m 553 1069 l 414 1069 l 561 1278 l 735 1278 l 553 1069 m 872 1069 l 733 1069 l 881 1278 l 1054 1278 l 872 1069 z "},"Ү":{"ha":1264,"x_min":42,"x_max":1222,"o":"m 722 0 l 542 0 l 542 317 l 42 875 l 42 972 l 201 972 l 625 490 l 639 490 l 1063 972 l 1222 972 l 1222 875 l 722 317 l 722 0 z "},"Ұ":{"ha":1264,"x_min":42,"x_max":1222,"o":"m 1063 972 l 1222 972 l 1222 875 l 786 388 l 1139 388 l 1139 235 l 722 235 l 722 0 l 542 0 l 542 235 l 125 235 l 125 388 l 478 388 l 42 875 l 42 972 l 201 972 l 625 490 l 639 490 l 1063 972 z "},"Ҳ":{"ha":1313,"x_min":56,"x_max":1319,"o":"m 1319 -187 l 1139 -187 l 1139 0 l 1069 0 l 653 376 l 639 376 l 222 0 l 56 0 l 56 97 l 511 488 l 90 875 l 90 972 l 257 972 l 639 604 l 653 604 l 1035 972 l 1201 972 l 1201 875 l 781 497 l 1165 160 l 1319 160 l 1319 -187 z "},"Ҷ":{"ha":1396,"x_min":97,"x_max":1354,"o":"m 1174 -187 l 1174 0 l 1021 0 l 1021 331 l 361 331 q 164 390 231 331 q 97 553 97 450 l 97 972 l 278 972 l 278 594 q 305 516 278 542 q 396 490 332 490 l 1021 490 l 1021 972 l 1201 972 l 1201 160 l 1354 160 l 1354 -187 l 1174 -187 z "},"":{"ha":1757,"x_min":132,"x_max":1625,"o":"m 132 0 l 132 972 l 313 972 l 313 639 l 958 639 q 1156 579 1089 639 q 1222 417 1222 519 l 1222 222 q 1156 60 1222 119 q 958 0 1089 0 l 132 0 m 1625 0 l 1444 0 l 1444 972 l 1625 972 l 1625 0 m 924 160 q 1015 185 988 160 q 1042 264 1042 211 l 1042 375 q 1015 453 1042 428 q 924 479 988 479 l 313 479 l 313 160 l 924 160 m 708 1069 q 589 1103 632 1069 q 546 1194 546 1138 l 546 1292 l 706 1292 l 706 1242 q 719 1205 706 1215 q 767 1194 733 1194 l 992 1194 q 1039 1205 1025 1194 q 1053 1242 1053 1215 l 1053 1292 l 1213 1292 l 1213 1194 q 1169 1103 1213 1138 q 1050 1069 1126 1069 l 708 1069 z "},"":{"ha":1229,"x_min":63,"x_max":1118,"o":"m 63 0 l 63 160 l 819 160 q 910 185 883 160 q 938 264 938 211 l 938 410 l 308 410 l 308 569 l 938 569 l 938 708 q 910 787 938 761 q 819 813 883 813 l 119 813 l 63 869 l 63 972 l 854 972 q 1051 913 985 972 q 1118 750 1118 853 l 1118 222 q 1051 60 1118 119 q 854 0 985 0 l 63 0 m 419 1069 q 300 1103 343 1069 q 257 1194 257 1138 l 257 1292 l 417 1292 l 417 1242 q 431 1205 417 1215 q 478 1194 444 1194 l 703 1194 q 750 1205 736 1194 q 764 1242 764 1215 l 764 1292 l 924 1292 l 924 1194 q 881 1103 924 1138 q 761 1069 838 1069 l 419 1069 z "},"Һ":{"ha":1333,"x_min":132,"x_max":1236,"o":"m 132 0 l 132 972 l 313 972 l 313 642 l 972 642 q 1169 582 1103 642 q 1236 419 1236 522 l 1236 0 l 1056 0 l 1056 378 q 1028 456 1056 431 q 938 482 1001 482 l 313 482 l 313 0 l 132 0 z "},"ӑ":{"ha":1014,"x_min":76,"x_max":917,"o":"m 310 -14 q 186 13 239 -14 q 105 86 133 40 q 76 188 76 132 l 76 222 q 105 324 76 278 q 186 397 133 369 q 310 424 239 424 l 750 424 l 750 456 q 639 549 750 549 l 160 549 l 160 701 l 683 701 q 807 674 754 701 q 888 601 860 647 q 917 500 917 556 l 917 0 l 799 0 l 771 76 l 763 76 q 549 -14 690 -14 l 310 -14 m 575 139 q 705 172 660 139 q 750 267 750 204 l 750 285 l 333 285 q 267 269 290 285 q 243 222 243 253 l 243 201 q 267 155 243 171 q 333 139 290 139 l 575 139 m 374 819 q 254 853 297 819 q 211 944 211 888 l 211 1028 l 371 1028 l 371 992 q 385 955 371 965 q 432 944 399 944 l 601 944 q 649 955 635 944 q 663 992 663 965 l 663 1028 l 822 1028 l 822 944 q 779 853 822 888 q 660 819 736 819 l 374 819 z "},"ғ":{"ha":849,"x_min":14,"x_max":821,"o":"m 118 388 l 118 701 l 821 701 l 821 597 l 772 549 l 285 549 l 285 388 l 671 388 l 671 235 l 285 235 l 285 0 l 118 0 l 118 235 l 14 235 l 14 388 l 118 388 z "},"":{"ha":835,"x_min":104,"x_max":807,"o":"m 104 0 l 104 701 l 807 701 l 807 597 l 758 549 l 271 549 l 271 381 l 671 381 l 671 242 l 271 242 l 271 0 l 104 0 z "},"ѐ":{"ha":1056,"x_min":90,"x_max":965,"o":"m 324 0 q 200 27 253 0 q 119 100 147 54 q 90 201 90 146 l 90 514 q 119 615 90 569 q 200 688 147 661 q 324 715 253 715 l 732 715 q 856 688 803 715 q 937 615 908 661 q 965 514 965 569 l 965 278 l 257 278 l 257 246 q 368 153 257 153 l 931 153 l 931 0 l 324 0 m 257 424 l 799 424 l 799 469 q 688 563 799 563 l 368 563 q 257 469 257 563 l 257 424 m 639 819 l 472 819 l 313 1028 l 528 1028 l 639 819 z "},"ӗ":{"ha":1056,"x_min":90,"x_max":965,"o":"m 324 0 q 200 27 253 0 q 119 100 147 54 q 90 201 90 146 l 90 514 q 119 615 90 569 q 200 688 147 661 q 324 715 253 715 l 732 715 q 856 688 803 715 q 937 615 908 661 q 965 514 965 569 l 965 278 l 257 278 l 257 246 q 368 153 257 153 l 931 153 l 931 0 l 324 0 m 257 424 l 799 424 l 799 469 q 688 563 799 563 l 368 563 q 257 469 257 563 l 257 424 m 385 819 q 265 853 308 819 q 222 944 222 888 l 222 1028 l 382 1028 l 382 992 q 396 955 382 965 q 443 944 410 944 l 613 944 q 660 955 646 944 q 674 992 674 965 l 674 1028 l 833 1028 l 833 944 q 790 853 833 888 q 671 819 747 819 l 385 819 z "},"җ":{"ha":1565,"x_min":49,"x_max":1542,"o":"m 1542 -160 l 1375 -160 l 1375 0 l 1340 0 l 1076 278 l 854 278 l 854 0 l 688 0 l 688 278 l 465 278 l 201 0 l 49 0 l 49 90 l 324 361 l 67 611 l 67 701 l 213 701 l 469 431 l 688 431 l 688 701 l 854 701 l 854 431 l 1072 431 l 1329 701 l 1475 701 l 1475 611 l 1218 361 l 1429 153 l 1542 153 l 1542 -160 z "},"ҙ":{"ha":938,"x_min":56,"x_max":868,"o":"m 754 354 q 834 306 800 346 q 868 217 868 267 l 868 188 q 807 51 868 101 q 638 0 746 0 l 529 0 l 529 -194 l 363 -194 l 363 0 l 56 0 l 56 153 l 607 153 q 676 168 651 153 q 701 213 701 183 l 701 225 q 676 269 701 254 q 607 285 651 285 l 267 285 l 267 424 l 593 424 q 688 481 688 424 l 688 492 q 593 549 688 549 l 125 549 l 69 604 l 69 701 l 622 701 q 792 651 731 701 q 854 514 854 600 l 854 486 q 826 406 854 439 q 754 361 797 372 l 754 354 z "},"":{"ha":938,"x_min":56,"x_max":868,"o":"m 754 354 q 834 306 800 346 q 868 217 868 267 l 868 188 q 807 51 868 101 q 638 0 746 0 l 517 0 l 517 -243 l 350 -243 l 350 -139 l 432 0 l 56 0 l 56 153 l 607 153 q 676 168 651 153 q 701 213 701 183 l 701 225 q 676 269 701 254 q 607 285 651 285 l 267 285 l 267 424 l 593 424 q 688 481 688 424 l 688 492 q 593 549 688 549 l 125 549 l 69 604 l 69 701 l 622 701 q 792 651 731 701 q 854 514 854 600 l 854 486 q 826 406 854 439 q 754 361 797 372 l 754 354 z "},"ѝ":{"ha":1097,"x_min":104,"x_max":993,"o":"m 271 0 l 104 0 l 104 701 l 271 701 l 271 350 l 257 201 l 265 201 l 826 701 l 993 701 l 993 0 l 826 0 l 826 351 l 842 500 l 832 500 l 271 0 m 660 819 l 493 819 l 333 1028 l 549 1028 l 660 819 z "},"ӣ":{"ha":1097,"x_min":104,"x_max":993,"o":"m 271 0 l 104 0 l 104 701 l 271 701 l 271 350 l 257 201 l 265 201 l 826 701 l 993 701 l 993 0 l 826 0 l 826 351 l 842 500 l 832 500 l 271 0 m 861 861 l 236 861 l 236 993 l 861 993 l 861 861 z "},"ӏ":{"ha":389,"x_min":111,"x_max":278,"o":"m 278 0 l 111 0 l 111 972 l 278 972 l 278 0 z "},"қ":{"ha":1028,"x_min":104,"x_max":1000,"o":"m 1000 -160 l 833 -160 l 833 0 l 799 0 l 535 278 l 271 278 l 271 0 l 104 0 l 104 701 l 271 701 l 271 431 l 531 431 l 788 701 l 933 701 l 933 611 l 676 361 l 888 153 l 1000 153 l 1000 -160 z "},"ҡ":{"ha":1181,"x_min":21,"x_max":1132,"o":"m 451 0 l 285 0 l 285 549 l 21 549 l 21 701 l 451 701 l 451 431 l 711 431 l 968 701 l 1114 701 l 1114 611 l 857 361 l 1132 90 l 1132 0 l 979 0 l 715 278 l 451 278 l 451 0 z "},"ң":{"ha":1118,"x_min":104,"x_max":1083,"o":"m 1083 -160 l 917 -160 l 917 0 l 799 0 l 799 278 l 271 278 l 271 0 l 104 0 l 104 701 l 271 701 l 271 431 l 799 431 l 799 701 l 965 701 l 965 153 l 1083 153 l 1083 -160 z "},"":{"ha":1069,"x_min":90,"x_max":979,"o":"m 324 -14 q 200 13 253 -14 q 119 86 147 40 q 90 188 90 132 l 90 514 q 119 615 90 569 q 200 688 147 661 q 324 715 253 715 l 746 715 q 869 688 817 715 q 951 615 922 661 q 979 514 979 569 l 979 188 q 951 86 979 132 q 869 13 922 40 q 746 -14 817 -14 l 324 -14 m 701 139 q 813 232 813 139 l 813 469 q 701 563 813 563 l 368 563 q 257 469 257 563 l 257 232 q 368 139 257 139 l 701 139 m 392 819 q 272 853 315 819 q 229 944 229 888 l 229 1028 l 389 1028 l 389 992 q 403 955 389 965 q 450 944 417 944 l 619 944 q 667 955 653 944 q 681 992 681 965 l 681 1028 l 840 1028 l 840 944 q 797 853 840 888 q 678 819 754 819 l 392 819 z "},"ө":{"ha":1069,"x_min":90,"x_max":979,"o":"m 746 715 q 869 688 817 715 q 951 615 922 661 q 979 514 979 569 l 979 188 q 951 86 979 132 q 869 13 922 40 q 746 -14 817 -14 l 324 -14 q 200 13 253 -14 q 119 86 147 40 q 90 188 90 132 l 90 514 q 119 615 90 569 q 200 688 147 661 q 324 715 253 715 l 746 715 m 368 563 q 257 469 257 563 l 257 428 l 813 428 l 813 469 q 701 563 813 563 l 368 563 m 701 139 q 813 232 813 139 l 813 275 l 257 275 l 257 232 q 368 139 257 139 l 701 139 z "},"ә":{"ha":1049,"x_min":83,"x_max":958,"o":"m 317 -14 q 193 13 246 -14 q 112 86 140 40 q 83 188 83 132 l 83 424 l 792 424 l 792 456 q 681 549 792 549 l 174 549 l 118 604 l 118 701 l 725 701 q 849 674 796 701 q 930 601 901 647 q 958 500 958 556 l 958 188 q 930 86 958 132 q 849 13 901 40 q 725 -14 796 -14 l 317 -14 m 681 139 q 792 232 792 139 l 792 278 l 250 278 l 250 232 q 361 139 250 139 l 681 139 z "},"ҫ":{"ha":924,"x_min":90,"x_max":854,"o":"m 368 549 q 257 456 257 549 l 257 246 q 368 153 257 153 l 854 153 l 854 0 l 593 0 l 593 -194 l 426 -194 l 426 0 l 324 0 q 200 27 253 0 q 119 100 147 54 q 90 201 90 146 l 90 500 q 119 601 90 556 q 200 674 147 647 q 324 701 253 701 l 854 701 l 854 604 l 799 549 l 368 549 z "},"":{"ha":924,"x_min":90,"x_max":854,"o":"m 368 549 q 257 456 257 549 l 257 246 q 368 153 257 153 l 854 153 l 854 0 l 581 0 l 581 -243 l 414 -243 l 414 -139 l 496 0 l 324 0 q 200 27 253 0 q 119 100 147 54 q 90 201 90 146 l 90 500 q 119 601 90 556 q 200 674 147 647 q 324 701 253 701 l 854 701 l 854 604 l 799 549 l 368 549 z "},"":{"ha":924,"x_min":90,"x_max":854,"o":"m 368 549 q 257 456 257 549 l 257 246 q 368 153 257 153 l 854 153 l 854 0 l 560 0 l 542 -62 l 594 -62 q 707 -93 667 -62 q 747 -181 747 -124 l 747 -208 q 707 -296 747 -265 q 594 -326 667 -326 l 379 -326 l 379 -229 l 583 -229 q 622 -201 622 -229 l 622 -187 q 583 -160 622 -160 l 439 -160 l 397 -125 l 435 0 l 324 0 q 200 27 253 0 q 119 100 147 54 q 90 201 90 146 l 90 500 q 119 601 90 556 q 200 674 147 647 q 324 701 253 701 l 854 701 l 854 604 l 799 549 l 368 549 z "},"ӯ":{"ha":986,"x_min":42,"x_max":944,"o":"m 793 701 l 944 701 l 944 611 l 583 -19 q 502 -139 542 -93 q 406 -210 463 -185 q 267 -236 350 -236 l 131 -236 l 131 -83 l 242 -83 q 335 -60 294 -83 q 408 14 375 -37 l 411 18 l 42 611 l 42 701 l 196 701 l 503 188 l 513 188 l 793 701 m 810 861 l 185 861 l 185 993 l 810 993 l 810 861 z "},"ӳ":{"ha":986,"x_min":42,"x_max":944,"o":"m 793 701 l 944 701 l 944 611 l 583 -19 q 502 -139 542 -93 q 406 -210 463 -185 q 267 -236 350 -236 l 131 -236 l 131 -83 l 242 -83 q 335 -60 294 -83 q 408 14 375 -37 l 411 18 l 42 611 l 42 701 l 196 701 l 503 188 l 513 188 l 793 701 m 390 819 l 251 819 l 399 1028 l 572 1028 l 390 819 m 710 819 l 571 819 l 718 1028 l 892 1028 l 710 819 z "},"ү":{"ha":986,"x_min":42,"x_max":944,"o":"m 576 -236 l 410 -236 l 410 0 l 42 618 l 42 701 l 194 701 l 489 175 l 497 175 l 792 701 l 944 701 l 944 618 l 576 0 l 576 -236 z "},"ұ":{"ha":986,"x_min":42,"x_max":944,"o":"m 792 701 l 944 701 l 944 618 l 668 153 l 903 153 l 903 0 l 576 0 l 576 -236 l 410 -236 l 410 0 l 83 0 l 83 153 l 318 153 l 42 618 l 42 701 l 194 701 l 489 175 l 497 175 l 792 701 z "},"ҳ":{"ha":997,"x_min":49,"x_max":975,"o":"m 975 -160 l 808 -160 l 808 0 l 774 0 l 494 257 l 485 257 l 206 0 l 49 0 l 49 83 l 360 354 l 69 618 l 69 701 l 226 701 l 485 451 l 494 451 l 753 701 l 910 701 l 910 618 l 618 361 l 854 153 l 975 153 l 975 -160 z "},"ҷ":{"ha":1056,"x_min":76,"x_max":1021,"o":"m 854 -160 l 854 0 l 736 0 l 736 236 l 310 236 q 186 263 239 236 q 105 336 133 290 q 76 438 76 382 l 76 701 l 243 701 l 243 482 q 354 389 243 389 l 736 389 l 736 701 l 903 701 l 903 153 l 1021 153 l 1021 -160 l 854 -160 z "},"":{"ha":1319,"x_min":104,"x_max":1215,"o":"m 104 0 l 104 701 l 271 701 l 271 493 l 671 493 q 788 467 736 493 q 867 397 839 442 q 896 296 896 351 l 896 197 q 867 97 896 142 q 788 26 839 51 q 671 0 736 0 l 104 0 m 1215 0 l 1049 0 l 1049 701 l 1215 701 l 1215 0 m 632 153 q 729 218 729 153 l 729 275 q 632 340 729 340 l 271 340 l 271 153 l 632 153 m 517 819 q 397 853 440 819 q 354 944 354 888 l 354 1028 l 514 1028 l 514 992 q 528 955 514 965 q 575 944 542 944 l 744 944 q 792 955 778 944 q 806 992 806 965 l 806 1028 l 965 1028 l 965 944 q 922 853 965 888 q 803 819 879 819 l 517 819 z "},"":{"ha":917,"x_min":63,"x_max":826,"o":"m 63 0 l 63 153 l 549 153 q 660 246 660 153 l 660 281 l 264 281 l 264 433 l 660 433 l 660 456 q 549 549 660 549 l 118 549 l 63 604 l 63 701 l 593 701 q 717 674 664 701 q 798 601 769 647 q 826 500 826 556 l 826 201 q 798 100 826 146 q 717 27 769 54 q 593 0 664 0 l 63 0 m 301 819 q 182 853 225 819 q 139 944 139 888 l 139 1028 l 299 1028 l 299 992 q 313 955 299 965 q 360 944 326 944 l 529 944 q 576 955 563 944 q 590 992 590 965 l 590 1028 l 750 1028 l 750 944 q 707 853 750 888 q 588 819 664 819 l 301 819 z "},"һ":{"ha":1083,"x_min":111,"x_max":986,"o":"m 111 0 l 111 951 l 278 951 l 278 632 l 286 632 q 479 715 351 715 l 753 715 q 876 688 824 715 q 958 615 929 661 q 986 514 986 569 l 986 0 l 819 0 l 819 469 q 708 563 819 563 l 453 563 q 323 530 368 563 q 278 435 278 497 l 278 0 l 111 0 z "},"":{"ha":1236,"x_min":104,"x_max":1132,"o":"m 368 -14 q 171 46 238 -14 q 104 208 104 106 l 104 493 q 171 656 104 596 q 368 715 238 715 l 868 715 q 1065 656 999 715 q 1132 493 1132 596 l 1132 208 q 1065 46 1132 106 q 868 -14 999 -14 l 368 -14 m 833 146 q 924 172 897 146 q 951 250 951 197 l 951 451 q 924 530 951 504 q 833 556 897 556 l 403 556 q 312 530 339 556 q 285 451 285 504 l 285 250 q 312 172 285 197 q 403 146 339 146 l 833 146 z "},"":{"ha":979,"x_min":97,"x_max":938,"o":"m 938 0 l 97 0 l 97 160 l 438 160 l 438 472 l 139 472 l 139 625 l 438 625 l 438 708 l 618 708 l 618 160 l 938 160 l 938 0 z "},"":{"ha":1104,"x_min":69,"x_max":1014,"o":"m 69 0 l 69 153 l 706 364 q 806 406 778 388 q 833 451 833 424 l 833 467 q 806 524 833 504 q 715 543 779 543 l 144 543 l 83 604 l 83 701 l 750 701 q 948 642 882 701 q 1014 481 1014 583 l 1014 444 q 958 318 1014 367 q 778 232 903 269 l 531 160 l 531 153 l 1014 153 l 1014 0 l 69 0 z "},"":{"ha":1111,"x_min":56,"x_max":1035,"o":"m 56 -236 l 56 -76 l 736 -76 q 827 -52 800 -76 q 854 21 854 -28 l 854 56 q 827 128 854 104 q 736 153 800 153 l 307 153 l 307 306 l 681 535 l 681 542 l 113 542 l 56 599 l 56 701 l 989 701 l 989 557 l 600 313 l 600 306 l 771 306 q 968 246 901 306 q 1035 83 1035 186 l 1035 -14 q 968 -176 1035 -117 q 771 -236 901 -236 l 56 -236 z "},"":{"ha":1188,"x_min":42,"x_max":1167,"o":"m 965 -236 l 785 -236 l 785 0 l 42 0 l 42 153 l 635 701 l 794 701 l 794 618 l 292 167 l 292 160 l 785 160 l 785 379 l 965 379 l 965 160 l 1167 160 l 1167 0 l 965 0 l 965 -236 z "},"":{"ha":1153,"x_min":97,"x_max":1076,"o":"m 97 -236 l 97 -76 l 778 -76 q 869 -51 842 -76 q 896 28 896 -25 l 896 83 q 869 162 896 136 q 778 188 842 188 l 111 188 l 111 701 l 1042 701 l 1042 599 l 985 542 l 292 542 l 292 347 l 813 347 q 1010 288 943 347 q 1076 125 1076 228 l 1076 -14 q 1010 -176 1076 -117 q 813 -236 943 -236 l 97 -236 z "},"":{"ha":1236,"x_min":97,"x_max":1139,"o":"m 361 -14 q 164 46 231 -14 q 97 208 97 106 l 97 383 q 133 501 97 449 q 256 618 168 554 l 742 972 l 888 972 l 888 878 l 492 597 l 492 590 l 594 590 l 875 590 q 1072 531 1006 590 q 1139 368 1139 471 l 1139 208 q 1072 46 1139 106 q 875 -14 1006 -14 l 361 -14 m 840 146 q 931 172 904 146 q 958 250 958 197 l 958 326 q 931 405 958 379 q 840 431 904 431 l 396 431 q 305 405 332 431 q 278 326 278 379 l 278 250 q 305 172 278 197 q 396 146 332 146 l 840 146 z "},"":{"ha":1049,"x_min":35,"x_max":1007,"o":"m 469 -236 l 310 -236 l 310 -139 l 788 528 l 788 535 l 35 535 l 35 701 l 1007 701 l 1007 542 l 469 -236 z "},"":{"ha":1257,"x_min":97,"x_max":1160,"o":"m 361 -14 q 164 46 231 -14 q 97 208 97 106 l 97 306 q 140 444 97 394 q 243 503 183 494 l 243 511 q 160 567 193 522 q 128 686 128 611 l 128 764 q 194 926 128 867 q 392 986 261 986 l 865 986 q 1063 926 996 986 q 1129 764 1129 867 l 1129 686 q 1097 567 1129 611 q 1014 511 1064 522 l 1014 503 q 1117 444 1074 494 q 1160 306 1160 394 l 1160 208 q 1093 46 1160 106 q 896 -14 1026 -14 l 361 -14 m 831 576 q 922 602 894 576 q 949 681 949 628 l 949 722 q 922 801 949 775 q 831 826 894 826 l 426 826 q 335 801 363 826 q 308 722 308 775 l 308 681 q 335 602 308 628 q 426 576 363 576 l 831 576 m 861 146 q 952 172 925 146 q 979 250 979 197 l 979 319 q 952 398 979 372 q 861 424 925 424 l 396 424 q 305 398 332 424 q 278 319 278 372 l 278 250 q 305 172 278 197 q 396 146 332 146 l 861 146 z "},"":{"ha":1236,"x_min":97,"x_max":1139,"o":"m 349 -236 l 349 -142 l 744 104 l 744 111 l 642 111 l 361 111 q 164 171 231 111 q 97 333 97 231 l 97 493 q 164 656 97 596 q 361 715 231 715 l 875 715 q 1072 656 1006 715 q 1139 493 1139 596 l 1139 318 q 1103 195 1139 250 q 981 83 1068 140 l 494 -236 l 349 -236 m 840 271 q 931 297 904 271 q 958 375 958 322 l 958 451 q 931 530 958 504 q 840 556 904 556 l 396 556 q 305 530 332 556 q 278 451 278 504 l 278 375 q 305 297 278 322 q 396 271 332 271 l 840 271 z "},"ª":{"ha":701,"x_min":56,"x_max":632,"o":"m 219 500 q 100 533 144 500 q 56 625 56 567 l 56 668 q 100 758 56 725 q 219 792 144 792 l 493 792 l 493 813 q 475 850 493 839 q 418 861 457 861 l 118 861 l 118 972 l 450 972 q 585 936 539 972 q 632 833 632 900 l 632 500 l 526 500 l 510 549 l 500 549 q 369 500 465 500 l 219 500 m 417 604 q 492 661 492 604 l 492 688 l 249 688 q 210 678 225 688 q 194 651 194 669 l 194 639 q 210 613 194 622 q 249 604 225 604 l 417 604 z "},"º":{"ha":701,"x_min":63,"x_max":639,"o":"m 250 500 q 113 542 163 500 q 63 653 63 583 l 63 819 q 113 931 63 889 q 250 972 163 972 l 451 972 q 589 931 539 972 q 639 819 639 889 l 639 653 q 589 542 639 583 q 451 500 539 500 l 250 500 m 425 618 q 482 629 464 618 q 500 667 500 640 l 500 806 q 482 843 500 832 q 425 854 464 854 l 276 854 q 219 843 238 854 q 201 806 201 832 l 201 667 q 219 629 201 640 q 276 618 238 618 l 425 618 z "},"⁰":{"ha":681,"x_min":56,"x_max":625,"o":"m 229 618 q 103 658 150 618 q 56 764 56 697 l 56 972 q 103 1078 56 1039 q 229 1118 150 1118 l 451 1118 q 578 1078 531 1118 q 625 972 625 1039 l 625 764 q 578 658 625 697 q 451 618 531 618 l 229 618 m 415 736 q 486 789 486 736 l 486 947 q 415 1000 486 1000 l 265 1000 q 194 947 194 1000 l 194 789 q 265 736 194 736 l 415 736 z "},"¹":{"ha":569,"x_min":56,"x_max":528,"o":"m 528 625 l 56 625 l 56 743 l 229 743 l 229 958 l 69 958 l 69 1069 l 229 1069 l 229 1111 l 368 1111 l 368 743 l 528 743 l 528 625 z "},"²":{"ha":653,"x_min":42,"x_max":604,"o":"m 42 625 l 42 732 l 382 897 q 449 935 433 922 q 464 961 464 947 l 464 971 q 431 993 464 993 l 93 993 l 51 1035 l 51 1111 l 453 1111 q 566 1078 528 1111 q 604 989 604 1044 l 604 968 q 526 847 604 886 l 328 750 l 328 743 l 604 743 l 604 625 l 42 625 z "},"³":{"ha":650,"x_min":42,"x_max":601,"o":"m 42 625 l 42 736 l 417 736 q 450 744 438 736 q 463 768 463 753 l 463 788 q 450 811 463 803 q 417 819 438 819 l 192 819 l 192 903 l 340 993 l 340 1000 l 76 1000 l 42 1035 l 42 1111 l 578 1111 l 578 1021 l 413 924 l 413 917 l 436 917 q 601 782 601 917 l 601 760 q 436 625 601 625 l 42 625 z "},"⁴":{"ha":708,"x_min":35,"x_max":674,"o":"m 563 625 l 424 625 l 424 722 l 35 722 l 35 833 l 322 1111 l 447 1111 l 447 1063 l 217 847 l 217 840 l 424 840 l 424 944 l 563 944 l 563 840 l 674 840 l 674 722 l 563 722 l 563 625 z "},"⁵":{"ha":650,"x_min":56,"x_max":601,"o":"m 56 625 l 56 736 l 417 736 q 450 744 438 736 q 463 768 463 753 l 463 794 q 450 818 463 810 q 417 826 438 826 l 69 826 l 69 1111 l 585 1111 l 585 1035 l 550 1000 l 208 1000 l 208 938 l 436 938 q 601 803 601 938 l 601 760 q 436 625 601 625 l 56 625 z "},"⁶":{"ha":688,"x_min":49,"x_max":639,"o":"m 214 618 q 49 753 49 618 l 49 800 q 114 915 49 863 l 357 1111 l 476 1111 l 476 1056 l 314 938 l 314 931 l 368 931 l 474 931 q 639 796 639 931 l 639 753 q 474 618 639 618 l 214 618 m 454 729 q 488 738 475 729 q 500 761 500 746 l 500 788 q 488 811 500 803 q 454 819 475 819 l 233 819 q 200 811 213 819 q 188 788 188 803 l 188 761 q 200 738 188 746 q 233 729 213 729 l 454 729 z "},"⁷":{"ha":625,"x_min":35,"x_max":590,"o":"m 292 625 l 168 625 l 168 681 l 421 993 l 421 1000 l 35 1000 l 35 1111 l 590 1111 l 590 1014 l 292 625 z "},"⁸":{"ha":701,"x_min":56,"x_max":646,"o":"m 221 618 q 56 753 56 618 l 56 771 q 73 839 56 814 q 131 875 90 864 l 131 882 q 88 911 103 888 q 74 972 74 935 l 74 983 q 239 1118 74 1118 l 463 1118 q 628 983 628 1118 l 628 972 q 613 911 628 935 q 571 882 599 888 l 571 875 q 628 839 611 864 q 646 771 646 814 l 646 753 q 481 618 646 618 l 221 618 m 443 917 q 476 925 464 917 q 489 949 489 933 l 489 975 q 476 999 489 990 q 443 1007 464 1007 l 258 1007 q 225 999 238 1007 q 213 975 213 990 l 213 949 q 225 925 213 933 q 258 917 238 917 l 443 917 m 461 729 q 494 738 482 729 q 507 761 507 746 l 507 788 q 494 811 507 803 q 461 819 482 819 l 240 819 q 207 811 219 819 q 194 788 194 803 l 194 761 q 207 738 194 746 q 240 729 219 729 l 461 729 z "},"⁹":{"ha":688,"x_min":49,"x_max":639,"o":"m 211 625 l 211 681 l 374 799 l 374 806 l 319 806 l 214 806 q 49 940 49 806 l 49 983 q 214 1118 49 1118 l 474 1118 q 639 983 639 1118 l 639 936 q 574 821 639 874 l 331 625 l 211 625 m 454 917 q 488 925 475 917 q 500 949 500 933 l 500 975 q 488 999 500 990 q 454 1007 475 1007 l 233 1007 q 200 999 213 1007 q 188 975 188 990 l 188 949 q 200 925 188 933 q 233 917 213 917 l 454 917 z "},"₀":{"ha":681,"x_min":56,"x_max":625,"o":"m 229 -146 q 103 -106 150 -146 q 56 0 56 -67 l 56 208 q 103 315 56 275 q 229 354 150 354 l 451 354 q 578 315 531 354 q 625 208 625 275 l 625 0 q 578 -106 625 -67 q 451 -146 531 -146 l 229 -146 m 415 -28 q 486 25 486 -28 l 486 183 q 415 236 486 236 l 265 236 q 194 183 194 236 l 194 25 q 265 -28 194 -28 l 415 -28 z "},"₁":{"ha":569,"x_min":56,"x_max":528,"o":"m 528 -139 l 56 -139 l 56 -21 l 229 -21 l 229 194 l 69 194 l 69 306 l 229 306 l 229 347 l 368 347 l 368 -21 l 528 -21 l 528 -139 z "},"₂":{"ha":653,"x_min":42,"x_max":604,"o":"m 42 -139 l 42 -32 l 382 133 q 449 171 433 158 q 464 197 464 183 l 464 207 q 431 229 464 229 l 93 229 l 51 271 l 51 347 l 453 347 q 566 314 528 347 q 604 225 604 281 l 604 204 q 526 83 604 122 l 328 -14 l 328 -21 l 604 -21 l 604 -139 l 42 -139 z "},"₃":{"ha":650,"x_min":42,"x_max":601,"o":"m 42 -139 l 42 -28 l 417 -28 q 450 -19 438 -28 q 463 4 463 -11 l 463 24 q 450 47 463 39 q 417 56 438 56 l 192 56 l 192 139 l 340 229 l 340 236 l 76 236 l 42 271 l 42 347 l 578 347 l 578 257 l 413 160 l 413 153 l 436 153 q 601 18 601 153 l 601 -4 q 436 -139 601 -139 l 42 -139 z "},"₄":{"ha":708,"x_min":35,"x_max":674,"o":"m 563 -139 l 424 -139 l 424 -42 l 35 -42 l 35 69 l 322 347 l 447 347 l 447 299 l 217 83 l 217 76 l 424 76 l 424 181 l 563 181 l 563 76 l 674 76 l 674 -42 l 563 -42 l 563 -139 z "},"₅":{"ha":650,"x_min":56,"x_max":601,"o":"m 56 -139 l 56 -28 l 417 -28 q 450 -19 438 -28 q 463 4 463 -11 l 463 31 q 450 54 463 46 q 417 63 438 63 l 69 63 l 69 347 l 585 347 l 585 271 l 550 236 l 208 236 l 208 174 l 436 174 q 601 39 601 174 l 601 -4 q 436 -139 601 -139 l 56 -139 z "},"₆":{"ha":688,"x_min":49,"x_max":639,"o":"m 214 -146 q 49 -11 49 -146 l 49 36 q 114 151 49 99 l 357 347 l 476 347 l 476 292 l 314 174 l 314 167 l 368 167 l 474 167 q 639 32 639 167 l 639 -11 q 474 -146 639 -146 l 214 -146 m 454 -35 q 488 -26 475 -35 q 500 -3 500 -18 l 500 24 q 488 47 500 39 q 454 56 475 56 l 233 56 q 200 47 213 56 q 188 24 188 39 l 188 -3 q 200 -26 188 -18 q 233 -35 213 -35 l 454 -35 z "},"₇":{"ha":625,"x_min":35,"x_max":590,"o":"m 292 -139 l 168 -139 l 168 -83 l 421 229 l 421 236 l 35 236 l 35 347 l 590 347 l 590 250 l 292 -139 z "},"₈":{"ha":701,"x_min":56,"x_max":646,"o":"m 221 -146 q 56 -11 56 -146 l 56 7 q 73 75 56 50 q 131 111 90 100 l 131 118 q 88 147 103 124 q 74 208 74 171 l 74 219 q 239 354 74 354 l 463 354 q 628 219 628 354 l 628 208 q 613 147 628 171 q 571 118 599 124 l 571 111 q 628 75 611 100 q 646 7 646 50 l 646 -11 q 481 -146 646 -146 l 221 -146 m 443 153 q 476 161 464 153 q 489 185 489 169 l 489 211 q 476 235 489 226 q 443 243 464 243 l 258 243 q 225 235 238 243 q 213 211 213 226 l 213 185 q 225 161 213 169 q 258 153 238 153 l 443 153 m 461 -35 q 494 -26 482 -35 q 507 -3 507 -18 l 507 24 q 494 47 507 39 q 461 56 482 56 l 240 56 q 207 47 219 56 q 194 24 194 39 l 194 -3 q 207 -26 194 -18 q 240 -35 219 -35 l 461 -35 z "},"₉":{"ha":688,"x_min":49,"x_max":639,"o":"m 211 -139 l 211 -83 l 374 35 l 374 42 l 319 42 l 214 42 q 49 176 49 42 l 49 219 q 214 354 49 354 l 474 354 q 639 219 639 354 l 639 172 q 574 57 639 110 l 331 -139 l 211 -139 m 454 153 q 488 161 475 153 q 500 185 500 169 l 500 211 q 488 235 500 226 q 454 243 475 243 l 233 243 q 200 235 213 243 q 188 211 188 226 l 188 185 q 200 161 188 169 q 233 153 213 153 l 454 153 z "}}}
